SplineFontDB: 3.2
FontName: Charcoal
FullName: Charcoal
FamilyName: Charcoal
Weight: Book
Copyright: (c)1995-1997 The Font Bureau, Inc. All Rights Reserved.\n* 2023 Michel Pollet -- Added some glyphs for libmui
Version: 3.2
ItalicAngle: 0
UnderlinePosition: 0
UnderlineWidth: 0
Ascent: 1536
Descent: 512
InvalidEm: 0
sfntRevision: 0x00010000
LayerCount: 2
Layer: 0 1 "Back" 1
Layer: 1 1 "Fore" 0
XUID: [1021 220 -731427345 9134032]
StyleMap: 0x0040
FSType: 0
OS2Version: 0
OS2_WeightWidthSlopeOnly: 0
OS2_UseTypoMetrics: 0
CreationTime: 830956166
ModificationTime: 1731266171
PfmFamily: 81
TTFWeight: 400
TTFWidth: 5
LineGap: 171
VLineGap: 0
Panose: 0 0 0 0 0 0 0 0 0 0
OS2TypoAscent: 1536
OS2TypoAOffset: 0
OS2TypoDescent: -512
OS2TypoDOffset: 0
OS2TypoLinegap: 171
OS2WinAscent: 2048
OS2WinAOffset: 0
OS2WinDescent: 512
OS2WinDOffset: 0
HheadAscent: 2048
HheadAOffset: 0
HheadDescent: -512
HheadDOffset: 0
OS2SubXSize: 1434
OS2SubYSize: 1331
OS2SubXOff: 0
OS2SubYOff: 293
OS2SupXSize: 1434
OS2SupYSize: 1331
OS2SupXOff: 0
OS2SupYOff: 928
OS2StrikeYSize: 102
OS2StrikeYPos: 530
OS2Vendor: 'Alts'
OS2UnicodeRanges: 00000000.00000000.00000000.00000000
MarkAttachClasses: 1
DEI: 91125
TtTable: prep
NPUSHB
 98
 63
 37
 63
 38
 79
 37
 3
 39
 37
 38
 31
 39
 37
 38
 31
 38
 37
 38
 31
 36
 37
 38
 31
 15
 37
 47
 37
 95
 37
 143
 37
 191
 37
 208
 37
 6
 208
 72
 1
 116
 117
 160
 15
 16
 86
 1
 115
 34
 224
 15
 26
 42
 160
 15
 97
 42
 160
 15
 64
 51
 80
 51
 96
 51
 112
 51
 128
 51
 144
 51
 6
 45
 47
 160
 15
 95
 47
 1
 80
 58
 1
 208
 58
 1
 58
 42
 224
 15
 42
 30
 200
 15
 43
 35
 160
 15
 34
 35
PUSHW_1
 416
NPUSHB
 20
 15
 127
 46
 1
 144
 46
 1
 16
 62
 32
 62
 48
 62
 3
 33
 31
 224
 15
 35
 31
PUSHW_1
 352
NPUSHB
 51
 15
 30
 31
 224
 15
 41
 31
 224
 15
 63
 211
 1
 204
 205
 224
 15
 16
 90
 80
 90
 96
 90
 112
 87
 144
 89
 144
 90
 6
 110
 111
 160
 15
 113
 114
 18
 31
 76
 75
 224
 15
 15
 74
 31
 74
 2
 48
 95
 1
 68
 69
PUSHW_1
 288
NPUSHB
 12
 15
 63
 69
 79
 69

StartChar: .notdef
Encoding: 409 -1 0
Width: 1024
GlyphClass: 1
Flags: W
LayerCount: 2
Fore
SplineSet
877 0 m 1,0,-1
 147 0 l 1,1,-1
 147 1552 l 1,2,-1
 877 1552 l 1,3,-1
 877 0 l 1,0,-1
727 150 m 1,4,-1
 727 1403 l 1,5,-1
 297 1403 l 1,6,-1
 297 150 l 1,7,-1
 727 150 l 1,4,-1
EndSplineSet
Validated: 1
EndChar

StartChar: exclam
Encoding: 24 33 4
Width: 709
GlyphClass: 1
Flags: W
LayerCount: 2
Fore
SplineSet
537 1509 m 1,0,-1
 498 514 l 1,1,-1
 211 514 l 1,2,-1
 172 1509 l 1,3,-1
 537 1509 l 1,0,-1
514 0 m 1,4,-1
 195 0 l 1,5,-1
 195 319 l 1,6,-1
 514 319 l 1,7,-1
 514 0 l 1,4,-1
EndSplineSet
Validated: 1
EndChar

StartChar: quotedbl
Encoding: 25 34 5
Width: 1020
GlyphClass: 1
Flags: W
LayerCount: 2
Fore
SplineSet
938 1509 m 1,0,-1
 872 1024 l 1,1,-1
 649 1024 l 1,2,-1
 596 1509 l 1,3,-1
 938 1509 l 1,0,-1
426 1509 m 1,4,-1
 360 1024 l 1,5,-1
 137 1024 l 1,6,-1
 84 1509 l 1,7,-1
 426 1509 l 1,4,-1
EndSplineSet
Validated: 1
EndChar

StartChar: numbersign
Encoding: 26 35 6
Width: 1528
GlyphClass: 1
Flags: W
LayerCount: 2
Fore
SplineSet
1528 1151 m 1,0,-1
 1466 911 l 1,1,-1
 1090 911 l 1,2,-1
 1016 598 l 1,3,-1
 1405 598 l 1,4,-1
 1348 358 l 1,5,-1
 961 358 l 1,6,-1
 872 0 l 1,7,-1
 700 0 l 1,8,-1
 786 358 l 1,9,-1
 553 358 l 1,10,-1
 467 0 l 1,11,-1
 295 0 l 1,12,-1
 379 358 l 1,13,-1
 0 358 l 1,14,-1
 53 598 l 1,15,-1
 436 598 l 1,16,-1
 510 911 l 1,17,-1
 123 911 l 1,18,-1
 176 1151 l 1,19,-1
 567 1151 l 1,20,-1
 651 1509 l 1,21,-1
 829 1509 l 1,22,-1
 743 1151 l 1,23,-1
 973 1151 l 1,24,-1
 1057 1509 l 1,25,-1
 1233 1509 l 1,26,-1
 1147 1151 l 1,27,-1
 1528 1151 l 1,0,-1
915 911 m 1,28,-1
 686 911 l 1,29,-1
 610 598 l 1,30,-1
 842 598 l 1,31,-1
 915 911 l 1,28,-1
EndSplineSet
Validated: 1
EndChar

StartChar: dollar
Encoding: 27 36 7
Width: 1195
GlyphClass: 1
Flags: W
LayerCount: 2
Fore
SplineSet
1115 451 m 0,0,1
 1115 252 1115 252 981 126 c 128,-1,2
 847 0 847 0 613 -16 c 1,3,-1
 597 -170 l 1,4,-1
 452 -170 l 1,5,-1
 468 -20 l 1,6,7
 341 -18 341 -18 257 -4 c 128,-1,8
 173 10 173 10 95 33 c 1,9,-1
 97 279 l 1,10,11
 148 256 148 256 237.5 228.5 c 128,-1,12
 327 201 327 201 490 199 c 1,13,-1
 544 668 l 1,14,15
 533 672 533 672 520 677 c 128,-1,16
 507 682 507 682 492 688 c 0,17,18
 337 750 337 750 230.5 849 c 128,-1,19
 124 948 124 948 124 1114 c 0,20,21
 124 1307 124 1307 269.5 1413.5 c 128,-1,22
 415 1520 415 1520 638 1528 c 1,23,-1
 656 1700 l 1,24,-1
 804 1700 l 1,25,-1
 783 1524 l 1,26,27
 855 1518 855 1518 919.5 1506.5 c 128,-1,28
 984 1495 984 1495 1033 1481 c 1,29,-1
 1033 1253 l 1,30,31
 959 1282 959 1282 898 1292.5 c 128,-1,32
 837 1303 837 1303 759 1307 c 1,33,-1
 716 911 l 1,34,35
 955 811 955 811 1035 698.5 c 128,-1,36
 1115 586 1115 586 1115 451 c 0,0,1
613 1309 m 1,37,38
 527 1294 527 1294 465.5 1262.5 c 128,-1,39
 404 1231 404 1231 404 1165 c 0,40,41
 404 1100 404 1100 434 1060 c 128,-1,42
 464 1020 464 1020 576 971 c 1,43,-1
 613 1309 l 1,37,38
814 391 m 0,44,45
 814 451 814 451 787.5 502 c 128,-1,46
 761 553 761 553 681 600 c 1,47,-1
 638 203 l 1,48,49
 710 217 710 217 762 259 c 128,-1,50
 814 301 814 301 814 391 c 0,44,45
EndSplineSet
Validated: 1
EndChar

StartChar: percent
Encoding: 28 37 8
Width: 1877
GlyphClass: 1
Flags: W
LayerCount: 2
Fore
SplineSet
863 1153 m 2,0,1
 863 1006 863 1006 758.5 915.5 c 128,-1,2
 654 825 654 825 482 825 c 0,3,4
 312 825 312 825 200.5 919.5 c 128,-1,5
 89 1014 89 1014 89 1151 c 2,6,-1
 89 1206 l 2,7,8
 89 1333 89 1333 190.5 1432.5 c 128,-1,9
 292 1532 292 1532 482 1532 c 0,10,11
 662 1532 662 1532 762.5 1439 c 128,-1,12
 863 1346 863 1346 863 1206 c 2,13,-1
 863 1153 l 2,0,1
1580 1509 m 1,14,-1
 545 0 l 1,15,-1
 289 0 l 1,16,-1
 1324 1509 l 1,17,-1
 1580 1509 l 1,14,-1
1778 305 m 2,18,19
 1778 139 1778 139 1672.5 58 c 128,-1,20
 1567 -23 1567 -23 1400 -23 c 0,21,22
 1219 -23 1219 -23 1112.5 69.5 c 128,-1,23
 1006 162 1006 162 1006 303 c 2,24,-1
 1006 358 l 2,25,26
 1006 481 1006 481 1108.5 582.5 c 128,-1,27
 1211 684 1211 684 1400 684 c 0,28,29
 1580 684 1580 684 1679 592 c 128,-1,30
 1778 500 1778 500 1778 358 c 2,31,-1
 1778 305 l 2,18,19
607 1163 m 2,32,-1
 607 1180 l 2,33,34
 607 1262 607 1262 583.5 1312 c 128,-1,35
 560 1362 560 1362 482 1362 c 0,36,37
 406 1362 406 1362 376.5 1314 c 128,-1,38
 347 1266 347 1266 347 1180 c 2,39,-1
 347 1163 l 2,40,41
 347 1094 347 1094 375.5 1037.5 c 128,-1,42
 404 981 404 981 484 981 c 0,43,44
 556 981 556 981 581.5 1033 c 128,-1,45
 607 1085 607 1085 607 1163 c 2,32,-1
1524 315 m 2,46,-1
 1524 332 l 2,47,48
 1524 414 1524 414 1500.5 464 c 128,-1,49
 1477 514 1477 514 1400 514 c 0,50,51
 1324 514 1324 514 1294 466 c 128,-1,52
 1264 418 1264 418 1264 332 c 2,53,-1
 1264 315 l 2,54,55
 1264 246 1264 246 1293 189.5 c 128,-1,56
 1322 133 1322 133 1402 133 c 0,57,58
 1473 133 1473 133 1498.5 185.5 c 128,-1,59
 1524 238 1524 238 1524 315 c 2,46,-1
EndSplineSet
Validated: 1
EndChar

StartChar: ampersand
Encoding: 29 38 9
Width: 1450
GlyphClass: 1
Flags: W
LayerCount: 2
Fore
SplineSet
1436 0 m 1,0,1
 1354 0 1354 0 1276 0 c 128,-1,2
 1198 0 1198 0 1120 0 c 1,3,4
 1071 49 1071 49 1041.5 82 c 128,-1,5
 1012 115 1012 115 963 168 c 1,6,7
 864 59 864 59 748.5 17 c 128,-1,8
 633 -25 633 -25 518 -25 c 0,9,10
 293 -25 293 -25 178 79.5 c 128,-1,11
 63 184 63 184 63 358 c 0,12,13
 63 512 63 512 146 620.5 c 128,-1,14
 229 729 229 729 408 848 c 1,15,16
 287 991 287 991 261.5 1060.5 c 128,-1,17
 236 1130 236 1130 236 1190 c 0,18,19
 236 1339 236 1339 340 1434.5 c 128,-1,20
 444 1530 444 1530 612 1530 c 0,21,22
 811 1530 811 1530 909.5 1435.5 c 128,-1,23
 1008 1341 1008 1341 1008 1206 c 0,24,25
 1008 1085 1008 1085 947.5 1001.5 c 128,-1,26
 887 918 887 918 729 805 c 1,27,28
 782 733 782 733 832.5 675.5 c 128,-1,29
 883 618 883 618 963 518 c 1,30,31
 1044 608 1044 608 1087 683 c 128,-1,32
 1130 758 1130 758 1178 885 c 1,33,-1
 1403 762 l 1,34,35
 1364 645 1364 645 1287 521 c 128,-1,36
 1210 397 1210 397 1141 328 c 1,37,38
 1266 190 1266 190 1326 122.5 c 128,-1,39
 1386 55 1386 55 1436 0 c 1,0,1
743 1176 m 0,40,41
 743 1235 743 1235 715.5 1274 c 128,-1,42
 688 1313 688 1313 616 1313 c 0,43,44
 549 1313 549 1313 523.5 1269 c 128,-1,45
 498 1225 498 1225 498 1182 c 0,46,47
 498 1159 498 1159 517.5 1119 c 128,-1,48
 537 1079 537 1079 600 993 c 1,49,50
 672 1051 672 1051 707.5 1092 c 128,-1,51
 743 1133 743 1133 743 1176 c 0,40,41
795 360 m 1,52,53
 713 455 713 455 667 510 c 128,-1,54
 621 565 621 565 549 657 c 1,55,56
 453 573 453 573 410 509.5 c 128,-1,57
 367 446 367 446 367 381 c 0,58,59
 367 311 367 311 409 271 c 128,-1,60
 451 231 451 231 537 231 c 0,61,62
 602 231 602 231 665.5 259 c 128,-1,63
 729 287 729 287 795 360 c 1,52,53
EndSplineSet
Validated: 1
EndChar

StartChar: quotesingle
Encoding: 30 39 10
Width: 512
GlyphClass: 1
Flags: W
LayerCount: 2
Fore
SplineSet
417 1509 m 1,0,-1
 380 1020 l 1,1,-1
 132 1020 l 1,2,-1
 96 1509 l 1,3,-1
 417 1509 l 1,0,-1
EndSplineSet
Validated: 1
EndChar

StartChar: parenleft
Encoding: 31 40 11
Width: 850
GlyphClass: 1
Flags: W
LayerCount: 2
Fore
SplineSet
741 -178 m 1,0,1
 479 -170 479 -170 281.5 61.5 c 128,-1,2
 84 293 84 293 84 688 c 0,3,4
 84 1022 84 1022 281.5 1285 c 128,-1,5
 479 1548 479 1548 741 1556 c 1,6,-1
 741 1407 l 1,7,8
 616 1358 616 1358 509.5 1141 c 128,-1,9
 403 924 403 924 403 688 c 0,10,11
 403 434 403 434 509.5 227 c 128,-1,12
 616 20 616 20 741 -29 c 1,13,-1
 741 -178 l 1,0,1
EndSplineSet
Validated: 1
EndChar

StartChar: parenright
Encoding: 32 41 12
Width: 850
GlyphClass: 1
Flags: W
LayerCount: 2
Fore
SplineSet
766 688 m 0,0,1
 766 303 766 303 572.5 69.5 c 128,-1,2
 379 -164 379 -164 109 -178 c 1,3,-1
 109 -29 l 1,4,5
 270 27 270 27 358 214 c 128,-1,6
 446 401 446 401 446 688 c 0,7,8
 446 924 446 924 348 1141 c 128,-1,9
 250 1358 250 1358 109 1407 c 1,10,-1
 109 1556 l 1,11,12
 373 1556 373 1556 569.5 1309.5 c 128,-1,13
 766 1063 766 1063 766 688 c 0,0,1
EndSplineSet
Validated: 1
EndChar

StartChar: asterisk
Encoding: 33 42 13
Width: 1102
GlyphClass: 1
Flags: W
LayerCount: 2
Fore
SplineSet
1016 850 m 1,0,-1
 750 850 l 1,1,-1
 975 625 l 1,2,-1
 852 502 l 1,3,-1
 549 805 l 1,4,-1
 246 502 l 1,5,-1
 123 625 l 1,6,-1
 348 850 l 1,7,-1
 82 850 l 1,8,-1
 82 1020 l 1,9,-1
 334 1020 l 1,10,-1
 123 1231 l 1,11,-1
 246 1354 l 1,12,-1
 549 1051 l 1,13,-1
 852 1354 l 1,14,-1
 975 1231 l 1,15,-1
 764 1020 l 1,16,-1
 1016 1020 l 1,17,-1
 1016 850 l 1,0,-1
EndSplineSet
Validated: 1
EndChar

StartChar: plus
Encoding: 34 43 14
Width: 1188
GlyphClass: 1
Flags: W
LayerCount: 2
Fore
SplineSet
1075 582 m 1,0,-1
 707 582 l 1,1,-1
 707 225 l 1,2,-1
 481 225 l 1,3,-1
 481 582 l 1,4,-1
 113 582 l 1,5,-1
 113 799 l 1,6,-1
 481 799 l 1,7,-1
 481 1155 l 1,8,-1
 707 1155 l 1,9,-1
 707 799 l 1,10,-1
 1075 799 l 1,11,-1
 1075 582 l 1,0,-1
EndSplineSet
Validated: 1
EndChar

StartChar: comma
Encoding: 35 44 15
Width: 584
GlyphClass: 1
Flags: W
LayerCount: 2
Fore
SplineSet
465 0 m 2,0,1
 465 -178 465 -178 361.5 -257 c 128,-1,2
 258 -336 258 -336 125 -336 c 1,3,-1
 125 -209 l 1,4,5
 209 -209 209 -209 259 -174 c 128,-1,6
 309 -139 309 -139 309 0 c 1,7,-1
 125 0 l 1,8,-1
 125 340 l 1,9,-1
 465 340 l 1,10,-1
 465 0 l 2,0,1
EndSplineSet
Validated: 1
EndChar

StartChar: hyphen
Encoding: 36 45 16
AltUni2: 002010.ffffffff.0 0000ad.ffffffff.0 002010.ffffffff.0 0000ad.ffffffff.0
Width: 1190
GlyphClass: 1
Flags: W
LayerCount: 2
Fore
SplineSet
1083 561 m 1,0,-1
 102 561 l 1,1,-1
 102 799 l 1,2,-1
 1083 799 l 1,3,-1
 1083 561 l 1,0,-1
EndSplineSet
Validated: 1
EndChar

StartChar: period
Encoding: 37 46 17
Width: 584
GlyphClass: 1
Flags: W
LayerCount: 2
Fore
SplineSet
459 0 m 1,0,-1
 133 0 l 1,1,-1
 133 326 l 1,2,-1
 459 326 l 1,3,-1
 459 0 l 1,0,-1
EndSplineSet
Validated: 1
EndChar

StartChar: slash
Encoding: 38 47 18
Width: 948
GlyphClass: 1
Flags: W
LayerCount: 2
Fore
SplineSet
1008 1509 m 1,0,-1
 180 -170 l 1,1,-1
 -45 -170 l 1,2,-1
 782 1509 l 1,3,-1
 1008 1509 l 1,0,-1
EndSplineSet
Validated: 1
EndChar

StartChar: zero
Encoding: 39 48 19
Width: 1188
GlyphClass: 1
Flags: W
LayerCount: 2
Fore
SplineSet
1131 688 m 2,0,1
 1131 328 1131 328 987.5 151.5 c 128,-1,2
 844 -25 844 -25 594 -25 c 256,3,4
 344 -25 344 -25 200.5 151.5 c 128,-1,5
 57 328 57 328 57 688 c 2,6,-1
 57 811 l 2,7,8
 57 1155 57 1155 193.5 1343.5 c 128,-1,9
 330 1532 330 1532 594 1532 c 256,10,11
 858 1532 858 1532 994.5 1343.5 c 128,-1,12
 1131 1155 1131 1155 1131 811 c 2,13,-1
 1131 688 l 2,0,1
794 729 m 2,14,-1
 794 770 l 2,15,16
 794 1075 794 1075 753.5 1189 c 128,-1,17
 713 1303 713 1303 594 1303 c 256,18,19
 475 1303 475 1303 435 1189 c 128,-1,20
 395 1075 395 1075 395 770 c 2,21,-1
 395 729 l 2,22,23
 395 424 395 424 436 314.5 c 128,-1,24
 477 205 477 205 594 205 c 0,25,26
 713 205 713 205 753.5 314.5 c 128,-1,27
 794 424 794 424 794 729 c 2,14,-1
EndSplineSet
Validated: 1
EndChar

StartChar: one
Encoding: 40 49 20
Width: 1188
GlyphClass: 1
Flags: W
LayerCount: 2
Fore
SplineSet
837 0 m 1,0,-1
 528 0 l 1,1,-1
 528 1149 l 1,2,-1
 317 1149 l 1,3,-1
 317 1331 l 1,4,5
 460 1343 460 1343 536 1408 c 128,-1,6
 612 1473 612 1473 634 1509 c 1,7,-1
 837 1509 l 1,8,-1
 837 0 l 1,0,-1
EndSplineSet
Validated: 1
EndChar

StartChar: two
Encoding: 41 50 21
Width: 1188
GlyphClass: 1
Flags: W
LayerCount: 2
Fore
SplineSet
1110 0 m 1,0,-1
 82 0 l 1,1,-1
 82 254 l 1,2,3
 471 590 471 590 615.5 756 c 128,-1,4
 760 922 760 922 760 1055 c 0,5,6
 760 1155 760 1155 713 1227.5 c 128,-1,7
 666 1300 666 1300 565 1300 c 0,8,9
 453 1300 453 1300 417 1258.5 c 128,-1,10
 381 1217 381 1217 362 1159 c 1,11,-1
 72 1159 l 1,12,13
 117 1352 117 1352 256 1441 c 128,-1,14
 395 1530 395 1530 612 1530 c 0,15,16
 846 1530 846 1530 972 1406 c 128,-1,17
 1098 1282 1098 1282 1098 1098 c 0,18,19
 1098 901 1098 901 925 697.5 c 128,-1,20
 752 494 752 494 362 225 c 1,21,-1
 1110 225 l 1,22,-1
 1110 0 l 1,0,-1
EndSplineSet
Validated: 1
EndChar

StartChar: three
Encoding: 42 51 22
Width: 1188
GlyphClass: 1
Flags: W
LayerCount: 2
Fore
SplineSet
1106 438 m 0,0,1
 1106 229 1106 229 960.5 102 c 128,-1,2
 815 -25 815 -25 579 -25 c 0,3,4
 372 -25 372 -25 240 53 c 128,-1,5
 108 131 108 131 43 252 c 1,6,-1
 250 379 l 1,7,8
 278 311 278 311 358 260 c 128,-1,9
 438 209 438 209 549 209 c 0,10,11
 659 209 659 209 723.5 275.5 c 128,-1,12
 788 342 788 342 788 465 c 0,13,14
 788 561 788 561 729.5 623.5 c 128,-1,15
 671 686 671 686 553 686 c 2,16,-1
 401 686 l 1,17,-1
 401 899 l 1,18,-1
 561 899 l 2,19,20
 665 899 665 899 717.5 948 c 128,-1,21
 770 997 770 997 770 1096 c 0,22,23
 770 1192 770 1192 729 1247.5 c 128,-1,24
 688 1303 688 1303 594 1303 c 0,25,26
 508 1303 508 1303 461.5 1273 c 128,-1,27
 415 1243 415 1243 391 1190 c 1,28,-1
 120 1190 l 1,29,30
 149 1329 149 1329 267 1430.5 c 128,-1,31
 385 1532 385 1532 594 1532 c 0,32,33
 841 1532 841 1532 962 1417.5 c 128,-1,34
 1083 1303 1083 1303 1083 1139 c 0,35,36
 1083 991 1083 991 1009.5 912.5 c 128,-1,37
 936 834 936 834 850 811 c 1,38,39
 956 772 956 772 1031 680 c 128,-1,40
 1106 588 1106 588 1106 438 c 0,0,1
EndSplineSet
Validated: 1
EndChar

StartChar: four
Encoding: 43 52 23
Width: 1188
GlyphClass: 1
Flags: W
LayerCount: 2
Fore
SplineSet
1133 438 m 1,0,-1
 1026 438 l 1,1,-1
 1026 0 l 1,2,-1
 719 0 l 1,3,-1
 719 438 l 1,4,-1
 58 438 l 1,5,-1
 41 729 l 1,6,-1
 822 1509 l 1,7,-1
 1026 1509 l 1,8,-1
 1026 657 l 1,9,-1
 1133 657 l 1,10,-1
 1133 438 l 1,0,-1
723 657 m 1,11,-1
 723 1116 l 1,12,-1
 264 657 l 1,13,-1
 723 657 l 1,11,-1
EndSplineSet
Validated: 1
EndChar

StartChar: five
Encoding: 44 53 24
Width: 1188
GlyphClass: 1
Flags: W
LayerCount: 2
Fore
SplineSet
1135 551 m 0,0,1
 1135 246 1135 246 972 109.5 c 128,-1,2
 809 -27 809 -27 551 -27 c 0,3,4
 358 -27 358 -27 225 51 c 128,-1,5
 92 129 92 129 12 297 c 1,6,-1
 236 426 l 1,7,8
 283 311 283 311 359.5 259 c 128,-1,9
 436 207 436 207 535 207 c 0,10,11
 662 207 662 207 726.5 286 c 128,-1,12
 791 365 791 365 791 520 c 0,13,14
 791 668 791 668 726.5 743.5 c 128,-1,15
 662 819 662 819 543 819 c 0,16,17
 483 819 483 819 419.5 795.5 c 128,-1,18
 356 772 356 772 295 721 c 1,19,-1
 98 834 l 1,20,-1
 127 1509 l 1,21,-1
 985 1509 l 1,22,-1
 985 1284 l 1,23,-1
 375 1284 l 1,24,-1
 362 1004 l 1,25,26
 418 1044 418 1044 506 1057.5 c 128,-1,27
 594 1071 594 1071 631 1071 c 0,28,29
 852 1071 852 1071 993.5 923.5 c 128,-1,30
 1135 776 1135 776 1135 551 c 0,0,1
EndSplineSet
Validated: 1
EndChar

StartChar: six
Encoding: 45 54 25
Width: 1188
GlyphClass: 1
Flags: W
LayerCount: 2
Fore
SplineSet
1168 539 m 0,0,1
 1168 281 1168 281 1021.5 128 c 128,-1,2
 875 -25 875 -25 615 -25 c 0,3,4
 337 -25 337 -25 200 122 c 0,5,6
 60 270 60 270 44 573 c 0,7,8
 43 592 43 592 43 619 c 0,9,10
 43 627 43 627 43 647 c 0,11,12
 44 692 44 692 44 705 c 0,13,14
 62 1067 62 1067 228 1296.5 c 128,-1,15
 394 1526 394 1526 697 1526 c 0,16,17
 777 1526 777 1526 837.5 1515.5 c 128,-1,18
 898 1505 898 1505 949 1495 c 1,19,-1
 949 1235 l 1,20,21
 881 1251 881 1251 818.5 1261.5 c 128,-1,22
 756 1272 756 1272 697 1272 c 0,23,24
 556 1272 556 1272 480 1178.5 c 128,-1,25
 404 1085 404 1085 390 926 c 1,26,27
 419 977 419 977 508 1018 c 128,-1,28
 597 1059 597 1059 675 1059 c 0,29,30
 908 1059 908 1059 1038 923.5 c 128,-1,31
 1168 788 1168 788 1168 539 c 0,0,1
828 514 m 0,32,33
 828 674 828 674 766.5 749.5 c 128,-1,34
 705 825 705 825 601 825 c 0,35,36
 509 825 509 825 441 750.5 c 128,-1,37
 373 676 373 676 373 514 c 0,38,39
 373 348 373 348 433.5 276.5 c 128,-1,40
 494 205 494 205 601 205 c 0,41,42
 705 205 705 205 766.5 275.5 c 128,-1,43
 828 346 828 346 828 514 c 0,32,33
EndSplineSet
Validated: 1
EndChar

StartChar: seven
Encoding: 46 55 26
Width: 1188
GlyphClass: 1
Flags: W
LayerCount: 2
Fore
SplineSet
1111 1253 m 1,0,1
 872 1103 872 1103 722 802 c 0,2,3
 590 537 590 537 590 119 c 0,4,5
 590 60 590 60 593 0 c 1,6,-1
 263 0 l 1,7,8
 263 346 263 346 410.5 712.5 c 128,-1,9
 558 1079 558 1079 855 1284 c 1,10,-1
 64 1284 l 1,11,-1
 64 1509 l 1,12,-1
 1111 1509 l 1,13,-1
 1111 1253 l 1,0,1
EndSplineSet
Validated: 1
EndChar

StartChar: eight
Encoding: 47 56 27
Width: 1188
GlyphClass: 1
Flags: W
LayerCount: 2
Fore
SplineSet
1100 446 m 0,0,1
 1100 227 1100 227 960.5 101 c 128,-1,2
 821 -25 821 -25 594 -25 c 0,3,4
 350 -25 350 -25 221 90 c 128,-1,5
 92 205 92 205 92 421 c 0,6,7
 92 534 92 534 157.5 640 c 128,-1,8
 223 746 223 746 344 791 c 1,9,-1
 344 813 l 1,10,11
 240 848 240 848 185.5 932 c 128,-1,12
 131 1016 131 1016 131 1139 c 0,13,14
 131 1300 131 1300 253 1415 c 128,-1,15
 375 1530 375 1530 594 1530 c 0,16,17
 817 1530 817 1530 933 1416.5 c 128,-1,18
 1049 1303 1049 1303 1049 1126 c 0,19,20
 1049 1012 1049 1012 996.5 929 c 128,-1,21
 944 846 944 846 852 813 c 1,22,-1
 852 791 l 1,23,24
 965 756 965 756 1032.5 672 c 128,-1,25
 1100 588 1100 588 1100 446 c 0,0,1
760 1100 m 0,26,27
 760 1202 760 1202 718 1251 c 128,-1,28
 676 1300 676 1300 594 1300 c 256,29,30
 512 1300 512 1300 471 1250 c 128,-1,31
 430 1200 430 1200 430 1100 c 0,32,33
 430 993 430 993 473 946 c 128,-1,34
 516 899 516 899 594 899 c 0,35,36
 662 899 662 899 711 944 c 128,-1,37
 760 989 760 989 760 1100 c 0,26,27
801 438 m 0,38,39
 801 567 801 567 747.5 626.5 c 128,-1,40
 694 686 694 686 594 686 c 0,41,42
 497 686 497 686 443 629.5 c 128,-1,43
 389 573 389 573 389 438 c 0,44,45
 389 315 389 315 442.5 260 c 128,-1,46
 496 205 496 205 594 205 c 0,47,48
 684 205 684 205 742.5 260 c 128,-1,49
 801 315 801 315 801 438 c 0,38,39
EndSplineSet
Validated: 1
EndChar

StartChar: nine
Encoding: 48 57 28
Width: 1188
GlyphClass: 1
Flags: W
LayerCount: 2
Fore
SplineSet
1152 801 m 0,0,1
 1122 413 1122 413 970 204 c 0,2,3
 808 -20 808 -20 499 -20 c 0,4,5
 419 -20 419 -20 358.5 -9.5 c 128,-1,6
 298 1 298 1 247 11 c 1,7,-1
 247 271 l 1,8,9
 315 255 315 255 377.5 244.5 c 128,-1,10
 440 234 440 234 499 234 c 0,11,12
 644 234 644 234 722 327 c 128,-1,13
 800 420 800 420 806 580 c 1,14,15
 777 529 777 529 688 488 c 128,-1,16
 599 447 599 447 521 447 c 0,17,18
 288 447 288 447 159.5 582.5 c 128,-1,19
 31 718 31 718 31 967 c 0,20,21
 31 1225 31 1225 176 1378 c 128,-1,22
 321 1531 321 1531 581 1531 c 0,23,24
 859 1531 859 1531 996 1384 c 0,25,26
 1125 1248 1125 1248 1152 933 c 0,27,28
 1154 910 1154 910 1154 876 c 0,29,30
 1154 868 1154 868 1154 859 c 0,31,32
 1153 814 1153 814 1152 801 c 0,0,1
823 989 m 0,33,34
 823 1155 823 1155 762.5 1226.5 c 128,-1,35
 702 1298 702 1298 595 1298 c 0,36,37
 491 1298 491 1298 431 1227.5 c 128,-1,38
 371 1157 371 1157 371 989 c 0,39,40
 371 829 371 829 431 753.5 c 128,-1,41
 491 678 491 678 595 678 c 0,42,43
 687 678 687 678 755 752.5 c 128,-1,44
 823 827 823 827 823 989 c 0,33,34
EndSplineSet
Validated: 1
EndChar

StartChar: colon
Encoding: 49 58 29
Width: 510
GlyphClass: 1
Flags: W
LayerCount: 2
Fore
SplineSet
424 823 m 1,0,-1
 98 823 l 1,1,-1
 98 1149 l 1,2,-1
 424 1149 l 1,3,-1
 424 823 l 1,0,-1
424 0 m 1,4,-1
 98 0 l 1,5,-1
 98 326 l 1,6,-1
 424 326 l 1,7,-1
 424 0 l 1,4,-1
EndSplineSet
Validated: 1
EndChar

StartChar: semicolon
Encoding: 50 59 30
AltUni2: 00037e.ffffffff.0 00037e.ffffffff.0
Width: 510
GlyphClass: 1
Flags: W
LayerCount: 2
Fore
SplineSet
424 823 m 1,0,-1
 98 823 l 1,1,-1
 98 1149 l 1,2,-1
 424 1149 l 1,3,-1
 424 823 l 1,0,-1
424 27 m 2,4,5
 424 -152 424 -152 327.5 -244 c 128,-1,6
 231 -336 231 -336 98 -336 c 1,7,-1
 98 -209 l 1,8,9
 182 -209 182 -209 227 -174 c 128,-1,10
 272 -139 272 -139 272 0 c 1,11,-1
 98 0 l 1,12,-1
 98 326 l 1,13,-1
 424 326 l 1,14,-1
 424 27 l 2,4,5
EndSplineSet
Validated: 1
EndChar

StartChar: less
Encoding: 51 60 31
Width: 1024
GlyphClass: 1
Flags: W
LayerCount: 2
Fore
SplineSet
925 94 m 1,0,-1
 75 496 l 1,1,-1
 75 698 l 1,2,-1
 925 1100 l 1,3,-1
 925 852 l 1,4,-1
 394 594 l 1,5,-1
 925 342 l 1,6,-1
 925 94 l 1,0,-1
EndSplineSet
Validated: 1
EndChar

StartChar: equal
Encoding: 52 61 32
Width: 1188
GlyphClass: 1
Flags: W
LayerCount: 2
Fore
SplineSet
1065 715 m 1,0,-1
 125 715 l 1,1,-1
 125 952 l 1,2,-1
 1065 952 l 1,3,-1
 1065 715 l 1,0,-1
1065 236 m 1,4,-1
 125 236 l 1,5,-1
 125 473 l 1,6,-1
 1065 473 l 1,7,-1
 1065 236 l 1,4,-1
EndSplineSet
Validated: 1
EndChar

StartChar: greater
Encoding: 53 62 33
Width: 1024
GlyphClass: 1
Flags: W
LayerCount: 2
Fore
SplineSet
99 94 m 1,0,-1
 99 342 l 1,1,-1
 630 594 l 1,2,-1
 99 852 l 1,3,-1
 99 1100 l 1,4,-1
 949 698 l 1,5,-1
 949 496 l 1,6,-1
 99 94 l 1,0,-1
EndSplineSet
Validated: 1
EndChar

StartChar: question
Encoding: 54 63 34
Width: 918
GlyphClass: 1
Flags: W
LayerCount: 2
Fore
SplineSet
911 1208 m 0,0,1
 911 1114 911 1114 876.5 1035 c 128,-1,2
 842 956 842 956 727 889 c 0,3,4
 637 836 637 836 590 765 c 128,-1,5
 543 694 543 694 543 612 c 0,6,7
 543 567 543 567 543 516 c 128,-1,8
 543 465 543 465 543 465 c 1,9,-1
 270 465 l 1,10,11
 270 465 270 465 270 534.5 c 128,-1,12
 270 604 270 604 270 653 c 0,13,14
 270 743 270 743 318.5 825 c 128,-1,15
 367 907 367 907 438 956 c 0,16,17
 532 1022 532 1022 562 1061 c 128,-1,18
 592 1100 592 1100 592 1174 c 0,19,20
 592 1235 592 1235 548 1272 c 128,-1,21
 504 1309 504 1309 389 1309 c 0,22,23
 287 1309 287 1309 187.5 1266 c 128,-1,24
 88 1223 88 1223 27 1176 c 1,25,-1
 27 1399 l 1,26,27
 106 1456 106 1456 209.5 1493 c 128,-1,28
 313 1530 313 1530 471 1530 c 0,29,30
 711 1530 711 1530 811 1431.5 c 128,-1,31
 911 1333 911 1333 911 1208 c 0,0,1
565 0 m 1,32,-1
 252 0 l 1,33,-1
 252 322 l 1,34,-1
 565 322 l 1,35,-1
 565 0 l 1,32,-1
EndSplineSet
Validated: 1
EndChar

StartChar: at
Encoding: 55 64 35
Width: 1870
GlyphClass: 1
Flags: W
LayerCount: 2
Fore
SplineSet
1780 688 m 0,0,1
 1780 494 1780 494 1679.5 332 c 128,-1,2
 1579 170 1579 170 1413 170 c 0,3,4
 1290 170 1290 170 1229.5 213 c 128,-1,5
 1169 256 1169 256 1151 362 c 1,6,7
 1122 260 1122 260 1063 214 c 128,-1,8
 1004 168 1004 168 885 168 c 0,9,10
 754 168 754 168 663.5 265 c 128,-1,11
 573 362 573 362 573 588 c 0,12,13
 573 778 573 778 668.5 902 c 128,-1,14
 764 1026 764 1026 942 1026 c 0,15,16
 1010 1026 1010 1026 1058 998.5 c 128,-1,17
 1106 971 1106 971 1128 928 c 1,18,19
 1128 956 1128 956 1128 988 c 128,-1,20
 1128 1020 1128 1020 1128 1020 c 1,21,-1
 1319 1020 l 1,22,23
 1319 1020 1319 1020 1318 825.5 c 128,-1,24
 1317 631 1317 631 1317 494 c 0,25,26
 1317 412 1317 412 1337.5 382 c 128,-1,27
 1358 352 1358 352 1403 352 c 0,28,29
 1507 352 1507 352 1548 465 c 128,-1,30
 1589 578 1589 578 1589 668 c 0,31,32
 1589 995 1589 995 1418 1177.5 c 128,-1,33
 1247 1360 1247 1360 967 1360 c 0,34,35
 713 1360 713 1360 525.5 1144 c 128,-1,36
 338 928 338 928 338 594 c 0,37,38
 338 233 338 233 515 35.5 c 128,-1,39
 692 -162 692 -162 971 -162 c 0,40,41
 1057 -162 1057 -162 1163.5 -142.5 c 128,-1,42
 1270 -123 1270 -123 1339 -86 c 1,43,-1
 1339 -262 l 1,44,45
 1276 -295 1276 -295 1184 -319.5 c 128,-1,46
 1092 -344 1092 -344 971 -344 c 0,47,48
 586 -344 586 -344 357.5 -89 c 128,-1,49
 129 166 129 166 129 594 c 0,50,51
 129 1004 129 1004 368.5 1272 c 128,-1,52
 608 1540 608 1540 969 1540 c 0,53,54
 1331 1540 1331 1540 1555.5 1319 c 128,-1,55
 1780 1098 1780 1098 1780 688 c 0,0,1
1128 584 m 0,56,57
 1128 623 1128 623 1128 623 c 129,-1,58
 1128 623 1128 623 1128 666 c 0,59,60
 1128 756 1128 756 1083 809 c 128,-1,61
 1038 862 1038 862 942 862 c 0,62,63
 860 862 860 862 815 794.5 c 128,-1,64
 770 727 770 727 770 582 c 0,65,66
 770 500 770 500 804 422 c 128,-1,67
 838 344 838 344 930 344 c 0,68,69
 1018 344 1018 344 1073 412.5 c 128,-1,70
 1128 481 1128 481 1128 584 c 0,56,57
EndSplineSet
Validated: 1
EndChar

StartChar: A
Encoding: 56 65 36
Width: 1358
GlyphClass: 1
Flags: W
LayerCount: 2
Fore
SplineSet
1352 0 m 1,0,-1
 1004 0 l 1,1,-1
 893 362 l 1,2,-1
 395 362 l 1,3,-1
 281 0 l 1,4,-1
 4 0 l 1,5,-1
 512 1509 l 1,6,-1
 829 1509 l 1,7,-1
 1352 0 l 1,0,-1
821 580 m 1,8,-1
 635 1135 l 1,9,-1
 461 580 l 1,10,-1
 821 580 l 1,8,-1
EndSplineSet
Validated: 1
EndChar

StartChar: B
Encoding: 57 66 37
Width: 1298
GlyphClass: 1
Flags: W
LayerCount: 2
Fore
SplineSet
1210 479 m 0,0,1
 1210 250 1210 250 1067 125 c 128,-1,2
 924 0 924 0 672 0 c 2,3,-1
 147 0 l 1,4,-1
 147 1509 l 1,5,-1
 682 1509 l 2,6,7
 911 1509 911 1509 1007.5 1428.5 c 128,-1,8
 1104 1348 1104 1348 1104 1204 c 0,9,10
 1104 1077 1104 1077 1044.5 1003.5 c 128,-1,11
 985 930 985 930 862 907 c 1,12,13
 1014 887 1014 887 1112 776.5 c 128,-1,14
 1210 666 1210 666 1210 479 c 0,0,1
784 1122 m 0,15,16
 784 1212 784 1212 736 1252 c 128,-1,17
 688 1292 688 1292 592 1292 c 2,18,-1
 475 1292 l 1,19,-1
 475 958 l 1,20,-1
 594 958 l 2,21,22
 698 958 698 958 741 1002.5 c 128,-1,23
 784 1047 784 1047 784 1122 c 0,15,16
874 496 m 0,24,25
 874 618 874 618 807.5 688 c 128,-1,26
 741 758 741 758 590 758 c 2,27,-1
 475 758 l 1,28,-1
 475 217 l 1,29,-1
 608 217 l 2,30,31
 752 217 752 217 813 288.5 c 128,-1,32
 874 360 874 360 874 496 c 0,24,25
EndSplineSet
Validated: 1
EndChar

StartChar: C
Encoding: 58 67 38
Width: 1190
GlyphClass: 1
Flags: W
LayerCount: 2
Fore
SplineSet
1108 41 m 5,0,1
 1073 18 1073 18 981 -3.5 c 132,-1,2
 889 -25 889 -25 768 -25 c 4,3,4
 463 -25 463 -25 270.5 163.5 c 132,-1,5
 78 352 78 352 78 717 c 6,6,-1
 78 778 l 6,7,8
 78 1118 78 1118 273.5 1324 c 132,-1,9
 469 1530 469 1530 764 1530 c 4,10,11
 891 1530 891 1530 976 1515.5 c 132,-1,12
 1061 1501 1061 1501 1108 1477 c 5,13,-1
 1108 1237 l 5,14,15
 1065 1260 1065 1260 991.5 1278 c 132,-1,16
 918 1296 918 1296 819 1296 c 4,17,18
 635 1296 635 1296 531.5 1153 c 132,-1,19
 428 1010 428 1010 428 758 c 6,20,-1
 428 737 l 6,21,22
 428 467 428 467 524.5 338 c 132,-1,23
 621 209 621 209 788 209 c 4,24,25
 901 209 901 209 981 231.5 c 132,-1,26
 1061 254 1061 254 1108 274 c 5,27,-1
 1108 41 l 5,0,1
EndSplineSet
Validated: 1
EndChar

StartChar: D
Encoding: 59 68 39
Width: 1360
GlyphClass: 1
Flags: W
LayerCount: 2
Fore
SplineSet
1276 723 m 2,0,1
 1276 356 1276 356 1130.5 178 c 128,-1,2
 985 0 985 0 700 0 c 2,3,-1
 147 0 l 1,4,-1
 147 1509 l 1,5,-1
 643 1509 l 2,6,7
 983 1509 983 1509 1129.5 1314.5 c 128,-1,8
 1276 1120 1276 1120 1276 784 c 2,9,-1
 1276 723 l 2,0,1
934 733 m 2,10,-1
 934 774 l 2,11,12
 934 1022 934 1022 848 1153 c 128,-1,13
 762 1284 762 1284 614 1284 c 2,14,-1
 487 1284 l 1,15,-1
 487 225 l 1,16,-1
 643 225 l 2,17,18
 788 225 788 225 861 330.5 c 128,-1,19
 934 436 934 436 934 733 c 2,10,-1
EndSplineSet
Validated: 1
EndChar

StartChar: E
Encoding: 60 69 40
Width: 1167
GlyphClass: 1
Flags: W
LayerCount: 2
Fore
SplineSet
1106 0 m 5,0,-1
 147 0 l 5,1,-1
 147 1509 l 5,2,-1
 1065 1509 l 5,3,-1
 1065 1284 l 5,4,-1
 487 1284 l 5,5,-1
 487 879 l 5,6,-1
 936 879 l 5,7,-1
 936 651 l 5,8,-1
 487 651 l 5,9,-1
 487 225 l 5,10,-1
 1106 225 l 5,11,-1
 1106 0 l 5,0,-1
EndSplineSet
Validated: 1
EndChar

StartChar: F
Encoding: 61 70 41
Width: 1110
GlyphClass: 1
Flags: W
LayerCount: 2
Fore
SplineSet
1065 1284 m 1,0,-1
 487 1284 l 1,1,-1
 487 879 l 1,2,-1
 936 879 l 1,3,-1
 936 651 l 1,4,-1
 487 651 l 1,5,-1
 487 0 l 1,6,-1
 147 0 l 1,7,-1
 147 1509 l 1,8,-1
 1065 1509 l 1,9,-1
 1065 1284 l 1,0,-1
EndSplineSet
Validated: 1
EndChar

StartChar: G
Encoding: 62 71 42
Width: 1360
GlyphClass: 1
Flags: W
LayerCount: 2
Fore
SplineSet
1274 227 m 1,0,1
 1204 117 1204 117 1070 46 c 128,-1,2
 936 -25 936 -25 721 -25 c 0,3,4
 424 -25 424 -25 254 164.5 c 128,-1,5
 84 354 84 354 84 717 c 2,6,-1
 84 799 l 2,7,8
 84 1122 84 1122 271.5 1326 c 128,-1,9
 459 1530 459 1530 797 1530 c 0,10,11
 924 1530 924 1530 1011 1506.5 c 128,-1,12
 1098 1483 1098 1483 1139 1460 c 1,13,-1
 1139 1217 l 1,14,15
 1087 1241 1087 1241 1008.5 1268.5 c 128,-1,16
 930 1296 930 1296 827 1296 c 0,17,18
 645 1296 645 1296 534.5 1171.5 c 128,-1,19
 424 1047 424 1047 424 758 c 2,20,-1
 424 737 l 2,21,22
 424 436 424 436 510 320.5 c 128,-1,23
 596 205 596 205 748 205 c 0,24,25
 831 205 831 205 899 233.5 c 128,-1,26
 967 262 967 262 989 299 c 1,27,-1
 989 608 l 1,28,-1
 758 608 l 1,29,-1
 758 809 l 1,30,-1
 1274 809 l 1,31,-1
 1274 227 l 1,0,1
EndSplineSet
Validated: 1
EndChar

StartChar: H
Encoding: 63 72 43
Width: 1360
GlyphClass: 1
Flags: W
LayerCount: 2
Fore
SplineSet
1212 0 m 1,0,-1
 872 0 l 1,1,-1
 872 649 l 1,2,-1
 487 649 l 1,3,-1
 487 0 l 1,4,-1
 147 0 l 1,5,-1
 147 1509 l 1,6,-1
 487 1509 l 1,7,-1
 487 881 l 1,8,-1
 872 881 l 1,9,-1
 872 1509 l 1,10,-1
 1212 1509 l 1,11,-1
 1212 0 l 1,0,-1
EndSplineSet
Validated: 1
EndChar

StartChar: I
Encoding: 64 73 44
Width: 750
GlyphClass: 1
Flags: W
LayerCount: 2
Fore
SplineSet
545 0 m 1,0,-1
 205 0 l 1,1,-1
 205 1509 l 1,2,-1
 545 1509 l 1,3,-1
 545 0 l 1,0,-1
EndSplineSet
Validated: 1
EndChar

StartChar: J
Encoding: 65 74 45
Width: 954
GlyphClass: 1
Flags: W
LayerCount: 2
Fore
SplineSet
795 350 m 2,0,1
 795 197 795 197 693.5 91.5 c 128,-1,2
 592 -14 592 -14 385 -14 c 0,3,4
 264 -14 264 -14 190.5 2 c 128,-1,5
 117 18 117 18 70 45 c 1,6,-1
 70 276 l 1,7,8
 109 260 109 260 173.5 245.5 c 128,-1,9
 238 231 238 231 303 231 c 0,10,11
 365 231 365 231 410 265 c 128,-1,12
 455 299 455 299 455 379 c 2,13,-1
 455 1509 l 1,14,-1
 795 1509 l 1,15,-1
 795 350 l 2,0,1
EndSplineSet
Validated: 1
EndChar

StartChar: K
Encoding: 66 75 46
Width: 1339
GlyphClass: 1
Flags: W
LayerCount: 2
Fore
SplineSet
1378 0 m 1,0,-1
 979 0 l 1,1,-1
 537 555 l 1,2,-1
 487 492 l 1,3,-1
 487 0 l 1,4,-1
 147 0 l 1,5,-1
 147 1509 l 1,6,-1
 487 1509 l 1,7,-1
 487 874 l 1,8,-1
 958 1509 l 1,9,-1
 1296 1509 l 1,10,-1
 725 803 l 1,11,-1
 1378 0 l 1,0,-1
EndSplineSet
Validated: 1
EndChar

StartChar: L
Encoding: 67 76 47
Width: 1126
GlyphClass: 1
Flags: W
LayerCount: 2
Fore
SplineSet
1047 0 m 1,0,-1
 147 0 l 1,1,-1
 147 1509 l 1,2,-1
 487 1509 l 1,3,-1
 487 225 l 1,4,-1
 1047 225 l 1,5,-1
 1047 0 l 1,0,-1
EndSplineSet
Validated: 1
EndChar

StartChar: M
Encoding: 68 77 48
Width: 1880
GlyphClass: 1
Flags: W
LayerCount: 2
Fore
SplineSet
1745 0 m 1,0,-1
 1434 0 l 1,1,-1
 1434 866 l 1,2,-1
 971 0 l 1,3,-1
 795 0 l 1,4,-1
 362 866 l 1,5,-1
 362 0 l 1,6,-1
 127 0 l 1,7,-1
 127 1509 l 1,8,-1
 379 1509 l 1,9,-1
 946 410 l 1,10,-1
 1522 1509 l 1,11,-1
 1745 1509 l 1,12,-1
 1745 0 l 1,0,-1
EndSplineSet
Validated: 1
EndChar

StartChar: N
Encoding: 69 78 49
Width: 1397
GlyphClass: 1
Flags: W
LayerCount: 2
Fore
SplineSet
1270 0 m 1,0,-1
 1124 0 l 1,1,-1
 369 948 l 1,2,-1
 369 0 l 1,3,-1
 127 0 l 1,4,-1
 127 1509 l 1,5,-1
 309 1509 l 1,6,-1
 1028 616 l 1,7,-1
 1028 1509 l 1,8,-1
 1270 1509 l 1,9,-1
 1270 0 l 1,0,-1
EndSplineSet
Validated: 1
EndChar

StartChar: O
Encoding: 70 79 50
Width: 1365
GlyphClass: 1
Flags: W
LayerCount: 2
Fore
SplineSet
1306 707 m 2,0,1
 1306 350 1306 350 1136 162.5 c 128,-1,2
 966 -25 966 -25 687 -25 c 0,3,4
 411 -25 411 -25 240 162.5 c 128,-1,5
 69 350 69 350 69 702 c 2,6,-1
 69 788 l 2,7,8
 69 1116 69 1116 228.5 1323 c 128,-1,9
 388 1530 388 1530 696 1530 c 0,10,11
 997 1530 997 1530 1151.5 1320 c 128,-1,12
 1306 1110 1306 1110 1306 788 c 2,13,-1
 1306 707 l 2,0,1
964 727 m 2,14,-1
 964 768 l 2,15,16
 964 1047 964 1047 916 1182 c 128,-1,17
 868 1317 868 1317 687 1317 c 0,18,19
 520 1317 520 1317 465.5 1197 c 128,-1,20
 411 1077 411 1077 411 768 c 2,21,-1
 411 731 l 2,22,23
 411 420 411 420 460 304 c 128,-1,24
 509 188 509 188 687 188 c 0,25,26
 833 188 833 188 898.5 313 c 128,-1,27
 964 438 964 438 964 727 c 2,14,-1
EndSplineSet
Validated: 1
EndChar

StartChar: P
Encoding: 71 80 51
Width: 1190
GlyphClass: 1
Flags: W
LayerCount: 2
Fore
SplineSet
1147 999 m 2,0,1
 1147 807 1147 807 1030 709.5 c 128,-1,2
 913 612 913 612 692 612 c 2,3,-1
 487 612 l 1,4,-1
 487 0 l 1,5,-1
 147 0 l 1,6,-1
 147 1509 l 1,7,-1
 713 1509 l 2,8,9
 956 1509 956 1509 1051.5 1391.5 c 128,-1,10
 1147 1274 1147 1274 1147 1118 c 2,11,-1
 1147 999 l 2,0,1
799 977 m 2,12,-1
 799 1122 l 2,13,14
 799 1208 799 1208 751 1249 c 128,-1,15
 703 1290 703 1290 593 1290 c 2,16,-1
 487 1290 l 1,17,-1
 487 819 l 1,18,-1
 611 819 l 2,19,20
 691 819 691 819 745 860 c 128,-1,21
 799 901 799 901 799 977 c 2,12,-1
EndSplineSet
Validated: 1
EndChar

StartChar: Q
Encoding: 72 81 52
Width: 1365
GlyphClass: 1
Flags: W
LayerCount: 2
Fore
SplineSet
1301 707 m 2,0,1
 1301 401 1301 401 1168 212 c 128,-1,2
 1035 23 1035 23 828 2 c 1,3,4
 834 -86 834 -86 872 -125 c 128,-1,5
 910 -164 910 -164 1014 -164 c 0,6,7
 1070 -164 1070 -164 1131 -164 c 128,-1,8
 1192 -164 1192 -164 1192 -164 c 1,9,-1
 1192 -340 l 1,10,-1
 893 -340 l 2,11,12
 715 -340 715 -340 622 -236.5 c 128,-1,13
 529 -133 529 -133 523 2 c 1,14,15
 271 78 271 78 167.5 261 c 128,-1,16
 64 444 64 444 64 707 c 2,17,-1
 64 788 l 2,18,19
 64 1126 64 1126 231 1328 c 128,-1,20
 398 1530 398 1530 682 1530 c 0,21,22
 984 1530 984 1530 1142.5 1331.5 c 128,-1,23
 1301 1133 1301 1133 1301 788 c 2,24,-1
 1301 707 l 2,0,1
959 727 m 2,25,-1
 959 768 l 2,26,27
 959 1090 959 1090 900.5 1203.5 c 128,-1,28
 842 1317 842 1317 682 1317 c 0,29,30
 523 1317 523 1317 464.5 1206.5 c 128,-1,31
 406 1096 406 1096 406 768 c 2,32,-1
 406 727 l 2,33,34
 406 424 406 424 456 306 c 128,-1,35
 506 188 506 188 682 188 c 0,36,37
 824 188 824 188 891.5 310 c 128,-1,38
 959 432 959 432 959 727 c 2,25,-1
EndSplineSet
Validated: 1
EndChar

StartChar: R
Encoding: 73 82 53
Width: 1251
GlyphClass: 1
Flags: W
LayerCount: 2
Fore
SplineSet
1180 0 m 1,0,-1
 844 0 l 1,1,2
 840 365 840 365 774.5 521.5 c 128,-1,3
 709 678 709 678 567 678 c 2,4,-1
 487 678 l 1,5,-1
 487 0 l 1,6,-1
 147 0 l 1,7,-1
 147 1509 l 1,8,-1
 741 1509 l 2,9,10
 958 1509 958 1509 1048.5 1415 c 128,-1,11
 1139 1321 1139 1321 1139 1184 c 2,12,-1
 1139 1102 l 2,13,14
 1139 973 1139 973 1060 895 c 128,-1,15
 981 817 981 817 823 803 c 1,16,17
 1001 750 1001 750 1090.5 567.5 c 128,-1,18
 1180 385 1180 385 1180 0 c 1,0,-1
804 1071 m 2,19,-1
 804 1112 l 2,20,21
 804 1210 804 1210 752 1252 c 128,-1,22
 700 1294 700 1294 598 1294 c 2,23,-1
 487 1294 l 1,24,-1
 487 895 l 1,25,-1
 579 895 l 2,26,27
 700 895 700 895 752 939 c 128,-1,28
 804 983 804 983 804 1071 c 2,19,-1
EndSplineSet
Validated: 1
EndChar

StartChar: S
Encoding: 74 83 54
Width: 1155
GlyphClass: 1
Flags: W
LayerCount: 2
Fore
SplineSet
1092 449 m 4,0,1
 1092 209 1092 209 932 94.5 c 132,-1,2
 772 -20 772 -20 487 -20 c 4,3,4
 324 -20 324 -20 212 -1 c 132,-1,5
 100 18 100 18 27 47 c 5,6,-1
 27 307 l 5,7,8
 84 272 84 272 206 242.5 c 132,-1,9
 328 213 328 213 446 213 c 4,10,11
 612 213 612 213 674.5 257 c 132,-1,12
 737 301 737 301 737 403 c 4,13,14
 737 469 737 469 692 520 c 132,-1,15
 647 571 647 571 436 655 c 4,16,17
 268 723 268 723 176 828.5 c 132,-1,18
 84 934 84 934 84 1116 c 4,19,20
 84 1290 84 1290 232.5 1410 c 132,-1,21
 381 1530 381 1530 643 1530 c 4,22,23
 770 1530 770 1530 871.5 1509.5 c 132,-1,24
 973 1489 973 1489 1014 1473 c 5,25,-1
 1014 1243 l 5,26,27
 928 1264 928 1264 843 1280 c 132,-1,28
 758 1296 758 1296 662 1296 c 4,29,30
 526 1296 526 1296 466 1254 c 132,-1,31
 406 1212 406 1212 406 1149 c 4,32,33
 406 1069 406 1069 451 1028 c 132,-1,34
 496 987 496 987 715 907 c 4,35,36
 919 833 919 833 1005.5 719.5 c 132,-1,37
 1092 606 1092 606 1092 449 c 4,0,1
EndSplineSet
Validated: 1
EndChar

StartChar: T
Encoding: 75 84 55
Width: 1024
GlyphClass: 1
Flags: W
LayerCount: 2
Fore
SplineSet
1014 1284 m 1,0,-1
 686 1284 l 1,1,-1
 686 0 l 1,2,-1
 346 0 l 1,3,-1
 346 1284 l 1,4,-1
 10 1284 l 1,5,-1
 10 1509 l 1,6,-1
 1014 1509 l 1,7,-1
 1014 1284 l 1,0,-1
EndSplineSet
Validated: 1
EndChar

StartChar: U
Encoding: 76 85 56
Width: 1343
GlyphClass: 1
Flags: W
LayerCount: 2
Fore
SplineSet
1225 436 m 2,0,1
 1225 223 1225 223 1094 102.5 c 128,-1,2
 963 -18 963 -18 688 -18 c 0,3,4
 393 -18 393 -18 264 111 c 128,-1,5
 135 240 135 240 135 494 c 2,6,-1
 135 1509 l 1,7,-1
 475 1509 l 1,8,-1
 475 453 l 2,9,10
 475 330 475 330 530.5 268.5 c 128,-1,11
 586 207 586 207 723 207 c 0,12,13
 850 207 850 207 911.5 262 c 128,-1,14
 973 317 973 317 973 459 c 2,15,-1
 973 1509 l 1,16,-1
 1225 1509 l 1,17,-1
 1225 436 l 2,0,1
EndSplineSet
Validated: 1
EndChar

StartChar: V
Encoding: 77 86 57
Width: 1247
GlyphClass: 1
Flags: W
LayerCount: 2
Fore
SplineSet
1270 1509 m 1,0,-1
 758 0 l 1,1,-1
 473 0 l 1,2,-1
 -23 1509 l 1,3,-1
 344 1509 l 1,4,-1
 668 467 l 1,5,-1
 991 1509 l 1,6,-1
 1270 1509 l 1,0,-1
EndSplineSet
Validated: 1
EndChar

StartChar: W
Encoding: 78 87 58
Width: 1931
GlyphClass: 1
Flags: W
LayerCount: 2
Fore
SplineSet
1948 1509 m 1,0,-1
 1530 0 l 1,1,-1
 1284 0 l 1,2,-1
 967 983 l 1,3,-1
 643 0 l 1,4,-1
 397 0 l 1,5,-1
 -20 1509 l 1,6,-1
 324 1509 l 1,7,-1
 586 553 l 1,8,-1
 885 1509 l 1,9,-1
 1126 1509 l 1,10,-1
 1427 553 l 1,11,-1
 1673 1509 l 1,12,-1
 1948 1509 l 1,0,-1
EndSplineSet
Validated: 1
EndChar

StartChar: X
Encoding: 79 88 59
Width: 1251
GlyphClass: 1
Flags: W
LayerCount: 2
Fore
SplineSet
1262 0 m 1,0,-1
 877 0 l 1,1,-1
 590 518 l 1,2,-1
 276 0 l 1,3,-1
 -8 0 l 1,4,-1
 457 754 l 1,5,-1
 41 1509 l 1,6,-1
 426 1509 l 1,7,-1
 684 1044 l 1,8,-1
 965 1509 l 1,9,-1
 1249 1509 l 1,10,-1
 815 809 l 1,11,-1
 1262 0 l 1,0,-1
EndSplineSet
Validated: 1
EndChar

StartChar: Y
Encoding: 80 89 60
Width: 1327
GlyphClass: 1
Flags: W
LayerCount: 2
Fore
SplineSet
1341 1509 m 1,0,-1
 840 639 l 1,1,-1
 840 0 l 1,2,-1
 500 0 l 1,3,-1
 500 606 l 1,4,-1
 -10 1509 l 1,5,-1
 387 1509 l 1,6,-1
 719 903 l 1,7,-1
 1071 1509 l 1,8,-1
 1341 1509 l 1,0,-1
EndSplineSet
Validated: 1
EndChar

StartChar: Z
Encoding: 81 90 61
Width: 1108
GlyphClass: 1
Flags: W
LayerCount: 2
Fore
SplineSet
1077 0 m 1,0,-1
 37 0 l 1,1,-1
 37 205 l 1,2,-1
 700 1284 l 1,3,-1
 66 1284 l 1,4,-1
 66 1509 l 1,5,-1
 1077 1509 l 1,6,-1
 1077 1309 l 1,7,-1
 412 225 l 1,8,-1
 1077 225 l 1,9,-1
 1077 0 l 1,0,-1
EndSplineSet
Validated: 1
EndChar

StartChar: bracketleft
Encoding: 82 91 62
Width: 809
GlyphClass: 1
Flags: W
LayerCount: 2
Fore
SplineSet
707 -223 m 1,0,-1
 129 -223 l 1,1,-1
 129 1509 l 1,2,-1
 707 1509 l 1,3,-1
 707 1325 l 1,4,-1
 428 1325 l 1,5,-1
 428 -25 l 1,6,-1
 707 -25 l 1,7,-1
 707 -223 l 1,0,-1
EndSplineSet
Validated: 1
EndChar

StartChar: backslash
Encoding: 83 92 63
Width: 948
GlyphClass: 1
Flags: W
LayerCount: 2
Fore
SplineSet
1008 -170 m 1,0,-1
 782 -170 l 1,1,-1
 -45 1509 l 1,2,-1
 180 1509 l 1,3,-1
 1008 -170 l 1,0,-1
EndSplineSet
Validated: 1
EndChar

StartChar: bracketright
Encoding: 84 93 64
Width: 809
GlyphClass: 1
Flags: W
LayerCount: 2
Fore
SplineSet
686 -223 m 1,0,-1
 109 -223 l 1,1,-1
 109 -25 l 1,2,-1
 387 -25 l 1,3,-1
 387 1325 l 1,4,-1
 109 1325 l 1,5,-1
 109 1509 l 1,6,-1
 686 1509 l 1,7,-1
 686 -223 l 1,0,-1
EndSplineSet
Validated: 1
EndChar

StartChar: asciicircum
Encoding: 85 94 65
Width: 1126
GlyphClass: 1
Flags: W
LayerCount: 2
Fore
SplineSet
1126 657 m 1,0,-1
 811 657 l 1,1,-1
 553 1122 l 1,2,-1
 315 657 l 1,3,-1
 0 657 l 1,4,-1
 442 1509 l 1,5,-1
 686 1509 l 1,6,-1
 1126 657 l 1,0,-1
EndSplineSet
Validated: 1
EndChar

StartChar: underscore
Encoding: 86 95 66
Width: 1020
GlyphClass: 1
Flags: W
LayerCount: 2
Fore
SplineSet
1020 -360 m 1,0,-1
 0 -360 l 1,1,-1
 0 -150 l 1,2,-1
 1020 -150 l 1,3,-1
 1020 -360 l 1,0,-1
EndSplineSet
Validated: 1
EndChar

StartChar: grave
Encoding: 87 96 67
Width: 1024
GlyphClass: 1
Flags: W
LayerCount: 2
Fore
SplineSet
770 1323 m 1,0,-1
 553 1323 l 1,1,-1
 225 1677 l 1,2,-1
 520 1677 l 1,3,-1
 770 1323 l 1,0,-1
EndSplineSet
Validated: 1
EndChar

StartChar: a
Encoding: 88 97 68
Width: 1238
GlyphClass: 1
Flags: W
LayerCount: 2
Fore
SplineSet
1102 0 m 1,0,-1
 803 0 l 1,1,-1
 797 150 l 1,2,3
 760 78 760 78 673 32 c 128,-1,4
 586 -14 586 -14 470 -14 c 0,5,6
 279 -14 279 -14 181 82 c 128,-1,7
 83 178 83 178 83 373 c 2,8,-1
 83 393 l 2,9,10
 83 586 83 586 214 690.5 c 128,-1,11
 345 795 345 795 566 795 c 0,12,13
 633 795 633 795 698 775.5 c 128,-1,14
 763 756 763 756 793 727 c 1,15,-1
 793 840 l 2,16,17
 793 899 793 899 739 940 c 128,-1,18
 685 981 685 981 586 981 c 0,19,20
 480 981 480 981 397 957.5 c 128,-1,21
 314 934 314 934 253 899 c 1,22,-1
 253 1096 l 1,23,24
 332 1128 332 1128 429.5 1151 c 128,-1,25
 527 1174 527 1174 666 1174 c 0,26,27
 889 1174 889 1174 995.5 1073.5 c 128,-1,28
 1102 973 1102 973 1102 752 c 2,29,-1
 1102 0 l 1,0,-1
795 385 m 2,30,-1
 795 416 l 2,31,32
 795 520 795 520 746 574.5 c 128,-1,33
 697 629 697 629 601 629 c 0,34,35
 511 629 511 629 458.5 577.5 c 128,-1,36
 406 526 406 526 406 414 c 2,37,-1
 406 383 l 2,38,39
 406 266 406 266 461.5 227 c 128,-1,40
 517 188 517 188 603 188 c 0,41,42
 677 188 677 188 736 235.5 c 128,-1,43
 795 283 795 283 795 385 c 2,30,-1
EndSplineSet
Validated: 1
EndChar

StartChar: b
Encoding: 89 98 69
Width: 1298
GlyphClass: 1
Flags: W
LayerCount: 2
Fore
SplineSet
1200 526 m 2,0,1
 1200 281 1200 281 1077 132.5 c 128,-1,2
 954 -16 954 -16 719 -16 c 0,3,4
 659 -16 659 -16 585.5 3.5 c 128,-1,5
 512 23 512 23 463 66 c 1,6,-1
 459 0 l 1,7,-1
 150 0 l 1,8,-1
 150 1509 l 1,9,-1
 469 1509 l 1,10,-1
 469 989 l 1,11,12
 545 1104 545 1104 628 1139 c 128,-1,13
 711 1174 711 1174 803 1174 c 0,14,15
 981 1174 981 1174 1090.5 1043.5 c 128,-1,16
 1200 913 1200 913 1200 657 c 2,17,-1
 1200 526 l 2,0,1
870 553 m 2,18,-1
 870 637 l 2,19,20
 870 823 870 823 816 885.5 c 128,-1,21
 762 948 762 948 676 948 c 0,22,23
 614 948 614 948 553 908 c 128,-1,24
 492 868 492 868 469 813 c 1,25,-1
 469 264 l 1,26,27
 479 223 479 223 531.5 188.5 c 128,-1,28
 584 154 584 154 664 154 c 0,29,30
 752 154 752 154 811 232.5 c 128,-1,31
 870 311 870 311 870 553 c 2,18,-1
EndSplineSet
Validated: 1
EndChar

StartChar: c
Encoding: 90 99 70
Width: 1124
GlyphClass: 1
Flags: W
LayerCount: 2
Fore
SplineSet
1020 61 m 1,0,1
 1001 45 1001 45 907 10 c 128,-1,2
 813 -25 813 -25 711 -25 c 0,3,4
 432 -25 432 -25 267 119.5 c 128,-1,5
 102 264 102 264 102 553 c 2,6,-1
 102 602 l 2,7,8
 102 864 102 864 264 1022 c 128,-1,9
 426 1180 426 1180 702 1180 c 0,10,11
 811 1180 811 1180 899 1152 c 128,-1,12
 987 1124 987 1124 1020 1092 c 1,13,-1
 1020 889 l 1,14,15
 977 928 977 928 905.5 954.5 c 128,-1,16
 834 981 834 981 750 981 c 0,17,18
 604 981 604 981 526.5 876.5 c 128,-1,19
 449 772 449 772 449 590 c 2,20,-1
 449 569 l 2,21,22
 449 365 449 365 512 280 c 128,-1,23
 575 195 575 195 715 195 c 0,24,25
 809 195 809 195 898 223.5 c 128,-1,26
 987 252 987 252 1020 281 c 1,27,-1
 1020 61 l 1,0,1
EndSplineSet
Validated: 1
EndChar

StartChar: d
Encoding: 91 100 71
Width: 1298
GlyphClass: 1
Flags: W
LayerCount: 2
Fore
SplineSet
1153 0 m 1,0,-1
 846 0 l 1,1,-1
 838 158 l 1,2,3
 766 63 766 63 691 23.5 c 128,-1,4
 616 -16 616 -16 504 -16 c 0,5,6
 332 -16 332 -16 217 97.5 c 128,-1,7
 102 211 102 211 102 494 c 2,8,-1
 102 614 l 2,9,10
 102 874 102 874 225 1019.5 c 128,-1,11
 348 1165 348 1165 588 1165 c 0,12,13
 647 1165 647 1165 715.5 1149 c 128,-1,14
 784 1133 784 1133 834 1083 c 1,15,-1
 834 1509 l 1,16,-1
 1153 1509 l 1,17,-1
 1153 0 l 1,0,-1
834 326 m 1,18,-1
 834 899 l 1,19,20
 811 940 811 940 767 967.5 c 128,-1,21
 723 995 723 995 651 995 c 0,22,23
 551 995 551 995 491.5 911 c 128,-1,24
 432 827 432 827 432 604 c 2,25,-1
 432 524 l 2,26,27
 432 346 432 346 479 273.5 c 128,-1,28
 526 201 526 201 625 201 c 0,29,30
 692 201 692 201 749.5 237.5 c 128,-1,31
 807 274 807 274 834 326 c 1,18,-1
EndSplineSet
Validated: 1
EndChar

StartChar: e
Encoding: 92 101 72
Width: 1303
GlyphClass: 1
Flags: W
LayerCount: 2
Fore
SplineSet
1206 514 m 1,0,-1
 424 514 l 1,1,2
 424 322 424 322 511 247 c 128,-1,3
 598 172 598 172 737 172 c 0,4,5
 829 172 829 172 925.5 195.5 c 128,-1,6
 1022 219 1022 219 1124 266 c 1,7,-1
 1124 74 l 1,8,9
 1036 25 1036 25 929.5 0 c 128,-1,10
 823 -25 823 -25 684 -25 c 0,11,12
 418 -25 418 -25 260 116.5 c 128,-1,13
 102 258 102 258 102 530 c 2,14,-1
 102 612 l 2,15,16
 102 850 102 850 246.5 1015 c 128,-1,17
 391 1180 391 1180 666 1180 c 0,18,19
 928 1180 928 1180 1067 1025 c 128,-1,20
 1206 870 1206 870 1206 621 c 2,21,22
 1206 621 1206 621 1206 573.5 c 128,-1,23
 1206 526 1206 526 1206 514 c 1,0,-1
909 678 m 1,24,25
 899 848 899 848 834.5 921.5 c 128,-1,26
 770 995 770 995 666 995 c 0,27,28
 575 995 575 995 503.5 922.5 c 128,-1,29
 432 850 432 850 426 678 c 1,30,-1
 909 678 l 1,24,25
EndSplineSet
Validated: 1
EndChar

StartChar: f
Encoding: 93 102 73
Width: 680
GlyphClass: 1
Flags: W
LayerCount: 2
Fore
SplineSet
829 1454 m 1,0,-1
 745 1284 l 1,1,2
 715 1307 715 1307 685 1320 c 128,-1,3
 655 1333 655 1333 608 1333 c 0,4,5
 539 1333 539 1333 515.5 1293 c 128,-1,6
 492 1253 492 1253 492 1171 c 2,7,-1
 492 1128 l 1,8,-1
 707 1128 l 1,9,-1
 707 952 l 1,10,-1
 489 952 l 1,11,-1
 489 0 l 1,12,-1
 170 0 l 1,13,-1
 170 954 l 1,14,-1
 18 954 l 1,15,-1
 18 1128 l 1,16,-1
 176 1128 l 1,17,-1
 176 1161 l 2,18,19
 176 1333 176 1333 274.5 1431.5 c 128,-1,20
 373 1530 373 1530 545 1530 c 0,21,22
 625 1530 625 1530 700.5 1509.5 c 128,-1,23
 776 1489 776 1489 829 1454 c 1,0,-1
EndSplineSet
Validated: 1
EndChar

StartChar: g
Encoding: 94 103 74
Width: 1337
GlyphClass: 1
Flags: W
LayerCount: 2
Fore
SplineSet
1182 158 m 2,0,1
 1182 -88 1182 -88 1023 -228.5 c 128,-1,2
 864 -369 864 -369 586 -369 c 0,3,4
 504 -369 504 -369 395.5 -352.5 c 128,-1,5
 287 -336 287 -336 203 -295 c 1,6,-1
 203 -74 l 1,7,8
 289 -113 289 -113 384 -128 c 128,-1,9
 479 -143 479 -143 549 -143 c 0,10,11
 741 -143 741 -143 810 -77.5 c 128,-1,12
 879 -12 879 -12 879 94 c 2,13,-1
 879 207 l 1,14,15
 852 147 852 147 766 80.5 c 128,-1,16
 680 14 680 14 516 14 c 0,17,18
 330 14 330 14 216 142 c 128,-1,19
 102 270 102 270 102 567 c 2,20,-1
 102 600 l 2,21,22
 102 885 102 885 232 1025 c 128,-1,23
 362 1165 362 1165 592 1165 c 0,24,25
 682 1165 682 1165 760 1136.5 c 128,-1,26
 838 1108 838 1108 883 1051 c 1,27,-1
 883 1151 l 1,28,-1
 1182 1151 l 1,29,-1
 1182 158 l 2,0,1
862 602 m 2,30,-1
 862 674 l 2,31,32
 862 846 862 846 813 916.5 c 128,-1,33
 764 987 764 987 655 987 c 0,34,35
 551 987 551 987 491.5 905 c 128,-1,36
 432 823 432 823 432 633 c 2,37,-1
 432 602 l 2,38,39
 432 385 432 385 486.5 309 c 128,-1,40
 541 233 541 233 647 233 c 0,41,42
 752 233 752 233 807 317 c 128,-1,43
 862 401 862 401 862 602 c 2,30,-1
EndSplineSet
Validated: 1
EndChar

StartChar: h
Encoding: 95 104 75
Width: 1296
GlyphClass: 1
Flags: W
LayerCount: 2
Fore
SplineSet
1149 0 m 1,0,-1
 829 0 l 1,1,-1
 829 807 l 2,2,3
 829 860 829 860 797.5 895 c 128,-1,4
 766 930 766 930 698 930 c 0,5,6
 629 930 629 930 568.5 902 c 128,-1,7
 508 874 508 874 469 827 c 1,8,-1
 469 0 l 1,9,-1
 150 0 l 1,10,-1
 150 1509 l 1,11,-1
 469 1509 l 1,12,-1
 469 975 l 1,13,14
 522 1051 522 1051 618.5 1112.5 c 128,-1,15
 715 1174 715 1174 860 1174 c 0,16,17
 1004 1174 1004 1174 1076.5 1083.5 c 128,-1,18
 1149 993 1149 993 1149 807 c 2,19,-1
 1149 0 l 1,0,-1
EndSplineSet
Validated: 1
EndChar

StartChar: i
Encoding: 96 105 76
Width: 610
GlyphClass: 1
Flags: W
LayerCount: 2
Fore
SplineSet
473 1407 m 0,0,1
 473 1335 473 1335 424 1286 c 128,-1,2
 375 1237 375 1237 305 1237 c 0,3,4
 236 1237 236 1237 186.5 1286 c 128,-1,5
 137 1335 137 1335 137 1407 c 0,6,7
 137 1477 137 1477 186.5 1526 c 128,-1,8
 236 1575 236 1575 305 1575 c 0,9,10
 375 1575 375 1575 424 1526 c 128,-1,11
 473 1477 473 1477 473 1407 c 0,0,1
465 0 m 1,12,-1
 145 0 l 1,13,-1
 145 1151 l 1,14,-1
 465 1151 l 1,15,-1
 465 0 l 1,12,-1
EndSplineSet
Validated: 1
EndChar

StartChar: j
Encoding: 97 106 77
Width: 633
GlyphClass: 1
Flags: W
LayerCount: 2
Fore
SplineSet
500 1407 m 0,0,1
 500 1335 500 1335 450.5 1286 c 128,-1,2
 401 1237 401 1237 332 1237 c 0,3,4
 262 1237 262 1237 213 1286 c 128,-1,5
 164 1335 164 1335 164 1407 c 0,6,7
 164 1477 164 1477 213 1526 c 128,-1,8
 262 1575 262 1575 332 1575 c 0,9,10
 401 1575 401 1575 450.5 1526 c 128,-1,11
 500 1477 500 1477 500 1407 c 0,0,1
492 76 m 2,12,13
 492 -131 492 -131 388.5 -243.5 c 128,-1,14
 285 -356 285 -356 117 -356 c 0,15,16
 45 -356 45 -356 -34 -348 c 128,-1,17
 -113 -340 -113 -340 -170 -324 c 1,18,-1
 -170 -106 l 1,19,20
 -137 -117 -137 -117 -88 -124 c 128,-1,21
 -39 -131 -39 -131 16 -131 c 0,22,23
 94 -131 94 -131 133 -93 c 128,-1,24
 172 -55 172 -55 172 33 c 2,25,-1
 172 1151 l 1,26,-1
 492 1151 l 1,27,-1
 492 76 l 2,12,13
EndSplineSet
Validated: 1
EndChar

StartChar: k
Encoding: 98 107 78
Width: 1190
GlyphClass: 1
Flags: W
LayerCount: 2
Fore
SplineSet
1212 0 m 1,0,-1
 836 0 l 1,1,-1
 469 469 l 1,2,-1
 469 0 l 1,3,-1
 150 0 l 1,4,-1
 150 1509 l 1,5,-1
 469 1509 l 1,6,-1
 469 684 l 1,7,-1
 854 1151 l 1,8,-1
 1149 1151 l 1,9,-1
 705 639 l 1,10,-1
 1212 0 l 1,0,-1
EndSplineSet
Validated: 1
EndChar

StartChar: l
Encoding: 99 108 79
Width: 635
GlyphClass: 1
Flags: W
LayerCount: 2
Fore
SplineSet
477 0 m 1,0,-1
 158 0 l 1,1,-1
 158 1509 l 1,2,-1
 477 1509 l 1,3,-1
 477 0 l 1,0,-1
EndSplineSet
Validated: 1
EndChar

StartChar: m
Encoding: 100 109 80
Width: 1954
GlyphClass: 1
Flags: W
LayerCount: 2
Fore
SplineSet
1538 1174 m 0,0,1
 1650 1173 1650 1173 1736 1076 c 0,2,3
 1829 971 1829 971 1829 813 c 2,4,-1
 1829 0 l 1,5,-1
 1509 0 l 1,6,-1
 1509 807 l 2,7,8
 1509 854 1509 854 1466.5 892 c 128,-1,9
 1424 930 1424 930 1366 930 c 0,10,11
 1289 930 1289 930 1235.5 895 c 128,-1,12
 1182 860 1182 860 1149 807 c 1,13,-1
 1149 0 l 1,14,-1
 829 0 l 1,15,-1
 829 807 l 2,16,17
 829 856 829 856 790.5 893 c 128,-1,18
 752 930 752 930 684 930 c 0,19,20
 607 930 607 930 555.5 901.5 c 128,-1,21
 504 873 504 873 469 827 c 1,22,-1
 469 0 l 1,23,-1
 150 0 l 1,24,-1
 150 1151 l 1,25,-1
 457 1151 l 1,26,-1
 463 969 l 1,27,28
 514 1063 514 1063 608 1118.5 c 128,-1,29
 702 1174 702 1174 836 1174 c 0,30,31
 956 1174 956 1174 1026.5 1116.5 c 128,-1,32
 1097 1059 1097 1059 1130 958 c 1,33,34
 1187 1076 1187 1076 1282.5 1125.5 c 0,35,36
 1376.10891089 1174.01980198 1376.10891089 1174.01980198 1531.68865797 1174.01980198 c 0,37,38
 1534.83168317 1174.01980198 1534.83168317 1174.01980198 1538 1174 c 0,0,1
EndSplineSet
Validated: 1
EndChar

StartChar: n
Encoding: 101 110 81
Width: 1296
GlyphClass: 1
Flags: W
LayerCount: 2
Fore
SplineSet
1149 0 m 1,0,-1
 829 0 l 1,1,-1
 829 807 l 2,2,3
 829 852 829 852 790.5 891 c 128,-1,4
 752 930 752 930 680 930 c 0,5,6
 611 930 611 930 558.5 901 c 128,-1,7
 506 872 506 872 469 827 c 1,8,-1
 469 0 l 1,9,-1
 150 0 l 1,10,-1
 150 1151 l 1,11,-1
 457 1151 l 1,12,-1
 463 967 l 1,13,14
 498 1049 498 1049 597.5 1111.5 c 128,-1,15
 697 1174 697 1174 840 1174 c 0,16,17
 984 1174 984 1174 1066.5 1083.5 c 128,-1,18
 1149 993 1149 993 1149 807 c 2,19,-1
 1149 0 l 1,0,-1
EndSplineSet
Validated: 1
EndChar

StartChar: o
Encoding: 102 111 82
Width: 1360
GlyphClass: 1
Flags: W
LayerCount: 2
Fore
SplineSet
1257 541 m 2,0,1
 1257 274 1257 274 1103.5 124.5 c 128,-1,2
 950 -25 950 -25 682 -25 c 0,3,4
 416 -25 416 -25 259 128 c 128,-1,5
 102 281 102 281 102 541 c 2,6,-1
 102 614 l 2,7,8
 102 868 102 868 257 1024 c 128,-1,9
 412 1180 412 1180 680 1180 c 0,10,11
 950 1180 950 1180 1103.5 1023 c 128,-1,12
 1257 866 1257 866 1257 614 c 2,13,-1
 1257 541 l 2,0,1
928 569 m 2,14,-1
 928 586 l 2,15,16
 928 819 928 819 856 904 c 128,-1,17
 784 989 784 989 680 989 c 0,18,19
 571 989 571 989 502.5 898 c 128,-1,20
 434 807 434 807 434 586 c 2,21,-1
 434 569 l 2,22,23
 434 326 434 326 500.5 246 c 128,-1,24
 567 166 567 166 680 166 c 0,25,26
 782 166 782 166 855 244 c 128,-1,27
 928 322 928 322 928 569 c 2,14,-1
EndSplineSet
Validated: 1
EndChar

StartChar: p
Encoding: 103 112 83
Width: 1298
GlyphClass: 1
Flags: W
LayerCount: 2
Fore
SplineSet
1200 532 m 2,0,1
 1200 270 1200 270 1073 128 c 128,-1,2
 946 -14 946 -14 719 -14 c 0,3,4
 659 -14 659 -14 588.5 2 c 128,-1,5
 518 18 518 18 469 61 c 1,6,-1
 469 -342 l 1,7,-1
 150 -342 l 1,8,-1
 150 1151 l 1,9,-1
 457 1151 l 1,10,-1
 465 981 l 1,11,12
 503 1069 503 1069 599.5 1121.5 c 128,-1,13
 696 1174 696 1174 811 1174 c 0,14,15
 969 1174 969 1174 1084.5 1058 c 128,-1,16
 1200 942 1200 942 1200 666 c 2,17,-1
 1200 532 l 2,0,1
870 549 m 2,18,-1
 870 625 l 2,19,20
 870 811 870 811 820 879.5 c 128,-1,21
 770 948 770 948 684 948 c 0,22,23
 616 948 616 948 556 909 c 128,-1,24
 496 870 496 870 469 825 c 1,25,-1
 469 268 l 1,26,27
 477 229 477 229 530.5 192.5 c 128,-1,28
 584 156 584 156 664 156 c 0,29,30
 735 156 735 156 802.5 228.5 c 128,-1,31
 870 301 870 301 870 549 c 2,18,-1
EndSplineSet
Validated: 1
EndChar

StartChar: q
Encoding: 104 113 84
Width: 1298
GlyphClass: 1
Flags: W
LayerCount: 2
Fore
SplineSet
1153 -342 m 1,0,-1
 834 -342 l 1,1,-1
 834 152 l 1,2,3
 805 100 805 100 720 42 c 128,-1,4
 635 -16 635 -16 512 -16 c 0,5,6
 322 -16 322 -16 212 100.5 c 128,-1,7
 102 217 102 217 102 506 c 2,8,-1
 102 657 l 2,9,10
 102 872 102 872 228 1018.5 c 128,-1,11
 354 1165 354 1165 586 1165 c 0,12,13
 680 1165 680 1165 748.5 1138.5 c 128,-1,14
 817 1112 817 1112 858 1051 c 1,15,-1
 924 1151 l 1,16,-1
 1153 1151 l 1,17,-1
 1153 -342 l 1,0,-1
834 326 m 1,18,-1
 834 905 l 1,19,20
 795 958 795 958 747.5 976.5 c 128,-1,21
 700 995 700 995 653 995 c 0,22,23
 549 995 549 995 490.5 908 c 128,-1,24
 432 821 432 821 432 616 c 2,25,-1
 432 543 l 2,26,27
 432 356 432 356 477 278.5 c 128,-1,28
 522 201 522 201 625 201 c 0,29,30
 696 201 696 201 748.5 234.5 c 128,-1,31
 801 268 801 268 834 326 c 1,18,-1
EndSplineSet
Validated: 1
EndChar

StartChar: r
Encoding: 105 114 85
Width: 1020
GlyphClass: 1
Flags: W
LayerCount: 2
Fore
SplineSet
1012 801 m 1,0,-1
 717 801 l 1,1,2
 717 850 717 850 696.5 885 c 128,-1,3
 676 920 676 920 616 920 c 0,4,5
 559 920 559 920 520 889 c 128,-1,6
 481 858 481 858 469 823 c 1,7,-1
 469 0 l 1,8,-1
 150 0 l 1,9,-1
 150 1151 l 1,10,-1
 457 1151 l 1,11,-1
 463 969 l 1,12,13
 508 1067 508 1067 579.5 1120.5 c 128,-1,14
 651 1174 651 1174 748 1174 c 0,15,16
 893 1174 893 1174 964 1078 c 0,17,18
 1018.03143146 1006.95867346 1018.03143146 1006.95867346 1018.03143146 886.877101929 c 0,19,20
 1018.03143146 847.240974498 1018.03143146 847.240974498 1012 801 c 1,0,-1
EndSplineSet
Validated: 1
EndChar

StartChar: s
Encoding: 106 115 86
Width: 932
GlyphClass: 1
Flags: W
LayerCount: 2
Fore
SplineSet
877 350 m 0,0,1
 877 190 877 190 761 82.5 c 128,-1,2
 645 -25 645 -25 379 -25 c 0,3,4
 268 -25 268 -25 177 -6.5 c 128,-1,5
 86 12 86 12 45 39 c 1,6,-1
 45 242 l 1,7,8
 92 215 92 215 178 187.5 c 128,-1,9
 264 160 264 160 354 160 c 0,10,11
 469 160 469 160 530.5 199 c 128,-1,12
 592 238 592 238 592 299 c 0,13,14
 592 358 592 358 551 395 c 128,-1,15
 510 432 510 432 342 483 c 0,16,17
 184 530 184 530 127 616 c 128,-1,18
 70 702 70 702 70 838 c 0,19,20
 70 977 70 977 172 1073 c 128,-1,21
 274 1169 274 1169 494 1169 c 0,22,23
 596 1169 596 1169 666.5 1153.5 c 128,-1,24
 737 1138 737 1138 799 1109 c 1,25,-1
 799 924 l 1,26,27
 754 950 754 950 671 967.5 c 128,-1,28
 588 985 588 985 512 985 c 0,29,30
 424 985 424 985 369.5 954.5 c 128,-1,31
 315 924 315 924 315 872 c 0,32,33
 315 813 315 813 357 789.5 c 128,-1,34
 399 766 399 766 545 723 c 0,35,36
 731 668 731 668 804 579 c 128,-1,37
 877 490 877 490 877 350 c 0,0,1
EndSplineSet
Validated: 1
EndChar

StartChar: t
Encoding: 107 116 87
Width: 850
GlyphClass: 1
Flags: W
LayerCount: 2
Fore
SplineSet
793 952 m 1,0,-1
 489 952 l 1,1,-1
 489 362 l 2,2,3
 489 272 489 272 519 230 c 128,-1,4
 549 188 549 188 635 188 c 0,5,6
 676 188 676 188 714 194.5 c 128,-1,7
 752 201 752 201 784 211 c 1,8,-1
 784 31 l 1,9,10
 733 10 733 10 658.5 0 c 128,-1,11
 584 -10 584 -10 512 -10 c 0,12,13
 354 -10 354 -10 262 91.5 c 128,-1,14
 170 193 170 193 170 383 c 2,15,-1
 170 954 l 1,16,-1
 33 954 l 1,17,-1
 33 1118 l 1,18,-1
 182 1126 l 1,19,-1
 289 1509 l 1,20,-1
 489 1509 l 1,21,-1
 489 1128 l 1,22,-1
 793 1128 l 1,23,-1
 793 952 l 1,0,-1
EndSplineSet
Validated: 1
EndChar

StartChar: u
Encoding: 108 117 88
Width: 1296
GlyphClass: 1
Flags: W
LayerCount: 2
Fore
SplineSet
1149 0 m 1,0,-1
 842 0 l 1,1,-1
 836 180 l 1,2,3
 780 104 780 104 682 40.5 c 128,-1,4
 584 -23 584 -23 440 -23 c 0,5,6
 305 -23 305 -23 227.5 58 c 128,-1,7
 150 139 150 139 150 346 c 2,8,-1
 150 1151 l 1,9,-1
 469 1151 l 1,10,-1
 469 375 l 2,11,12
 469 285 469 285 507 254 c 128,-1,13
 545 223 545 223 600 223 c 0,14,15
 670 223 670 223 729 248.5 c 128,-1,16
 788 274 788 274 829 328 c 1,17,-1
 829 1151 l 1,18,-1
 1149 1151 l 1,19,-1
 1149 0 l 1,0,-1
EndSplineSet
Validated: 1
EndChar

StartChar: v
Encoding: 109 118 89
Width: 1190
GlyphClass: 1
Flags: W
LayerCount: 2
Fore
SplineSet
1188 1151 m 1,0,-1
 692 0 l 1,1,-1
 459 0 l 1,2,-1
 -6 1151 l 1,3,-1
 319 1151 l 1,4,-1
 612 371 l 1,5,-1
 934 1151 l 1,6,-1
 1188 1151 l 1,0,-1
EndSplineSet
Validated: 1
EndChar

StartChar: w
Encoding: 110 119 90
Width: 1774
GlyphClass: 1
Flags: W
LayerCount: 2
Fore
SplineSet
1776 1151 m 1,0,-1
 1307 0 l 1,1,-1
 1110 0 l 1,2,-1
 883 590 l 1,3,-1
 641 0 l 1,4,-1
 444 0 l 1,5,-1
 -4 1151 l 1,6,-1
 315 1151 l 1,7,-1
 588 442 l 1,8,-1
 848 1151 l 1,9,-1
 995 1151 l 1,10,-1
 1247 442 l 1,11,-1
 1522 1151 l 1,12,-1
 1776 1151 l 1,0,-1
EndSplineSet
Validated: 1
EndChar

StartChar: x
Encoding: 111 120 91
Width: 1217
GlyphClass: 1
Flags: W
LayerCount: 2
Fore
SplineSet
1227 0 m 1,0,-1
 856 0 l 1,1,-1
 586 395 l 1,2,-1
 295 0 l 1,3,-1
 -4 0 l 1,4,-1
 459 592 l 1,5,-1
 53 1151 l 1,6,-1
 424 1151 l 1,7,-1
 639 827 l 1,8,-1
 879 1151 l 1,9,-1
 1178 1151 l 1,10,-1
 770 631 l 1,11,-1
 1227 0 l 1,0,-1
EndSplineSet
Validated: 1
EndChar

StartChar: y
Encoding: 112 121 92
Width: 1190
GlyphClass: 1
Flags: W
LayerCount: 2
Fore
SplineSet
1188 1151 m 1,0,-1
 524 -342 l 1,1,-1
 260 -342 l 1,2,-1
 442 43 l 1,3,-1
 -8 1151 l 1,4,-1
 317 1151 l 1,5,-1
 610 377 l 1,6,-1
 928 1151 l 1,7,-1
 1188 1151 l 1,0,-1
EndSplineSet
Validated: 1
EndChar

StartChar: z
Encoding: 113 122 93
Width: 1020
GlyphClass: 1
Flags: W
LayerCount: 2
Fore
SplineSet
999 0 m 1,0,-1
 41 0 l 1,1,-1
 41 213 l 1,2,-1
 629 946 l 1,3,-1
 51 946 l 1,4,-1
 51 1151 l 1,5,-1
 973 1151 l 1,6,-1
 973 938 l 1,7,-1
 367 205 l 1,8,-1
 999 205 l 1,9,-1
 999 0 l 1,0,-1
EndSplineSet
Validated: 1
EndChar

StartChar: braceleft
Encoding: 114 123 94
Width: 809
GlyphClass: 1
Flags: W
LayerCount: 2
Fore
SplineSet
737 -344 m 1,0,-1
 532 -344 l 2,1,2
 408 -344 408 -344 333 -265 c 128,-1,3
 258 -186 258 -186 258 -86 c 0,4,5
 258 35 258 35 257 139.5 c 128,-1,6
 256 244 256 244 256 373 c 0,7,8
 256 434 256 434 221 461.5 c 128,-1,9
 186 489 186 489 82 489 c 1,10,-1
 82 731 l 1,11,12
 190 731 190 731 225 747.5 c 128,-1,13
 260 764 260 764 260 825 c 0,14,15
 260 956 260 956 259 1043 c 128,-1,16
 258 1130 258 1130 258 1251 c 0,17,18
 258 1352 258 1352 337 1430.5 c 128,-1,19
 416 1509 416 1509 532 1509 c 2,20,-1
 737 1509 l 1,21,-1
 737 1317 l 1,22,23
 737 1317 737 1317 702.5 1317 c 128,-1,24
 668 1317 668 1317 631 1317 c 0,25,26
 580 1317 580 1317 572.5 1270 c 128,-1,27
 565 1223 565 1223 565 1110 c 0,28,29
 565 870 565 870 536.5 755.5 c 128,-1,30
 508 641 508 641 385 612 c 1,31,32
 510 575 510 575 537.5 498.5 c 128,-1,33
 565 422 565 422 565 197 c 0,34,35
 565 -33 565 -33 572.5 -92.5 c 128,-1,36
 580 -152 580 -152 631 -152 c 0,37,38
 668 -152 668 -152 702.5 -152 c 128,-1,39
 737 -152 737 -152 737 -152 c 1,40,-1
 737 -344 l 1,0,-1
EndSplineSet
Validated: 1
EndChar

StartChar: bar
Encoding: 115 124 95
Width: 850
GlyphClass: 1
Flags: W
LayerCount: 2
Fore
SplineSet
555 -410 m 1,0,-1
 297 -410 l 1,1,-1
 297 1511 l 1,2,-1
 555 1511 l 1,3,-1
 555 -410 l 1,0,-1
EndSplineSet
Validated: 1
EndChar

StartChar: braceright
Encoding: 116 125 96
Width: 809
GlyphClass: 1
Flags: W
LayerCount: 2
Fore
SplineSet
727 489 m 1,0,1
 623 489 623 489 588 461.5 c 128,-1,2
 553 434 553 434 553 373 c 0,3,4
 553 244 553 244 552 139.5 c 128,-1,5
 551 35 551 35 551 -86 c 0,6,7
 551 -186 551 -186 476 -265 c 128,-1,8
 401 -344 401 -344 276 -344 c 2,9,-1
 72 -344 l 1,10,-1
 72 -152 l 1,11,12
 72 -152 72 -152 106.5 -152 c 128,-1,13
 141 -152 141 -152 178 -152 c 0,14,15
 229 -152 229 -152 236.5 -92.5 c 128,-1,16
 244 -33 244 -33 244 197 c 0,17,18
 244 422 244 422 271.5 498.5 c 128,-1,19
 299 575 299 575 424 612 c 1,20,21
 301 641 301 641 272.5 755.5 c 128,-1,22
 244 870 244 870 244 1110 c 0,23,24
 244 1223 244 1223 236.5 1270 c 128,-1,25
 229 1317 229 1317 178 1317 c 0,26,27
 141 1317 141 1317 106.5 1317 c 128,-1,28
 72 1317 72 1317 72 1317 c 1,29,-1
 72 1509 l 1,30,-1
 276 1509 l 2,31,32
 393 1509 393 1509 472 1430.5 c 128,-1,33
 551 1352 551 1352 551 1251 c 0,34,35
 551 1130 551 1130 550 1043 c 128,-1,36
 549 956 549 956 549 825 c 0,37,38
 549 764 549 764 583.5 747.5 c 128,-1,39
 618 731 618 731 727 731 c 1,40,-1
 727 489 l 1,0,1
EndSplineSet
Validated: 1
EndChar

StartChar: asciitilde
Encoding: 117 126 97
Width: 1303
GlyphClass: 1
Flags: W
LayerCount: 2
Fore
SplineSet
1274 731 m 0,0,1
 1274 616 1274 616 1192 531 c 128,-1,2
 1110 446 1110 446 954 446 c 0,3,4
 862 446 862 446 771 492.5 c 128,-1,5
 680 539 680 539 606 596 c 0,6,7
 596 604 596 604 590 607 c 128,-1,8
 584 610 584 610 573 618 c 0,9,10
 520 664 520 664 470 699.5 c 128,-1,11
 420 735 420 735 369 735 c 0,12,13
 301 735 301 735 272.5 699.5 c 128,-1,14
 244 664 244 664 244 621 c 0,15,16
 244 571 244 571 261.5 530 c 128,-1,17
 279 489 279 489 311 449 c 1,18,-1
 121 449 l 1,19,20
 82 489 82 489 59.5 537.5 c 128,-1,21
 37 586 37 586 37 672 c 0,22,23
 37 782 37 782 125 869 c 128,-1,24
 213 956 213 956 356 956 c 0,25,26
 449 956 449 956 539 911 c 128,-1,27
 629 866 629 866 702 809 c 0,28,29
 717 797 717 797 720 795 c 128,-1,30
 723 793 723 793 733 782 c 0,31,32
 786 737 786 737 838.5 702.5 c 128,-1,33
 891 668 891 668 942 668 c 0,34,35
 1010 668 1010 668 1038.5 703.5 c 128,-1,36
 1067 739 1067 739 1067 782 c 0,37,38
 1067 831 1067 831 1049.5 872 c 128,-1,39
 1032 913 1032 913 999 954 c 1,40,-1
 1190 954 l 1,41,42
 1229 913 1229 913 1251.5 865 c 128,-1,43
 1274 817 1274 817 1274 731 c 0,0,1
EndSplineSet
Validated: 1
EndChar

StartChar: Aring
Encoding: 155 197 99
Width: 1358
GlyphClass: 1
Flags: W
LayerCount: 2
Fore
SplineSet
1352 0 m 1,0,-1
 1004 0 l 1,1,-1
 893 362 l 1,2,-1
 395 362 l 1,3,-1
 281 0 l 1,4,-1
 4 0 l 1,5,-1
 471 1386 l 1,6,7
 432 1419 432 1419 408.5 1470.5 c 128,-1,8
 385 1522 385 1522 385 1581 c 0,9,10
 385 1692 385 1692 465 1768.5 c 128,-1,11
 545 1845 545 1845 662 1845 c 0,12,13
 780 1845 780 1845 859 1768.5 c 128,-1,14
 938 1692 938 1692 938 1581 c 0,15,16
 938 1528 938 1528 919.5 1481 c 128,-1,17
 901 1434 901 1434 868 1401 c 1,18,-1
 1352 0 l 1,0,-1
793 1581 m 0,19,20
 793 1632 793 1632 754 1672 c 128,-1,21
 715 1712 715 1712 662 1712 c 0,22,23
 610 1712 610 1712 570 1672 c 128,-1,24
 530 1632 530 1632 530 1581 c 0,25,26
 530 1528 530 1528 570 1489 c 128,-1,27
 610 1450 610 1450 662 1450 c 0,28,29
 715 1450 715 1450 754 1489 c 128,-1,30
 793 1528 793 1528 793 1581 c 0,19,20
821 580 m 1,31,-1
 635 1135 l 1,32,-1
 461 580 l 1,33,-1
 821 580 l 1,31,-1
EndSplineSet
Validated: 1
EndChar

StartChar: dagger
Encoding: 356 8224 130
Width: 1049
GlyphClass: 1
Flags: W
LayerCount: 2
Fore
SplineSet
1034 952 m 1,0,-1
 676 952 l 1,1,-1
 635 -342 l 1,2,-1
 395 -342 l 1,3,-1
 354 952 l 1,4,-1
 14 952 l 1,5,-1
 14 1149 l 1,6,-1
 354 1149 l 1,7,-1
 354 1509 l 1,8,-1
 676 1509 l 1,9,-1
 676 1149 l 1,10,-1
 1034 1149 l 1,11,-1
 1034 952 l 1,0,-1
EndSplineSet
Validated: 1
EndChar

StartChar: degree
Encoding: 134 176 131
Width: 823
GlyphClass: 1
Flags: W
LayerCount: 2
Fore
SplineSet
793 1163 m 0,0,1
 793 1012 793 1012 684 903.5 c 128,-1,2
 575 795 575 795 424 795 c 0,3,4
 272 795 272 795 163.5 903.5 c 128,-1,5
 55 1012 55 1012 55 1163 c 0,6,7
 55 1315 55 1315 163.5 1423.5 c 128,-1,8
 272 1532 272 1532 424 1532 c 0,9,10
 575 1532 575 1532 684 1423.5 c 128,-1,11
 793 1315 793 1315 793 1163 c 0,0,1
584 1163 m 0,12,13
 584 1231 584 1231 538 1277 c 128,-1,14
 492 1323 492 1323 424 1323 c 256,15,16
 356 1323 356 1323 310 1277 c 128,-1,17
 264 1231 264 1231 264 1163 c 0,18,19
 264 1096 264 1096 310 1050 c 128,-1,20
 356 1004 356 1004 424 1004 c 256,21,22
 492 1004 492 1004 538 1050 c 128,-1,23
 584 1096 584 1096 584 1163 c 0,12,13
EndSplineSet
Validated: 1
EndChar

StartChar: cent
Encoding: 120 162 132
Width: 1190
GlyphClass: 1
Flags: W
LayerCount: 2
Fore
SplineSet
1038 43 m 1,0,1
 1028 31 1028 31 975 18.5 c 128,-1,2
 922 6 922 6 850 2 c 1,3,-1
 850 -143 l 1,4,-1
 680 -143 l 1,5,-1
 680 0 l 1,6,7
 428 16 428 16 284.5 173 c 128,-1,8
 141 330 141 330 141 616 c 0,9,10
 141 627 141 627 141 639 c 128,-1,11
 141 651 141 651 141 666 c 0,12,13
 141 922 141 922 293.5 1067 c 128,-1,14
 446 1212 446 1212 680 1229 c 1,15,-1
 680 1389 l 1,16,-1
 850 1389 l 1,17,-1
 850 1227 l 1,18,19
 915 1221 915 1221 962.5 1208.5 c 128,-1,20
 1010 1196 1010 1196 1036 1184 c 1,21,-1
 1036 969 l 1,22,23
 993 987 993 987 932.5 1003.5 c 128,-1,24
 872 1020 872 1020 788 1020 c 0,25,26
 641 1020 641 1020 557 924.5 c 128,-1,27
 473 829 473 829 473 651 c 2,28,-1
 473 631 l 2,29,30
 473 444 473 444 540.5 336.5 c 128,-1,31
 608 229 608 229 754 229 c 0,32,33
 848 229 848 229 922.5 239.5 c 128,-1,34
 997 250 997 250 1038 262 c 1,35,-1
 1038 43 l 1,0,1
EndSplineSet
Validated: 1
EndChar

StartChar: sterling
Encoding: 121 163 133
Width: 1190
GlyphClass: 1
Flags: W
LayerCount: 2
Fore
SplineSet
1128 0 m 1,0,-1
 170 0 l 1,1,-1
 170 631 l 1,2,-1
 23 631 l 1,3,-1
 23 831 l 1,4,-1
 170 831 l 1,5,-1
 170 1020 l 2,6,7
 170 1241 170 1241 332 1385.5 c 128,-1,8
 494 1530 494 1530 723 1530 c 0,9,10
 850 1530 850 1530 917.5 1517.5 c 128,-1,11
 985 1505 985 1505 1073 1481 c 1,12,-1
 1073 1253 l 1,13,14
 985 1280 985 1280 918.5 1290 c 128,-1,15
 852 1300 852 1300 776 1300 c 0,16,17
 635 1300 635 1300 572.5 1231.5 c 128,-1,18
 510 1163 510 1163 510 993 c 2,19,-1
 510 831 l 1,20,-1
 801 831 l 1,21,-1
 801 631 l 1,22,-1
 510 631 l 1,23,-1
 510 225 l 1,24,-1
 1128 225 l 1,25,-1
 1128 0 l 1,0,-1
EndSplineSet
Validated: 1
EndChar

StartChar: section
Encoding: 125 167 134
Width: 907
GlyphClass: 1
Flags: W
LayerCount: 2
Fore
SplineSet
838 772 m 0,0,1
 838 684 838 684 806 617.5 c 128,-1,2
 774 551 774 551 715 508 c 1,3,4
 756 483 756 483 790.5 431 c 128,-1,5
 825 379 825 379 825 289 c 0,6,7
 825 143 825 143 706.5 59 c 128,-1,8
 588 -25 588 -25 399 -25 c 0,9,10
 297 -25 297 -25 203 -2.5 c 128,-1,11
 109 20 109 20 72 37 c 1,12,-1
 72 240 l 1,13,14
 115 219 115 219 200 190.5 c 128,-1,15
 285 162 285 162 360 162 c 0,16,17
 465 162 465 162 515 199 c 128,-1,18
 565 236 565 236 565 289 c 0,19,20
 565 330 565 330 530.5 371 c 128,-1,21
 496 412 496 412 356 475 c 0,22,23
 250 524 250 524 171 586.5 c 128,-1,24
 92 649 92 649 92 776 c 0,25,26
 92 840 92 840 127 903.5 c 128,-1,27
 162 967 162 967 207 1001 c 1,28,29
 147 1032 147 1032 117.5 1086.5 c 128,-1,30
 88 1141 88 1141 88 1214 c 0,31,32
 88 1343 88 1343 184.5 1436.5 c 128,-1,33
 281 1530 281 1530 467 1530 c 0,34,35
 571 1530 571 1530 653 1507.5 c 128,-1,36
 735 1485 735 1485 770 1466 c 1,37,-1
 770 1253 l 1,38,39
 721 1286 721 1286 639 1314.5 c 128,-1,40
 557 1343 557 1343 469 1343 c 0,41,42
 391 1343 391 1343 355 1316.5 c 128,-1,43
 319 1290 319 1290 319 1241 c 0,44,45
 319 1171 319 1171 388 1134.5 c 128,-1,46
 457 1098 457 1098 541 1063 c 0,47,48
 700 997 700 997 769 921.5 c 128,-1,49
 838 846 838 846 838 772 c 0,0,1
588 725 m 0,50,51
 588 758 588 758 542 803 c 128,-1,52
 496 848 496 848 369 905 c 1,53,54
 344 891 344 891 328.5 859 c 128,-1,55
 313 827 313 827 313 807 c 0,56,57
 313 735 313 735 370.5 703.5 c 128,-1,58
 428 672 428 672 547 616 c 1,59,60
 567 633 567 633 577.5 664.5 c 128,-1,61
 588 696 588 696 588 725 c 0,50,51
EndSplineSet
Validated: 1
EndChar

StartChar: bullet
Encoding: 358 8226 135
Width: 1195
GlyphClass: 1
Flags: W
LayerCount: 2
Fore
SplineSet
171 768 m 0,0,1
 171 944 171 944 297.5 1069.5 c 128,-1,2
 424 1195 424 1195 598 1195 c 256,3,4
 772 1195 772 1195 898 1069 c 128,-1,5
 1024 943 1024 943 1024 768 c 0,6,7
 1024 595 1024 595 899.5 468 c 128,-1,8
 775 341 775 341 598 341 c 256,9,10
 421 341 421 341 296 467.5 c 128,-1,11
 171 594 171 594 171 768 c 0,0,1
EndSplineSet
Validated: 1
EndChar

StartChar: paragraph
Encoding: 140 182 136
Width: 1192
GlyphClass: 1
Flags: W
LayerCount: 2
Fore
SplineSet
1071 0 m 1,0,-1
 874 0 l 1,1,-1
 874 1284 l 1,2,-1
 774 1284 l 1,3,-1
 774 0 l 1,4,-1
 559 0 l 1,5,-1
 559 616 l 1,6,7
 328 616 328 616 190.5 715.5 c 128,-1,8
 53 815 53 815 53 1034 c 2,9,-1
 53 1085 l 2,10,11
 53 1274 53 1274 192.5 1391.5 c 128,-1,12
 332 1509 332 1509 584 1509 c 2,13,-1
 1071 1509 l 1,14,-1
 1071 0 l 1,0,-1
553 852 m 1,15,-1
 553 1280 l 1,16,17
 442 1280 442 1280 375.5 1223.5 c 128,-1,18
 309 1167 309 1167 309 1071 c 0,19,20
 309 971 309 971 366.5 911.5 c 128,-1,21
 424 852 424 852 553 852 c 1,15,-1
EndSplineSet
Validated: 1
EndChar

StartChar: germandbls
Encoding: 181 223 137
Width: 1365
GlyphClass: 1
Flags: W
LayerCount: 2
Fore
SplineSet
1327 326 m 0,0,1
 1327 147 1327 147 1220.5 62 c 128,-1,2
 1114 -23 1114 -23 895 -23 c 0,3,4
 879 -23 879 -23 839 -20.5 c 128,-1,5
 799 -18 799 -18 799 -18 c 1,6,-1
 799 199 l 1,7,8
 924 199 924 199 959.5 226.5 c 128,-1,9
 995 254 995 254 995 313 c 0,10,11
 995 383 995 383 930.5 437.5 c 128,-1,12
 866 492 866 492 809 528 c 0,13,14
 672 614 672 614 623.5 686 c 128,-1,15
 575 758 575 758 575 887 c 0,16,17
 575 975 575 975 645 1060 c 128,-1,18
 715 1145 715 1145 715 1198 c 0,19,20
 715 1241 715 1241 690.5 1266.5 c 128,-1,21
 666 1292 666 1292 608 1292 c 0,22,23
 551 1292 551 1292 510 1250 c 128,-1,24
 469 1208 469 1208 469 1130 c 2,25,-1
 469 0 l 1,26,-1
 150 0 l 1,27,-1
 150 1102 l 2,28,29
 150 1264 150 1264 272.5 1386.5 c 128,-1,30
 395 1509 395 1509 592 1509 c 0,31,32
 813 1509 813 1509 911.5 1435.5 c 128,-1,33
 1010 1362 1010 1362 1010 1225 c 0,34,35
 1010 1126 1010 1126 933 1056.5 c 128,-1,36
 856 987 856 987 856 938 c 0,37,38
 856 881 856 881 891 839 c 128,-1,39
 926 797 926 797 1059 709 c 0,40,41
 1182 627 1182 627 1254.5 533.5 c 128,-1,42
 1327 440 1327 440 1327 326 c 0,0,1
EndSplineSet
Validated: 1
EndChar

StartChar: registered
Encoding: 132 174 138
Width: 1524
GlyphClass: 1
Flags: W
LayerCount: 2
Fore
SplineSet
1425 690 m 0,0,1
 1425 414 1425 414 1230.5 220.5 c 128,-1,2
 1036 27 1036 27 762 27 c 0,3,4
 487 27 487 27 292.5 220.5 c 128,-1,5
 98 414 98 414 98 690 c 0,6,7
 98 967 98 967 292.5 1162.5 c 128,-1,8
 487 1358 487 1358 762 1358 c 0,9,10
 1036 1358 1036 1358 1230.5 1162.5 c 128,-1,11
 1425 967 1425 967 1425 690 c 0,0,1
1268 690 m 256,12,13
 1268 899 1268 899 1119.5 1056.5 c 128,-1,14
 971 1214 971 1214 762 1214 c 256,15,16
 553 1214 553 1214 405.5 1056.5 c 128,-1,17
 258 899 258 899 258 690 c 256,18,19
 258 481 258 481 405.5 323.5 c 128,-1,20
 553 166 553 166 762 166 c 256,21,22
 971 166 971 166 1119.5 323.5 c 128,-1,23
 1268 481 1268 481 1268 690 c 256,12,13
1036 342 m 1,24,-1
 846 342 l 1,25,26
 846 342 846 342 846 371.5 c 128,-1,27
 846 401 846 401 846 469 c 0,28,29
 846 545 846 545 817 599 c 128,-1,30
 788 653 788 653 739 653 c 0,31,32
 727 653 727 653 708.5 653 c 128,-1,33
 690 653 690 653 690 653 c 257,34,35
 690 653 690 653 690 559 c 128,-1,36
 690 465 690 465 690 342 c 1,37,38
 655 342 655 342 606 342 c 128,-1,39
 557 342 557 342 520 342 c 1,40,-1
 520 1053 l 1,41,42
 520 1053 520 1053 629.5 1053 c 128,-1,43
 739 1053 739 1053 797 1053 c 0,44,45
 909 1053 909 1053 964.5 1010 c 128,-1,46
 1020 967 1020 967 1020 899 c 0,47,48
 1020 891 1020 891 1020 867.5 c 128,-1,49
 1020 844 1020 844 1020 838 c 0,50,51
 1020 780 1020 780 988 742.5 c 128,-1,52
 956 705 956 705 907 694 c 1,53,54
 981 655 981 655 1008.5 587.5 c 128,-1,55
 1036 520 1036 520 1036 459 c 0,56,57
 1036 442 1036 442 1036 342 c 1,58,-1
 1036 342 l 1,24,-1
862 831 m 0,59,60
 862 838 862 838 862 844 c 128,-1,61
 862 850 862 850 862 858 c 0,62,63
 862 891 862 891 842.5 914.5 c 128,-1,64
 823 938 823 938 793 938 c 0,65,66
 784 938 784 938 745.5 938 c 128,-1,67
 707 938 707 938 690 938 c 1,68,-1
 690 748 l 1,69,70
 690 748 690 748 728 748 c 128,-1,71
 766 748 766 748 793 748 c 0,72,73
 829 748 829 748 845.5 768 c 128,-1,74
 862 788 862 788 862 831 c 0,59,60
EndSplineSet
Validated: 5
EndChar

StartChar: copyright
Encoding: 127 169 139
Width: 1524
GlyphClass: 1
Flags: W
LayerCount: 2
Fore
SplineSet
1425 690 m 0,0,1
 1425 414 1425 414 1230.5 220.5 c 128,-1,2
 1036 27 1036 27 762 27 c 0,3,4
 487 27 487 27 292.5 220.5 c 128,-1,5
 98 414 98 414 98 690 c 0,6,7
 98 967 98 967 292.5 1162.5 c 128,-1,8
 487 1358 487 1358 762 1358 c 0,9,10
 1036 1358 1036 1358 1230.5 1162.5 c 128,-1,11
 1425 967 1425 967 1425 690 c 0,0,1
1268 690 m 256,12,13
 1268 899 1268 899 1119.5 1056.5 c 128,-1,14
 971 1214 971 1214 762 1214 c 256,15,16
 553 1214 553 1214 405.5 1056.5 c 128,-1,17
 258 899 258 899 258 690 c 256,18,19
 258 481 258 481 405.5 323.5 c 128,-1,20
 553 166 553 166 762 166 c 256,21,22
 971 166 971 166 1119.5 323.5 c 128,-1,23
 1268 481 1268 481 1268 690 c 256,12,13
1010 379 m 1,24,25
 979 360 979 360 920.5 344 c 128,-1,26
 862 328 862 328 797 328 c 0,27,28
 627 328 627 328 535.5 404.5 c 128,-1,29
 444 481 444 481 444 657 c 2,30,-1
 444 692 l 2,31,32
 444 850 444 850 543.5 938 c 128,-1,33
 643 1026 643 1026 801 1026 c 0,34,35
 881 1026 881 1026 931 1009.5 c 128,-1,36
 981 993 981 993 1010 977 c 1,37,-1
 1010 850 l 1,38,39
 981 870 981 870 931 886.5 c 128,-1,40
 881 903 881 903 831 903 c 0,41,42
 743 903 743 903 698 854 c 128,-1,43
 653 805 653 805 653 682 c 2,44,-1
 653 668 l 2,45,46
 653 541 653 541 693 502 c 128,-1,47
 733 463 733 463 821 463 c 0,48,49
 883 463 883 463 933 479.5 c 128,-1,50
 983 496 983 496 1010 514 c 1,51,-1
 1010 379 l 1,24,25
EndSplineSet
Validated: 1
EndChar

StartChar: trademark
Encoding: 369 8482 140
Width: 1442
GlyphClass: 1
Flags: W
LayerCount: 2
Fore
SplineSet
1399 885 m 1,0,-1
 1225 885 l 1,1,-1
 1225 1208 l 1,2,-1
 1032 1016 l 1,3,-1
 985 1016 l 1,4,-1
 795 1206 l 1,5,-1
 795 885 l 1,6,-1
 659 885 l 1,7,-1
 659 1493 l 1,8,-1
 756 1493 l 1,9,-1
 1047 1202 l 1,10,-1
 1335 1493 l 1,11,-1
 1399 1493 l 1,12,-1
 1399 885 l 1,0,-1
578 1372 m 1,13,-1
 379 1372 l 1,14,-1
 379 885 l 1,15,-1
 223 885 l 1,16,-1
 223 1372 l 1,17,-1
 25 1372 l 1,18,-1
 25 1493 l 1,19,-1
 578 1493 l 1,20,-1
 578 1372 l 1,13,-1
EndSplineSet
Validated: 1
EndChar

StartChar: acute
Encoding: 138 180 141
Width: 1024
GlyphClass: 1
Flags: W
LayerCount: 2
Fore
SplineSet
791 1677 m 1,0,-1
 463 1323 l 1,1,-1
 246 1323 l 1,2,-1
 496 1677 l 1,3,-1
 791 1677 l 1,0,-1
EndSplineSet
Validated: 1
EndChar

StartChar: dieresis
Encoding: 126 168 142
Width: 1024
GlyphClass: 1
Flags: W
LayerCount: 2
Fore
SplineSet
883 1479 m 0,0,1
 883 1421 883 1421 843 1380 c 128,-1,2
 803 1339 803 1339 745 1339 c 0,3,4
 690 1339 690 1339 650 1380 c 128,-1,5
 610 1421 610 1421 610 1479 c 0,6,7
 610 1534 610 1534 650 1575 c 128,-1,8
 690 1616 690 1616 745 1616 c 0,9,10
 803 1616 803 1616 843 1575 c 128,-1,11
 883 1534 883 1534 883 1479 c 0,0,1
424 1479 m 0,12,13
 424 1421 424 1421 384 1380 c 128,-1,14
 344 1339 344 1339 287 1339 c 0,15,16
 231 1339 231 1339 191.5 1380 c 128,-1,17
 152 1421 152 1421 152 1479 c 0,18,19
 152 1534 152 1534 191.5 1575 c 128,-1,20
 231 1616 231 1616 287 1616 c 0,21,22
 344 1616 344 1616 384 1575 c 128,-1,23
 424 1534 424 1534 424 1479 c 0,12,13
EndSplineSet
Validated: 1
EndChar

StartChar: notequal
Encoding: 397 8800 143
Width: 1188
GlyphClass: 1
Flags: W
LayerCount: 2
Fore
SplineSet
1065 236 m 1,0,-1
 469 236 l 1,1,-1
 334 25 l 1,2,-1
 184 117 l 1,3,-1
 260 236 l 1,4,-1
 125 236 l 1,5,-1
 125 473 l 1,6,-1
 412 473 l 1,7,-1
 567 715 l 1,8,-1
 125 715 l 1,9,-1
 125 952 l 1,10,-1
 721 952 l 1,11,-1
 870 1186 l 1,12,-1
 1022 1094 l 1,13,-1
 930 952 l 1,14,-1
 1065 952 l 1,15,-1
 1065 715 l 1,16,-1
 778 715 l 1,17,-1
 623 473 l 1,18,-1
 1065 473 l 1,19,-1
 1065 236 l 1,0,-1
EndSplineSet
Validated: 1
EndChar

StartChar: AE
Encoding: 156 198 144
Width: 1786
GlyphClass: 1
Flags: W
LayerCount: 2
Fore
SplineSet
1712 0 m 1,0,-1
 778 0 l 1,1,-1
 778 362 l 1,2,-1
 401 362 l 1,3,-1
 240 0 l 1,4,-1
 -55 0 l 1,5,-1
 637 1509 l 1,6,-1
 1673 1509 l 1,7,-1
 1673 1284 l 1,8,-1
 1110 1284 l 1,9,-1
 1110 879 l 1,10,-1
 1544 879 l 1,11,-1
 1544 651 l 1,12,-1
 1110 651 l 1,13,-1
 1110 225 l 1,14,-1
 1712 225 l 1,15,-1
 1712 0 l 1,0,-1
778 580 m 1,16,-1
 778 1223 l 1,17,-1
 500 580 l 1,18,-1
 778 580 l 1,16,-1
EndSplineSet
Validated: 1
EndChar

StartChar: infinity
Encoding: 394 8734 146
Width: 1544
GlyphClass: 1
Flags: W
LayerCount: 2
Fore
SplineSet
1460 682 m 0,0,1
 1460 512 1460 512 1360 425 c 128,-1,2
 1260 338 1260 338 1100 338 c 0,3,4
 987 338 987 338 906 385 c 128,-1,5
 825 432 825 432 766 512 c 1,6,7
 707 426 707 426 634 384 c 128,-1,8
 561 342 561 342 440 342 c 0,9,10
 281 342 281 342 178.5 428 c 128,-1,11
 76 514 76 514 76 682 c 256,12,13
 76 850 76 850 180.5 936 c 128,-1,14
 285 1022 285 1022 436 1022 c 0,15,16
 553 1022 553 1022 634 973 c 128,-1,17
 715 924 715 924 770 842 c 1,18,19
 827 922 827 922 906 970 c 128,-1,20
 985 1018 985 1018 1094 1018 c 0,21,22
 1262 1018 1262 1018 1361 928 c 128,-1,23
 1460 838 1460 838 1460 682 c 0,0,1
1274 682 m 0,24,25
 1274 758 1274 758 1220.5 805 c 128,-1,26
 1167 852 1167 852 1096 852 c 0,27,28
 1038 852 1038 852 991 820 c 128,-1,29
 944 788 944 788 877 684 c 1,30,31
 934 586 934 586 983 549 c 128,-1,32
 1032 512 1032 512 1100 512 c 0,33,34
 1169 512 1169 512 1221.5 560 c 128,-1,35
 1274 608 1274 608 1274 682 c 0,24,25
657 676 m 1,36,37
 606 770 606 770 556 809 c 128,-1,38
 506 848 506 848 436 848 c 0,39,40
 369 848 369 848 315.5 799 c 128,-1,41
 262 750 262 750 262 680 c 0,42,43
 262 602 262 602 314.5 555 c 128,-1,44
 367 508 367 508 436 508 c 0,45,46
 506 508 506 508 557 546 c 128,-1,47
 608 584 608 584 657 676 c 1,36,37
EndSplineSet
Validated: 1
EndChar

StartChar: plusminus
Encoding: 135 177 147
Width: 1188
GlyphClass: 1
Flags: W
LayerCount: 2
Fore
SplineSet
995 647 m 1,0,-1
 707 647 l 1,1,-1
 707 375 l 1,2,-1
 481 375 l 1,3,-1
 481 647 l 1,4,-1
 195 647 l 1,5,-1
 195 883 l 1,6,-1
 481 883 l 1,7,-1
 481 1155 l 1,8,-1
 707 1155 l 1,9,-1
 707 883 l 1,10,-1
 995 883 l 1,11,-1
 995 647 l 1,0,-1
1006 0 m 1,12,-1
 195 0 l 1,13,-1
 195 217 l 1,14,-1
 1006 217 l 1,15,-1
 1006 0 l 1,12,-1
EndSplineSet
Validated: 1
EndChar

StartChar: lessequal
Encoding: 398 8804 148
Width: 1024
GlyphClass: 1
Flags: W
LayerCount: 2
Fore
SplineSet
925 311 m 1,0,-1
 75 657 l 1,1,-1
 75 866 l 1,2,-1
 925 1214 l 1,3,-1
 925 950 l 1,4,-1
 450 766 l 1,5,-1
 925 573 l 1,6,-1
 925 311 l 1,0,-1
925 0 m 1,7,-1
 75 0 l 1,8,-1
 75 221 l 1,9,-1
 925 221 l 1,10,-1
 925 0 l 1,7,-1
EndSplineSet
Validated: 1
EndChar

StartChar: yen
Encoding: 123 165 150
Width: 1319
GlyphClass: 1
Flags: W
LayerCount: 2
Fore
SplineSet
1327 1509 m 1,0,-1
 805 725 l 1,1,-1
 805 643 l 1,2,-1
 1126 643 l 1,3,-1
 1126 471 l 1,4,-1
 805 471 l 1,5,-1
 805 373 l 1,6,-1
 1126 373 l 1,7,-1
 1126 201 l 1,8,-1
 805 201 l 1,9,-1
 805 0 l 1,10,-1
 506 0 l 1,11,-1
 506 201 l 1,12,-1
 184 201 l 1,13,-1
 184 373 l 1,14,-1
 506 373 l 1,15,-1
 506 471 l 1,16,-1
 184 471 l 1,17,-1
 184 643 l 1,18,-1
 506 643 l 1,19,-1
 506 690 l 1,20,-1
 -4 1509 l 1,21,-1
 373 1509 l 1,22,-1
 709 969 l 1,23,-1
 1057 1509 l 1,24,-1
 1327 1509 l 1,0,-1
EndSplineSet
Validated: 1
EndChar

StartChar: mu
Encoding: 139 181 151
Width: 1296
GlyphClass: 1
Flags: W
LayerCount: 2
Fore
SplineSet
1149 0 m 1,0,-1
 846 0 l 1,1,-1
 829 168 l 1,2,3
 793 86 793 86 725 43 c 128,-1,4
 657 0 657 0 557 0 c 0,5,6
 524 0 524 0 497.5 0 c 128,-1,7
 471 0 471 0 442 8 c 1,8,-1
 442 -342 l 1,9,-1
 150 -342 l 1,10,-1
 150 1151 l 1,11,-1
 469 1151 l 1,12,-1
 469 391 l 2,13,14
 469 281 469 281 510 253 c 128,-1,15
 551 225 551 225 604 225 c 0,16,17
 674 225 674 225 738.5 253 c 128,-1,18
 803 281 803 281 829 336 c 1,19,-1
 829 1151 l 1,20,-1
 1149 1151 l 1,21,-1
 1149 0 l 1,0,-1
EndSplineSet
Validated: 1
EndChar

StartChar: partialdiff
Encoding: 386 8706 152
Width: 1190
GlyphClass: 1
Flags: W
LayerCount: 2
Fore
SplineSet
1114 573 m 0,0,1
 1096 287 1096 287 955.5 131 c 128,-1,2
 815 -25 815 -25 543 -25 c 0,3,4
 315 -25 315 -25 189 137 c 128,-1,5
 63 299 63 299 63 528 c 0,6,7
 63 778 63 778 186 924.5 c 128,-1,8
 309 1071 309 1071 543 1071 c 0,9,10
 621 1071 621 1071 686.5 1033 c 128,-1,11
 752 995 752 995 788 954 c 1,12,13
 770 1137 770 1137 686 1231 c 128,-1,14
 602 1325 602 1325 461 1325 c 0,15,16
 401 1325 401 1325 348 1312.5 c 128,-1,17
 295 1300 295 1300 231 1268 c 1,18,-1
 231 1499 l 1,19,20
 266 1513 266 1513 323.5 1529.5 c 128,-1,21
 381 1546 381 1546 461 1546 c 0,22,23
 764 1546 764 1546 930 1306.5 c 128,-1,24
 1096 1067 1096 1067 1114 705 c 0,25,26
 1114 692 1114 692 1115 647 c 128,-1,27
 1116 602 1116 602 1114 573 c 0,0,1
780 532 m 0,28,29
 780 657 780 657 734 756.5 c 128,-1,30
 688 856 688 856 584 856 c 0,31,32
 496 856 496 856 446.5 788.5 c 128,-1,33
 397 721 397 721 397 528 c 0,34,35
 397 369 397 369 440 266.5 c 128,-1,36
 483 164 483 164 584 164 c 0,37,38
 682 164 682 164 731 266.5 c 128,-1,39
 780 369 780 369 780 532 c 0,28,29
EndSplineSet
Validated: 33
EndChar

StartChar: summation
Encoding: 389 8721 153
Width: 1276
GlyphClass: 1
Flags: W
LayerCount: 2
Fore
SplineSet
1214 0 m 1,0,-1
 86 0 l 1,1,-1
 86 199 l 1,2,-1
 651 770 l 1,3,-1
 106 1315 l 1,4,-1
 106 1509 l 1,5,-1
 1133 1509 l 1,6,-1
 1133 1284 l 1,7,-1
 545 1284 l 1,8,-1
 1042 786 l 1,9,-1
 516 264 l 1,10,-1
 1214 264 l 1,11,-1
 1214 0 l 1,0,-1
EndSplineSet
Validated: 1
EndChar

StartChar: product
Encoding: 388 8719 154
Width: 1360
GlyphClass: 1
Flags: W
LayerCount: 2
Fore
SplineSet
1335 1284 m 1,0,-1
 1182 1284 l 1,1,-1
 1182 0 l 1,2,-1
 844 0 l 1,3,-1
 844 1284 l 1,4,-1
 516 1284 l 1,5,-1
 516 0 l 1,6,-1
 178 0 l 1,7,-1
 178 1284 l 1,8,-1
 27 1284 l 1,9,-1
 27 1509 l 1,10,-1
 1335 1509 l 1,11,-1
 1335 1284 l 1,0,-1
EndSplineSet
Validated: 1
EndChar

StartChar: pi
Encoding: 346 960 155
Width: 1362
GlyphClass: 1
Flags: W
LayerCount: 2
Fore
SplineSet
1315 952 m 1,0,-1
 1163 952 l 1,1,-1
 1163 0 l 1,2,-1
 844 0 l 1,3,-1
 844 952 l 1,4,-1
 516 952 l 1,5,-1
 516 0 l 1,6,-1
 197 0 l 1,7,-1
 197 952 l 1,8,-1
 45 952 l 1,9,-1
 45 1151 l 1,10,-1
 1315 1151 l 1,11,-1
 1315 952 l 1,0,-1
EndSplineSet
Validated: 1
EndChar

StartChar: integral
Encoding: 395 8747 156
Width: 967
GlyphClass: 1
Flags: W
LayerCount: 2
Fore
SplineSet
995 1460 m 1,0,-1
 895 1251 l 1,1,2
 870 1272 870 1272 837.5 1290.5 c 128,-1,3
 805 1309 805 1309 758 1309 c 0,4,5
 700 1309 700 1309 674.5 1269 c 128,-1,6
 649 1229 649 1229 649 1151 c 2,7,-1
 649 57 l 2,8,9
 649 -127 649 -127 534.5 -240.5 c 128,-1,10
 420 -354 420 -354 254 -354 c 0,11,12
 137 -354 137 -354 74.5 -335.5 c 128,-1,13
 12 -317 12 -317 -37 -285 c 1,14,-1
 57 -86 l 1,15,16
 82 -106 82 -106 118 -123.5 c 128,-1,17
 154 -141 154 -141 201 -141 c 0,18,19
 258 -141 258 -141 283.5 -97 c 128,-1,20
 309 -53 309 -53 309 25 c 2,21,-1
 309 1118 l 2,22,23
 309 1303 309 1303 424 1416.5 c 128,-1,24
 539 1530 539 1530 705 1530 c 0,25,26
 821 1530 821 1530 883.5 1511.5 c 128,-1,27
 946 1493 946 1493 995 1460 c 1,0,-1
EndSplineSet
Validated: 1
EndChar

StartChar: ordfeminine
Encoding: 128 170 157
Width: 969
GlyphClass: 1
Flags: W
LayerCount: 2
Fore
SplineSet
881 580 m 1,0,-1
 618 580 l 1,1,-1
 616 680 l 1,2,3
 586 627 586 627 524.5 597 c 128,-1,4
 463 567 463 567 369 567 c 0,5,6
 213 567 213 567 134 646 c 128,-1,7
 55 725 55 725 55 881 c 2,8,-1
 55 897 l 2,9,10
 55 1055 55 1055 160.5 1145 c 128,-1,11
 266 1235 266 1235 446 1235 c 0,12,13
 502 1235 502 1235 543 1218.5 c 128,-1,14
 584 1202 584 1202 610 1180 c 1,15,-1
 610 1260 l 2,16,17
 610 1309 610 1309 576.5 1332.5 c 128,-1,18
 543 1356 543 1356 463 1356 c 0,19,20
 377 1356 377 1356 309.5 1334.5 c 128,-1,21
 242 1313 242 1313 193 1284 c 1,22,-1
 193 1468 l 1,23,24
 256 1493 256 1493 335 1511.5 c 128,-1,25
 414 1530 414 1530 526 1530 c 0,26,27
 709 1530 709 1530 795 1455 c 128,-1,28
 881 1380 881 1380 881 1202 c 2,29,-1
 881 580 l 1,0,-1
879 272 m 1,30,-1
 74 272 l 1,31,-1
 74 463 l 1,32,-1
 879 463 l 1,33,-1
 879 272 l 1,30,-1
616 895 m 2,34,-1
 616 913 l 2,35,36
 616 991 616 991 580.5 1031 c 128,-1,37
 545 1071 545 1071 473 1071 c 0,38,39
 410 1071 410 1071 372 1034 c 128,-1,40
 334 997 334 997 334 913 c 2,41,-1
 334 893 l 2,42,43
 334 805 334 805 373 777.5 c 128,-1,44
 412 750 412 750 475 750 c 0,45,46
 530 750 530 750 573 784.5 c 128,-1,47
 616 819 616 819 616 895 c 2,34,-1
EndSplineSet
Validated: 1
EndChar

StartChar: ordmasculine
Encoding: 144 186 158
Width: 1102
GlyphClass: 1
Flags: W
LayerCount: 2
Fore
SplineSet
1026 1014 m 2,0,1
 1026 799 1026 799 902 678 c 128,-1,2
 778 557 778 557 561 557 c 256,3,4
 344 557 344 557 217 681 c 128,-1,5
 90 805 90 805 90 1014 c 2,6,-1
 90 1075 l 2,7,8
 90 1280 90 1280 216 1406 c 128,-1,9
 342 1532 342 1532 559 1532 c 0,10,11
 778 1532 778 1532 902 1405 c 128,-1,12
 1026 1278 1026 1278 1026 1075 c 2,13,-1
 1026 1014 l 2,0,1
985 272 m 1,14,-1
 111 272 l 1,15,-1
 111 463 l 1,16,-1
 985 463 l 1,17,-1
 985 272 l 1,14,-1
739 1038 m 2,18,-1
 739 1051 l 2,19,20
 739 1221 739 1221 687 1282 c 128,-1,21
 635 1343 635 1343 559 1343 c 0,22,23
 479 1343 479 1343 430 1276.5 c 128,-1,24
 381 1210 381 1210 381 1051 c 2,25,-1
 381 1038 l 2,26,27
 381 862 381 862 429 803.5 c 128,-1,28
 477 745 477 745 559 745 c 0,29,30
 633 745 633 745 686 801.5 c 128,-1,31
 739 858 739 858 739 1038 c 2,18,-1
EndSplineSet
Validated: 1
EndChar

StartChar: Omega
Encoding: 345 937 159
AltUni2: 002126.ffffffff.0 002126.ffffffff.0
Width: 1532
GlyphClass: 1
Flags: W
LayerCount: 2
Fore
SplineSet
1456 831 m 2,0,1
 1456 657 1456 657 1359 535.5 c 128,-1,2
 1262 414 1262 414 1116 354 c 1,3,-1
 1116 225 l 1,4,-1
 1444 225 l 1,5,-1
 1444 0 l 1,6,-1
 885 0 l 1,7,-1
 885 453 l 1,8,9
 1008 494 1008 494 1056 613.5 c 128,-1,10
 1104 733 1104 733 1104 870 c 2,11,-1
 1104 911 l 2,12,13
 1104 1141 1104 1141 1018 1241 c 128,-1,14
 932 1341 932 1341 766 1341 c 0,15,16
 604 1341 604 1341 516 1243 c 128,-1,17
 428 1145 428 1145 428 911 c 2,18,-1
 428 870 l 2,19,20
 428 711 428 711 482.5 598 c 128,-1,21
 537 485 537 485 647 453 c 1,22,-1
 647 0 l 1,23,-1
 88 0 l 1,24,-1
 88 225 l 1,25,-1
 416 225 l 1,26,-1
 416 354 l 1,27,28
 297 391 297 391 186.5 513 c 128,-1,29
 76 635 76 635 76 850 c 2,30,-1
 76 946 l 2,31,32
 76 1186 76 1186 247 1358 c 128,-1,33
 418 1530 418 1530 774 1530 c 0,34,35
 1102 1530 1102 1530 1279 1368 c 128,-1,36
 1456 1206 1456 1206 1456 946 c 2,37,-1
 1456 831 l 2,0,1
EndSplineSet
Validated: 1
EndChar

StartChar: ae
Encoding: 188 230 160
Width: 1868
GlyphClass: 1
Flags: W
LayerCount: 2
Fore
SplineSet
1776 514 m 1,0,-1
 1032 514 l 1,1,2
 1032 322 1032 322 1115 247 c 128,-1,3
 1198 172 1198 172 1331 172 c 0,4,5
 1419 172 1419 172 1510.5 195.5 c 128,-1,6
 1602 219 1602 219 1698 266 c 1,7,-1
 1698 74 l 1,8,9
 1614 25 1614 25 1513.5 0 c 128,-1,10
 1413 -25 1413 -25 1280 -25 c 0,11,12
 1130 -25 1130 -25 1022.5 21.5 c 128,-1,13
 915 68 915 68 829 174 c 1,14,15
 778 78 778 78 691 32 c 128,-1,16
 604 -14 604 -14 461 -14 c 0,17,18
 281 -14 281 -14 172 82 c 128,-1,19
 63 178 63 178 63 373 c 2,20,-1
 63 393 l 2,21,22
 63 586 63 586 188 690.5 c 128,-1,23
 313 795 313 795 524 795 c 0,24,25
 588 795 588 795 649.5 775.5 c 128,-1,26
 711 756 711 756 739 727 c 1,27,-1
 739 840 l 2,28,29
 739 899 739 899 688 940 c 128,-1,30
 637 981 637 981 543 981 c 0,31,32
 442 981 442 981 363.5 957.5 c 128,-1,33
 285 934 285 934 225 899 c 1,34,-1
 225 1096 l 1,35,36
 301 1128 301 1128 393 1151 c 128,-1,37
 485 1174 485 1174 618 1174 c 0,38,39
 729 1174 729 1174 800.5 1149 c 128,-1,40
 872 1124 872 1124 926 1077 c 1,41,42
 971 1108 971 1108 1052 1144 c 128,-1,43
 1133 1180 1133 1180 1264 1180 c 0,44,45
 1511 1180 1511 1180 1643.5 1025 c 128,-1,46
 1776 870 1776 870 1776 621 c 2,47,48
 1776 621 1776 621 1776 573.5 c 128,-1,49
 1776 526 1776 526 1776 514 c 1,0,-1
1485 678 m 1,50,51
 1475 848 1475 848 1418.5 921.5 c 128,-1,52
 1362 995 1362 995 1264 995 c 0,53,54
 1178 995 1178 995 1109 922.5 c 128,-1,55
 1040 850 1040 850 1034 678 c 1,56,-1
 1485 678 l 1,50,51
741 385 m 2,57,-1
 741 416 l 2,58,59
 741 520 741 520 694 574.5 c 128,-1,60
 647 629 647 629 557 629 c 0,61,62
 471 629 471 629 426 577.5 c 128,-1,63
 381 526 381 526 381 414 c 2,64,-1
 381 383 l 2,65,66
 381 266 381 266 429 227 c 128,-1,67
 477 188 477 188 559 188 c 0,68,69
 629 188 629 188 685 235.5 c 128,-1,70
 741 283 741 283 741 385 c 2,57,-1
EndSplineSet
Validated: 1
EndChar

StartChar: questiondown
Encoding: 149 191 162
Width: 918
GlyphClass: 1
Flags: W
LayerCount: 2
Fore
SplineSet
674 1190 m 1,0,-1
 360 1190 l 1,1,-1
 360 1511 l 1,2,-1
 674 1511 l 1,3,-1
 674 1190 l 1,0,-1
899 113 m 1,4,5
 819 55 819 55 715.5 18.5 c 128,-1,6
 612 -18 612 -18 455 -18 c 0,7,8
 215 -18 215 -18 114.5 80 c 128,-1,9
 14 178 14 178 14 303 c 0,10,11
 14 410 14 410 59 484.5 c 128,-1,12
 104 559 104 559 199 623 c 0,13,14
 287 682 287 682 335 749.5 c 128,-1,15
 383 817 383 817 383 899 c 0,16,17
 383 944 383 944 383 995.5 c 128,-1,18
 383 1047 383 1047 383 1047 c 1,19,-1
 655 1047 l 1,20,21
 655 1047 655 1047 655 977 c 128,-1,22
 655 907 655 907 655 858 c 0,23,24
 655 768 655 768 607 686 c 128,-1,25
 559 604 559 604 487 555 c 0,26,27
 393 489 393 489 363.5 444 c 128,-1,28
 334 399 334 399 334 338 c 0,29,30
 334 276 334 276 378 239.5 c 128,-1,31
 422 203 422 203 537 203 c 0,32,33
 639 203 639 203 738.5 246 c 128,-1,34
 838 289 838 289 899 336 c 1,35,-1
 899 113 l 1,4,5
EndSplineSet
Validated: 1
EndChar

StartChar: exclamdown
Encoding: 119 161 163
Width: 709
GlyphClass: 1
Flags: W
LayerCount: 2
Fore
SplineSet
522 1190 m 1,0,-1
 203 1190 l 1,1,-1
 203 1509 l 1,2,-1
 522 1509 l 1,3,-1
 522 1190 l 1,0,-1
545 0 m 1,4,-1
 180 0 l 1,5,-1
 219 995 l 1,6,-1
 506 995 l 1,7,-1
 545 0 l 1,4,-1
EndSplineSet
Validated: 1
EndChar

StartChar: logicalnot
Encoding: 130 172 164
Width: 1195
GlyphClass: 1
Flags: W
LayerCount: 2
Fore
SplineSet
1068 358 m 1,0,-1
 847 358 l 1,1,-1
 847 580 l 1,2,-1
 106 580 l 1,3,-1
 106 797 l 1,4,-1
 1068 797 l 1,5,-1
 1068 358 l 1,0,-1
EndSplineSet
Validated: 1
EndChar

StartChar: radical
Encoding: 393 8730 165
Width: 1251
GlyphClass: 1
Flags: W
LayerCount: 2
Fore
SplineSet
1350 1509 m 1,0,-1
 580 -49 l 1,1,-1
 381 -49 l 1,2,-1
 41 414 l 1,3,-1
 287 569 l 1,4,-1
 475 283 l 1,5,-1
 1051 1509 l 1,6,-1
 1350 1509 l 1,0,-1
EndSplineSet
Validated: 1
EndChar

StartChar: florin
Encoding: 334 402 166
Width: 946
GlyphClass: 1
Flags: W
LayerCount: 2
Fore
SplineSet
995 1460 m 1,0,-1
 895 1251 l 1,1,2
 874 1270 874 1270 839.5 1289.5 c 128,-1,3
 805 1309 805 1309 758 1309 c 0,4,5
 702 1309 702 1309 665.5 1276 c 128,-1,6
 629 1243 629 1243 629 1151 c 2,7,-1
 629 903 l 1,8,-1
 913 903 l 1,9,-1
 913 727 l 1,10,-1
 629 727 l 1,11,-1
 629 57 l 2,12,13
 629 -127 629 -127 524.5 -240.5 c 128,-1,14
 420 -354 420 -354 254 -354 c 0,15,16
 141 -354 141 -354 76.5 -335.5 c 128,-1,17
 12 -317 12 -317 -37 -285 c 1,18,-1
 57 -86 l 1,19,20
 82 -106 82 -106 119 -123.5 c 128,-1,21
 156 -141 156 -141 201 -141 c 0,22,23
 258 -141 258 -141 283.5 -97 c 128,-1,24
 309 -53 309 -53 309 25 c 2,25,-1
 309 729 l 1,26,-1
 160 729 l 1,27,-1
 160 903 l 1,28,-1
 309 903 l 1,29,-1
 309 1118 l 2,30,31
 309 1298 309 1298 426 1414 c 128,-1,32
 543 1530 543 1530 705 1530 c 0,33,34
 821 1530 821 1530 885.5 1510.5 c 128,-1,35
 950 1491 950 1491 995 1460 c 1,0,-1
EndSplineSet
Validated: 1
EndChar

StartChar: approxequal
Encoding: 396 8776 167
Width: 1188
GlyphClass: 1
Flags: W
LayerCount: 2
Fore
SplineSet
1065 715 m 1,0,-1
 819 602 l 1,1,-1
 348 807 l 1,2,-1
 125 715 l 1,3,-1
 125 952 l 1,4,-1
 369 1065 l 1,5,-1
 840 860 l 1,6,-1
 1065 952 l 1,7,-1
 1065 715 l 1,0,-1
1065 236 m 1,8,-1
 819 123 l 1,9,-1
 348 328 l 1,10,-1
 125 236 l 1,11,-1
 125 473 l 1,12,-1
 369 586 l 1,13,-1
 840 381 l 1,14,-1
 1065 473 l 1,15,-1
 1065 236 l 1,8,-1
EndSplineSet
Validated: 1
EndChar

StartChar: Delta
Encoding: 387 8710 168
Width: 1360
GlyphClass: 1
Flags: W
LayerCount: 2
Fore
SplineSet
1346 0 m 1,0,-1
 -2 0 l 1,1,-1
 559 1509 l 1,2,-1
 772 1509 l 1,3,-1
 1346 0 l 1,0,-1
891 246 m 1,4,-1
 618 1008 l 1,5,-1
 342 246 l 1,6,-1
 891 246 l 1,4,-1
EndSplineSet
Validated: 1
EndChar

StartChar: guillemotleft
Encoding: 129 171 169
Width: 1360
GlyphClass: 1
Flags: W
LayerCount: 2
Fore
SplineSet
1292 123 m 1,0,-1
 674 496 l 1,1,-1
 674 709 l 1,2,-1
 1292 1090 l 1,3,-1
 1292 815 l 1,4,-1
 946 602 l 1,5,-1
 1292 397 l 1,6,-1
 1292 123 l 1,0,-1
674 123 m 1,7,-1
 55 496 l 1,8,-1
 55 709 l 1,9,-1
 674 1090 l 1,10,-1
 674 815 l 1,11,-1
 328 602 l 1,12,-1
 674 397 l 1,13,-1
 674 123 l 1,7,-1
EndSplineSet
Validated: 1
EndChar

StartChar: ellipsis
Encoding: 359 8230 171
Width: 1749
GlyphClass: 1
Flags: W
LayerCount: 2
Fore
SplineSet
1622 0 m 1,0,-1
 1296 0 l 1,1,-1
 1296 326 l 1,2,-1
 1622 326 l 1,3,-1
 1622 0 l 1,0,-1
1040 0 m 1,4,-1
 715 0 l 1,5,-1
 715 326 l 1,6,-1
 1040 326 l 1,7,-1
 1040 0 l 1,4,-1
459 0 m 1,8,-1
 133 0 l 1,9,-1
 133 326 l 1,10,-1
 459 326 l 1,11,-1
 459 0 l 1,8,-1
EndSplineSet
Validated: 1
EndChar

StartChar: OE
Encoding: 289 338 176
Width: 1877
GlyphClass: 1
Flags: W
LayerCount: 2
Fore
SplineSet
1816 0 m 1,0,-1
 944 0 l 1,1,2
 895 -16 895 -16 861 -20.5 c 128,-1,3
 827 -25 827 -25 739 -25 c 0,4,5
 399 -25 399 -25 234 156.5 c 128,-1,6
 69 338 69 338 69 702 c 0,7,8
 69 719 69 719 69 740.5 c 128,-1,9
 69 762 69 762 69 788 c 0,10,11
 69 1139 69 1139 248.5 1334.5 c 128,-1,12
 428 1530 428 1530 739 1530 c 0,13,14
 819 1530 819 1530 875 1519.5 c 128,-1,15
 931 1509 931 1509 972 1509 c 2,16,-1
 1775 1509 l 1,17,-1
 1775 1284 l 1,18,-1
 1228 1284 l 1,19,-1
 1228 879 l 1,20,-1
 1657 879 l 1,21,-1
 1657 651 l 1,22,-1
 1228 651 l 1,23,-1
 1228 225 l 1,24,-1
 1816 225 l 1,25,-1
 1816 0 l 1,0,-1
899 1296 m 1,26,27
 860 1305 860 1305 816.5 1310 c 128,-1,28
 773 1315 773 1315 718 1315 c 0,29,30
 560 1315 560 1315 485.5 1192 c 128,-1,31
 411 1069 411 1069 411 768 c 0,32,33
 411 752 411 752 411 746.5 c 128,-1,34
 411 741 411 741 411 727 c 0,35,36
 411 445 411 445 476 316.5 c 128,-1,37
 541 188 541 188 726 188 c 0,38,39
 791 188 791 188 829.5 198.5 c 128,-1,40
 868 209 868 209 897 223 c 1,41,42
 897 223 897 223 898 747.5 c 128,-1,43
 899 1272 899 1272 899 1296 c 1,26,27
EndSplineSet
Validated: 1
EndChar

StartChar: oe
Encoding: 290 339 177
Width: 2042
GlyphClass: 1
Flags: W
LayerCount: 2
Fore
SplineSet
1946 514 m 1,0,-1
 1163 514 l 1,1,2
 1163 322 1163 322 1250 247 c 128,-1,3
 1337 172 1337 172 1477 172 c 0,4,5
 1569 172 1569 172 1665 195.5 c 128,-1,6
 1761 219 1761 219 1864 266 c 1,7,-1
 1864 74 l 1,8,9
 1776 25 1776 25 1669.5 0 c 128,-1,10
 1563 -25 1563 -25 1423 -25 c 0,11,12
 1313 -25 1313 -25 1203.5 7 c 128,-1,13
 1094 39 1094 39 1010 129 c 1,14,15
 950 63 950 63 859 19 c 128,-1,16
 768 -25 768 -25 647 -25 c 0,17,18
 410 -25 410 -25 256 128 c 128,-1,19
 102 281 102 281 102 543 c 0,20,21
 102 563 102 563 102 584.5 c 128,-1,22
 102 606 102 606 102 625 c 0,23,24
 102 874 102 874 259 1027 c 128,-1,25
 416 1180 416 1180 645 1180 c 0,26,27
 799 1180 799 1180 886 1145 c 128,-1,28
 973 1110 973 1110 1024 1044 c 1,29,30
 1092 1110 1092 1110 1190 1145 c 128,-1,31
 1288 1180 1288 1180 1405 1180 c 0,32,33
 1667 1180 1667 1180 1806.5 1025 c 128,-1,34
 1946 870 1946 870 1946 621 c 2,35,36
 1946 621 1946 621 1946 573.5 c 128,-1,37
 1946 526 1946 526 1946 514 c 1,0,-1
1649 678 m 1,38,39
 1638 848 1638 848 1573.5 921.5 c 128,-1,40
 1509 995 1509 995 1405 995 c 0,41,42
 1315 995 1315 995 1243 922.5 c 128,-1,43
 1171 850 1171 850 1165 678 c 1,44,-1
 1649 678 l 1,38,39
889 559 m 0,45,46
 889 578 889 578 889 585 c 128,-1,47
 889 592 889 592 889 608 c 0,48,49
 889 774 889 774 833.5 881.5 c 128,-1,50
 778 989 778 989 662 989 c 0,51,52
 543 989 543 989 488.5 895 c 128,-1,53
 434 801 434 801 434 608 c 0,54,55
 434 592 434 592 434 581.5 c 128,-1,56
 434 571 434 571 434 559 c 0,57,58
 434 360 434 360 489.5 264 c 128,-1,59
 545 168 545 168 662 168 c 0,60,61
 778 168 778 168 833.5 261 c 128,-1,62
 889 354 889 354 889 559 c 0,45,46
EndSplineSet
Validated: 1
EndChar

StartChar: endash
Encoding: 348 8211 178
Width: 1024
GlyphClass: 1
Flags: W
LayerCount: 2
Fore
SplineSet
964 561 m 1,0,-1
 60 561 l 1,1,-1
 60 799 l 1,2,-1
 964 799 l 1,3,-1
 964 561 l 1,0,-1
EndSplineSet
Validated: 1
EndChar

StartChar: emdash
Encoding: 349 8212 179
Width: 1707
GlyphClass: 1
Flags: W
LayerCount: 2
Fore
SplineSet
1627 561 m 1,0,-1
 80 561 l 1,1,-1
 80 799 l 1,2,-1
 1627 799 l 1,3,-1
 1627 561 l 1,0,-1
EndSplineSet
Validated: 1
EndChar

StartChar: quotedblleft
Encoding: 353 8220 180
Width: 1100
GlyphClass: 1
Flags: W
LayerCount: 2
Fore
SplineSet
975 854 m 1,0,-1
 635 854 l 1,1,-1
 635 1194 l 2,2,3
 635 1372 635 1372 738.5 1451 c 128,-1,4
 842 1530 842 1530 975 1530 c 1,5,-1
 975 1382 l 1,6,7
 891 1382 891 1382 851 1343.5 c 128,-1,8
 811 1305 811 1305 811 1194 c 1,9,-1
 975 1194 l 1,10,-1
 975 854 l 1,0,-1
473 854 m 1,11,-1
 133 854 l 1,12,-1
 133 1194 l 2,13,14
 133 1372 133 1372 236.5 1451 c 128,-1,15
 340 1530 340 1530 473 1530 c 1,16,-1
 473 1382 l 1,17,18
 389 1382 389 1382 349 1343.5 c 128,-1,19
 309 1305 309 1305 309 1194 c 1,20,-1
 473 1194 l 1,21,-1
 473 854 l 1,11,-1
EndSplineSet
Validated: 1
EndChar

StartChar: quotedblright
Encoding: 354 8221 181
Width: 1100
GlyphClass: 1
Flags: W
LayerCount: 2
Fore
SplineSet
979 1169 m 2,0,1
 979 991 979 991 875.5 912.5 c 128,-1,2
 772 834 772 834 639 834 c 1,3,-1
 639 981 l 1,4,5
 723 981 723 981 763 1020 c 128,-1,6
 803 1059 803 1059 803 1169 c 1,7,-1
 639 1169 l 1,8,-1
 639 1509 l 1,9,-1
 979 1509 l 1,10,-1
 979 1169 l 2,0,1
477 1169 m 2,11,12
 477 991 477 991 373.5 912.5 c 128,-1,13
 270 834 270 834 137 834 c 1,14,-1
 137 981 l 1,15,16
 221 981 221 981 261 1020 c 128,-1,17
 301 1059 301 1059 301 1169 c 1,18,-1
 137 1169 l 1,19,-1
 137 1509 l 1,20,-1
 477 1509 l 1,21,-1
 477 1169 l 2,11,12
EndSplineSet
Validated: 1
EndChar

StartChar: quoteleft
Encoding: 350 8216 182
Width: 680
GlyphClass: 1
Flags: W
LayerCount: 2
Fore
SplineSet
514 854 m 1,0,-1
 174 854 l 1,1,-1
 174 1194 l 2,2,3
 174 1372 174 1372 277.5 1451 c 128,-1,4
 381 1530 381 1530 514 1530 c 1,5,-1
 514 1382 l 1,6,7
 430 1382 430 1382 390 1343.5 c 128,-1,8
 350 1305 350 1305 350 1194 c 1,9,-1
 514 1194 l 1,10,-1
 514 854 l 1,0,-1
EndSplineSet
Validated: 1
EndChar

StartChar: quoteright
Encoding: 351 8217 183
Width: 680
GlyphClass: 1
Flags: W
LayerCount: 2
Fore
SplineSet
518 1169 m 2,0,1
 518 991 518 991 414.5 912.5 c 128,-1,2
 311 834 311 834 178 834 c 1,3,-1
 178 981 l 1,4,5
 262 981 262 981 302 1020 c 128,-1,6
 342 1059 342 1059 342 1169 c 1,7,-1
 178 1169 l 1,8,-1
 178 1509 l 1,9,-1
 518 1509 l 1,10,-1
 518 1169 l 2,0,1
EndSplineSet
Validated: 1
EndChar

StartChar: divide
Encoding: 205 247 184
Width: 1188
GlyphClass: 1
Flags: W
LayerCount: 2
Fore
SplineSet
748 1036 m 0,0,1
 748 973 748 973 702.5 928 c 128,-1,2
 657 883 657 883 594 883 c 0,3,4
 530 883 530 883 485 928 c 128,-1,5
 440 973 440 973 440 1036 c 0,6,7
 440 1100 440 1100 485 1145 c 128,-1,8
 530 1190 530 1190 594 1190 c 0,9,10
 657 1190 657 1190 702.5 1145 c 128,-1,11
 748 1100 748 1100 748 1036 c 0,0,1
1077 582 m 1,12,-1
 113 582 l 1,13,-1
 113 799 l 1,14,-1
 1077 799 l 1,15,-1
 1077 582 l 1,12,-1
748 332 m 0,16,17
 748 268 748 268 702.5 223 c 128,-1,18
 657 178 657 178 594 178 c 0,19,20
 530 178 530 178 485 223 c 128,-1,21
 440 268 440 268 440 332 c 0,22,23
 440 395 440 395 485 440 c 128,-1,24
 530 485 530 485 594 485 c 0,25,26
 657 485 657 485 702.5 440 c 128,-1,27
 748 395 748 395 748 332 c 0,16,17
EndSplineSet
Validated: 1
EndChar

StartChar: lozenge
Encoding: 403 9674 185
Width: 1372
GlyphClass: 1
Flags: W
LayerCount: 2
Fore
SplineSet
1280 682 m 1,0,-1
 686 88 l 1,1,-1
 92 682 l 1,2,-1
 686 1276 l 1,3,-1
 1280 682 l 1,0,-1
973 682 m 1,4,-1
 686 969 l 1,5,-1
 399 682 l 1,6,-1
 686 395 l 1,7,-1
 973 682 l 1,4,-1
EndSplineSet
Validated: 1
EndChar

StartChar: fraction
Encoding: 363 8260 188
AltUni2: 002215.ffffffff.0 002215.ffffffff.0
Width: 512
GlyphClass: 1
Flags: W
LayerCount: 2
Fore
SplineSet
837 1509 m 1,0,-1
 -108 0 l 1,1,-1
 -325 0 l 1,2,-1
 620 1509 l 1,3,-1
 837 1509 l 1,0,-1
EndSplineSet
Validated: 1
EndChar

StartChar: Euro
Encoding: 368 8364 189
Width: 1524
GlyphClass: 1
Flags: W
LayerCount: 2
Fore
SplineSet
1239 715 m 1,0,-1
 98 715 l 1,1,-1
 146 825 l 1,2,-1
 1285 825 l 1,3,-1
 1239 715 l 1,0,-1
1145 495 m 1,4,-1
 98 495 l 1,5,-1
 146 605 l 1,6,-1
 1193 605 l 1,7,-1
 1145 495 l 1,4,-1
1364 149 m 1,8,9
 1191 0 1191 0 936 0 c 0,10,11
 656 0 656 0 466 190 c 128,-1,12
 276 380 276 380 276 660 c 256,13,14
 276 940 276 940 466 1130 c 128,-1,15
 656 1320 656 1320 936 1320 c 256,16,17
 1216 1320 1216 1320 1412 1124 c 1,18,-1
 1364 1013 l 1,19,20
 1181 1210 1181 1210 936 1210 c 0,21,22
 706 1210 706 1210 546 1050 c 128,-1,23
 386 890 386 890 386 660 c 256,24,25
 386 430 386 430 546 270 c 128,-1,26
 706 110 706 110 936 110 c 0,27,28
 1186 110 1186 110 1364 311 c 1,29,-1
 1364 149 l 1,8,9
EndSplineSet
Validated: 5
EndChar

StartChar: guilsinglleft
Encoding: 361 8249 190
Width: 743
GlyphClass: 1
Flags: W
LayerCount: 2
Fore
SplineSet
676 123 m 1,0,-1
 57 496 l 1,1,-1
 57 709 l 1,2,-1
 676 1090 l 1,3,-1
 676 815 l 1,4,-1
 330 602 l 1,5,-1
 676 397 l 1,6,-1
 676 123 l 1,0,-1
EndSplineSet
Validated: 1
EndChar

StartChar: fi
Encoding: 407 64257 192
Width: 1294
GlyphClass: 1
Flags: W
LayerCount: 2
Fore
SplineSet
1149 0 m 1,0,-1
 829 0 l 1,1,-1
 829 961 l 1,2,-1
 489 961 l 1,3,-1
 489 0 l 1,4,-1
 170 0 l 1,5,-1
 170 963 l 1,6,-1
 18 963 l 1,7,-1
 18 1151 l 1,8,-1
 176 1151 l 1,9,-1
 176 1194 l 2,10,11
 176 1362 176 1362 276.5 1462.5 c 128,-1,12
 377 1563 377 1563 545 1563 c 0,13,14
 625 1563 625 1563 701.5 1541.5 c 128,-1,15
 778 1520 778 1520 829 1487 c 1,16,-1
 745 1317 l 1,17,18
 719 1337 719 1337 687 1351.5 c 128,-1,19
 655 1366 655 1366 608 1366 c 0,20,21
 541 1366 541 1366 516.5 1325 c 128,-1,22
 492 1284 492 1284 492 1204 c 2,23,-1
 492 1151 l 1,24,-1
 1149 1151 l 1,25,-1
 1149 0 l 1,0,-1
EndSplineSet
Validated: 1
EndChar

StartChar: fl
Encoding: 408 64258 193
Width: 1276
GlyphClass: 1
Flags: W
LayerCount: 2
Fore
SplineSet
1135 0 m 1,0,-1
 815 0 l 1,1,-1
 815 1290 l 1,2,3
 786 1331 786 1331 742 1348.5 c 128,-1,4
 698 1366 698 1366 653 1366 c 0,5,6
 561 1366 561 1366 526.5 1315 c 128,-1,7
 492 1264 492 1264 492 1184 c 2,8,-1
 492 1151 l 1,9,-1
 707 1151 l 1,10,-1
 707 961 l 1,11,-1
 489 961 l 1,12,-1
 489 0 l 1,13,-1
 170 0 l 1,14,-1
 170 963 l 1,15,-1
 18 963 l 1,16,-1
 18 1151 l 1,17,-1
 176 1151 l 1,18,-1
 176 1161 l 2,19,20
 176 1333 176 1333 271.5 1448 c 128,-1,21
 367 1563 367 1563 545 1563 c 0,22,23
 627 1563 627 1563 699.5 1549.5 c 128,-1,24
 772 1536 772 1536 815 1509 c 1,25,-1
 1135 1509 l 1,26,-1
 1135 0 l 1,0,-1
EndSplineSet
Validated: 1
EndChar

StartChar: daggerdbl
Encoding: 357 8225 194
Width: 1049
GlyphClass: 1
Flags: W
LayerCount: 2
Fore
SplineSet
1038 672 m 1,0,-1
 647 672 l 1,1,-1
 639 -342 l 1,2,-1
 399 -342 l 1,3,-1
 391 672 l 1,4,-1
 18 672 l 1,5,-1
 18 848 l 1,6,-1
 383 848 l 1,7,-1
 379 975 l 1,8,-1
 18 975 l 1,9,-1
 18 1151 l 1,10,-1
 371 1151 l 1,11,-1
 358 1509 l 1,12,-1
 680 1509 l 1,13,-1
 668 1151 l 1,14,-1
 1038 1151 l 1,15,-1
 1038 975 l 1,16,-1
 659 975 l 1,17,-1
 655 848 l 1,18,-1
 1038 848 l 1,19,-1
 1038 672 l 1,0,-1
EndSplineSet
Validated: 1
EndChar

StartChar: periodcentered
Encoding: 141 183 195
AltUni2: 002219.ffffffff.0 002219.ffffffff.0
Width: 680
GlyphClass: 1
Flags: W
LayerCount: 2
Fore
SplineSet
504 524 m 1,0,-1
 178 524 l 1,1,-1
 178 850 l 1,2,-1
 504 850 l 1,3,-1
 504 524 l 1,0,-1
EndSplineSet
Validated: 1
EndChar

StartChar: quotesinglbase
Encoding: 352 8218 196
Width: 680
GlyphClass: 1
Flags: W
LayerCount: 2
Fore
SplineSet
518 0 m 2,0,1
 518 -178 518 -178 414.5 -257 c 128,-1,2
 311 -336 311 -336 178 -336 c 1,3,-1
 178 -188 l 1,4,5
 262 -188 262 -188 302 -149.5 c 128,-1,6
 342 -111 342 -111 342 0 c 1,7,-1
 178 0 l 1,8,-1
 178 340 l 1,9,-1
 518 340 l 1,10,-1
 518 0 l 2,0,1
EndSplineSet
Validated: 1
EndChar

StartChar: quotedblbase
Encoding: 355 8222 197
Width: 1100
GlyphClass: 1
Flags: W
LayerCount: 2
Fore
SplineSet
979 0 m 2,0,1
 979 -178 979 -178 875.5 -257 c 128,-1,2
 772 -336 772 -336 639 -336 c 1,3,-1
 639 -188 l 1,4,5
 723 -188 723 -188 763 -149.5 c 128,-1,6
 803 -111 803 -111 803 0 c 1,7,-1
 639 0 l 1,8,-1
 639 340 l 1,9,-1
 979 340 l 1,10,-1
 979 0 l 2,0,1
477 0 m 2,11,12
 477 -178 477 -178 373.5 -257 c 128,-1,13
 270 -336 270 -336 137 -336 c 1,14,-1
 137 -188 l 1,15,16
 221 -188 221 -188 261 -149.5 c 128,-1,17
 301 -111 301 -111 301 0 c 1,18,-1
 137 0 l 1,19,-1
 137 340 l 1,20,-1
 477 340 l 1,21,-1
 477 0 l 2,11,12
EndSplineSet
Validated: 1
EndChar

StartChar: perthousand
Encoding: 360 8240 198
Width: 2560
GlyphClass: 1
Flags: W
LayerCount: 2
Fore
SplineSet
843 1153 m 2,0,1
 843 1006 843 1006 738.5 915.5 c 128,-1,2
 634 825 634 825 462 825 c 0,3,4
 292 825 292 825 180.5 919.5 c 128,-1,5
 69 1014 69 1014 69 1151 c 2,6,-1
 69 1206 l 2,7,8
 69 1333 69 1333 170.5 1432.5 c 128,-1,9
 272 1532 272 1532 462 1532 c 0,10,11
 642 1532 642 1532 742.5 1439 c 128,-1,12
 843 1346 843 1346 843 1206 c 2,13,-1
 843 1153 l 2,0,1
1440 1509 m 1,14,-1
 405 0 l 1,15,-1
 229 0 l 1,16,-1
 1264 1509 l 1,17,-1
 1440 1509 l 1,14,-1
2490 305 m 2,18,19
 2490 139 2490 139 2384.5 58 c 128,-1,20
 2279 -23 2279 -23 2111 -23 c 0,21,22
 1930 -23 1930 -23 1823.5 69.5 c 128,-1,23
 1717 162 1717 162 1717 303 c 2,24,-1
 1717 358 l 2,25,26
 1717 481 1717 481 1819.5 582.5 c 128,-1,27
 1922 684 1922 684 2111 684 c 0,28,29
 2291 684 2291 684 2390.5 592 c 128,-1,30
 2490 500 2490 500 2490 358 c 2,31,-1
 2490 305 l 2,18,19
1618 305 m 2,32,33
 1618 139 1618 139 1512.5 58 c 128,-1,34
 1407 -23 1407 -23 1240 -23 c 0,35,36
 1059 -23 1059 -23 952.5 69.5 c 128,-1,37
 846 162 846 162 846 303 c 2,38,-1
 846 358 l 2,39,40
 846 481 846 481 948.5 582.5 c 128,-1,41
 1051 684 1051 684 1240 684 c 0,42,43
 1420 684 1420 684 1519 592 c 128,-1,44
 1618 500 1618 500 1618 358 c 2,45,-1
 1618 305 l 2,32,33
587 1163 m 2,46,-1
 587 1180 l 2,47,48
 587 1262 587 1262 563.5 1312 c 128,-1,49
 540 1362 540 1362 462 1362 c 0,50,51
 386 1362 386 1362 356.5 1314 c 128,-1,52
 327 1266 327 1266 327 1180 c 2,53,-1
 327 1163 l 2,54,55
 327 1094 327 1094 355.5 1037.5 c 128,-1,56
 384 981 384 981 464 981 c 0,57,58
 536 981 536 981 561.5 1033 c 128,-1,59
 587 1085 587 1085 587 1163 c 2,46,-1
2236 315 m 2,60,-1
 2236 332 l 2,61,62
 2236 414 2236 414 2212 464 c 128,-1,63
 2188 514 2188 514 2111 514 c 0,64,65
 2035 514 2035 514 2005 466 c 128,-1,66
 1975 418 1975 418 1975 332 c 2,67,-1
 1975 315 l 2,68,69
 1975 246 1975 246 2004 189.5 c 128,-1,70
 2033 133 2033 133 2113 133 c 0,71,72
 2184 133 2184 133 2210 185.5 c 128,-1,73
 2236 238 2236 238 2236 315 c 2,60,-1
1364 315 m 2,74,-1
 1364 332 l 2,75,76
 1364 414 1364 414 1340.5 464 c 128,-1,77
 1317 514 1317 514 1240 514 c 0,78,79
 1164 514 1164 514 1134 466 c 128,-1,80
 1104 418 1104 418 1104 332 c 2,81,-1
 1104 315 l 2,82,83
 1104 246 1104 246 1133 189.5 c 128,-1,84
 1162 133 1162 133 1242 133 c 0,85,86
 1313 133 1313 133 1338.5 185.5 c 128,-1,87
 1364 238 1364 238 1364 315 c 2,74,-1
EndSplineSet
Validated: 1
EndChar

StartChar: uniF8FF
Encoding: 406 63743 210
Width: 1585
GlyphClass: 1
Flags: W
LayerCount: 2
Fore
SplineSet
1346 762 m 0,0,1
 1346 532 1346 532 1184 370.5 c 128,-1,2
 1022 209 1022 209 793 209 c 0,3,4
 563 209 563 209 401.5 370.5 c 128,-1,5
 240 532 240 532 240 762 c 0,6,7
 240 991 240 991 401.5 1153 c 128,-1,8
 563 1315 563 1315 793 1315 c 0,9,10
 1022 1315 1022 1315 1184 1153 c 128,-1,11
 1346 991 1346 991 1346 762 c 0,0,1
EndSplineSet
Validated: 1
EndChar

StartChar: dotlessi
Encoding: 261 305 215
Width: 610
GlyphClass: 1
Flags: W
LayerCount: 2
Fore
SplineSet
467 0 m 1,0,-1
 147 0 l 1,1,-1
 147 1151 l 1,2,-1
 467 1151 l 1,3,-1
 467 0 l 1,0,-1
EndSplineSet
Validated: 1
EndChar

StartChar: circumflex
Encoding: 335 710 216
Width: 1024
GlyphClass: 1
Flags: W
LayerCount: 2
Fore
SplineSet
981 1323 m 1,0,-1
 764 1323 l 1,1,-1
 512 1516 l 1,2,-1
 260 1323 l 1,3,-1
 43 1323 l 1,4,-1
 395 1677 l 1,5,-1
 629 1677 l 1,6,-1
 981 1323 l 1,0,-1
EndSplineSet
Validated: 1
EndChar

StartChar: tilde
Encoding: 342 732 217
Width: 1024
GlyphClass: 1
Flags: W
LayerCount: 2
Fore
SplineSet
944 1520 m 1,0,1
 915 1456 915 1456 840.5 1397.5 c 128,-1,2
 766 1339 766 1339 668 1339 c 0,3,4
 602 1339 602 1339 568.5 1355.5 c 128,-1,5
 535 1372 535 1372 489 1397 c 0,6,7
 444 1421 444 1421 411.5 1435.5 c 128,-1,8
 379 1450 379 1450 336 1450 c 256,9,10
 293 1450 293 1450 259 1435.5 c 128,-1,11
 225 1421 225 1421 186 1368 c 1,12,-1
 84 1452 l 1,13,14
 113 1507 113 1507 182.5 1568.5 c 128,-1,15
 252 1630 252 1630 373 1630 c 0,16,17
 428 1630 428 1630 465 1612.5 c 128,-1,18
 502 1595 502 1595 537 1573 c 0,19,20
 573 1550 573 1550 608 1534 c 128,-1,21
 643 1518 643 1518 700 1518 c 0,22,23
 752 1518 752 1518 780.5 1543.5 c 128,-1,24
 809 1569 809 1569 834 1612 c 1,25,-1
 944 1520 l 1,0,1
EndSplineSet
Validated: 1
EndChar

StartChar: macron
Encoding: 133 175 218
AltUni2: 0002c9.ffffffff.0 0002c9.ffffffff.0
Width: 1024
GlyphClass: 1
Flags: W
LayerCount: 2
Fore
SplineSet
870 1335 m 1,0,-1
 152 1335 l 1,1,-1
 152 1518 l 1,2,-1
 870 1518 l 1,3,-1
 870 1335 l 1,0,-1
EndSplineSet
Validated: 1
EndChar

StartChar: breve
Encoding: 338 728 219
Width: 1024
GlyphClass: 1
Flags: W
LayerCount: 2
Fore
SplineSet
864 1657 m 1,0,1
 864 1509 864 1509 751.5 1413 c 128,-1,2
 639 1317 639 1317 512 1317 c 0,3,4
 367 1317 367 1317 263.5 1413 c 128,-1,5
 160 1509 160 1509 160 1657 c 1,6,-1
 328 1657 l 1,7,8
 336 1579 336 1579 385 1530 c 128,-1,9
 434 1481 434 1481 512 1481 c 256,10,11
 590 1481 590 1481 639 1530 c 128,-1,12
 688 1579 688 1579 696 1657 c 1,13,-1
 864 1657 l 1,0,1
EndSplineSet
Validated: 1
EndChar

StartChar: dotaccent
Encoding: 339 729 220
Width: 1024
GlyphClass: 1
Flags: W
LayerCount: 2
Fore
SplineSet
666 1483 m 0,0,1
 666 1419 666 1419 620.5 1374 c 128,-1,2
 575 1329 575 1329 512 1329 c 256,3,4
 449 1329 449 1329 403.5 1374 c 128,-1,5
 358 1419 358 1419 358 1483 c 0,6,7
 358 1546 358 1546 403.5 1591 c 128,-1,8
 449 1636 449 1636 512 1636 c 256,9,10
 575 1636 575 1636 620.5 1591 c 128,-1,11
 666 1546 666 1546 666 1483 c 0,0,1
EndSplineSet
Validated: 1
EndChar

StartChar: ring
Encoding: 340 730 221
Width: 1024
GlyphClass: 1
Flags: W
LayerCount: 2
Fore
SplineSet
788 1581 m 256,0,1
 788 1468 788 1468 709.5 1392.5 c 128,-1,2
 631 1317 631 1317 512 1317 c 256,3,4
 393 1317 393 1317 314.5 1392.5 c 128,-1,5
 236 1468 236 1468 236 1581 c 256,6,7
 236 1694 236 1694 314.5 1769.5 c 128,-1,8
 393 1845 393 1845 512 1845 c 256,9,10
 631 1845 631 1845 709.5 1769.5 c 128,-1,11
 788 1694 788 1694 788 1581 c 256,0,1
643 1581 m 256,12,13
 643 1634 643 1634 604 1673 c 128,-1,14
 565 1712 565 1712 512 1712 c 256,15,16
 459 1712 459 1712 420 1673 c 128,-1,17
 381 1634 381 1634 381 1581 c 256,18,19
 381 1528 381 1528 420 1489 c 128,-1,20
 459 1450 459 1450 512 1450 c 256,21,22
 565 1450 565 1450 604 1489 c 128,-1,23
 643 1528 643 1528 643 1581 c 256,12,13
EndSplineSet
Validated: 1
EndChar

StartChar: cedilla
Encoding: 142 184 222
Width: 1024
GlyphClass: 1
Flags: W
LayerCount: 2
Fore
SplineSet
807 -256 m 0,0,1
 807 -371 807 -371 722 -431.5 c 128,-1,2
 637 -492 637 -492 537 -492 c 0,3,4
 463 -492 463 -492 441.5 -486.5 c 128,-1,5
 420 -481 420 -481 389 -469 c 1,6,-1
 389 -336 l 1,7,8
 416 -350 416 -350 444.5 -356 c 128,-1,9
 473 -362 473 -362 510 -362 c 0,10,11
 551 -362 551 -362 579.5 -337.5 c 128,-1,12
 608 -313 608 -313 608 -270 c 0,13,14
 608 -215 608 -215 580.5 -192.5 c 128,-1,15
 553 -170 553 -170 506 -170 c 2,16,-1
 412 -170 l 1,17,-1
 412 25 l 1,18,-1
 573 25 l 1,19,-1
 573 -57 l 1,20,21
 680 -57 680 -57 743.5 -108.5 c 128,-1,22
 807 -160 807 -160 807 -256 c 0,0,1
EndSplineSet
Validated: 1
EndChar

StartChar: hungarumlaut
Encoding: 343 733 223
Width: 1024
GlyphClass: 1
Flags: W
LayerCount: 2
Fore
SplineSet
1042 1677 m 1,0,-1
 735 1323 l 1,1,-1
 539 1323 l 1,2,-1
 788 1677 l 1,3,-1
 1042 1677 l 1,0,-1
623 1677 m 1,4,-1
 315 1323 l 1,5,-1
 119 1323 l 1,6,-1
 369 1677 l 1,7,-1
 623 1677 l 1,4,-1
EndSplineSet
Validated: 1
EndChar

StartChar: ogonek
Encoding: 341 731 224
Width: 1024
GlyphClass: 1
Flags: W
LayerCount: 2
Fore
SplineSet
659 -471 m 1,0,1
 616 -483 616 -483 591.5 -487.5 c 128,-1,2
 567 -492 567 -492 543 -492 c 0,3,4
 422 -492 422 -492 350.5 -435.5 c 128,-1,5
 279 -379 279 -379 279 -246 c 0,6,7
 279 -135 279 -135 358.5 -67.5 c 128,-1,8
 438 0 438 0 553 0 c 2,9,-1
 639 0 l 1,10,-1
 639 -150 l 1,11,-1
 553 -150 l 2,12,13
 506 -150 506 -150 477.5 -175.5 c 128,-1,14
 449 -201 449 -201 449 -246 c 0,15,16
 449 -295 449 -295 478.5 -318.5 c 128,-1,17
 508 -342 508 -342 549 -342 c 0,18,19
 557 -342 557 -342 577.5 -339 c 128,-1,20
 598 -336 598 -336 614 -332 c 1,21,-1
 659 -471 l 1,0,1
EndSplineSet
Validated: 1
EndChar

StartChar: caron
Encoding: 336 711 225
Width: 1024
GlyphClass: 1
Flags: W
LayerCount: 2
Fore
SplineSet
981 1677 m 1,0,-1
 629 1323 l 1,1,-1
 395 1323 l 1,2,-1
 43 1677 l 1,3,-1
 260 1677 l 1,4,-1
 512 1485 l 1,5,-1
 764 1677 l 1,6,-1
 981 1677 l 1,0,-1
EndSplineSet
Validated: 1
EndChar

StartChar: brokenbar
Encoding: 124 166 232
Width: 850
GlyphClass: 1
Flags: W
LayerCount: 2
Fore
SplineSet
557 690 m 1,0,-1
 299 690 l 1,1,-1
 299 1509 l 1,2,-1
 557 1509 l 1,3,-1
 557 690 l 1,0,-1
557 -408 m 1,4,-1
 299 -408 l 1,5,-1
 299 412 l 1,6,-1
 557 412 l 1,7,-1
 557 -408 l 1,4,-1
EndSplineSet
Validated: 1
EndChar

StartChar: eth
Encoding: 198 240 234
Width: 1190
GlyphClass: 1
Flags: W
LayerCount: 2
Fore
SplineSet
1114 573 m 0,0,1
 1100 287 1100 287 957.5 131 c 128,-1,2
 815 -25 815 -25 543 -25 c 0,3,4
 319 -25 319 -25 191 137 c 128,-1,5
 63 299 63 299 63 528 c 0,6,7
 63 776 63 776 188 923.5 c 128,-1,8
 313 1071 313 1071 543 1071 c 0,9,10
 621 1071 621 1071 688.5 1032 c 128,-1,11
 756 993 756 993 788 954 c 1,12,13
 782 1034 782 1034 759.5 1099.5 c 128,-1,14
 737 1165 737 1165 700 1212 c 1,15,-1
 600 1104 l 1,16,-1
 494 1206 l 1,17,-1
 584 1303 l 1,18,19
 559 1315 559 1315 527.5 1320 c 128,-1,20
 496 1325 496 1325 461 1325 c 0,21,22
 403 1325 403 1325 349 1311.5 c 128,-1,23
 295 1298 295 1298 231 1268 c 1,24,-1
 231 1499 l 1,25,26
 274 1518 274 1518 329.5 1532 c 128,-1,27
 385 1546 385 1546 461 1546 c 0,28,29
 545 1546 545 1546 620.5 1528.5 c 128,-1,30
 696 1511 696 1511 748 1479 c 1,31,-1
 862 1599 l 1,32,-1
 981 1509 l 1,33,-1
 868 1391 l 1,34,35
 975 1286 975 1286 1039.5 1107 c 128,-1,36
 1104 928 1104 928 1114 705 c 0,37,38
 1114 692 1114 692 1114 646 c 128,-1,39
 1114 600 1114 600 1114 573 c 0,0,1
780 532 m 0,40,41
 780 655 780 655 734 755.5 c 128,-1,42
 688 856 688 856 584 856 c 0,43,44
 498 856 498 856 447.5 787.5 c 128,-1,45
 397 719 397 719 397 528 c 0,46,47
 397 369 397 369 441 266.5 c 128,-1,48
 485 164 485 164 584 164 c 0,49,50
 682 164 682 164 731 266.5 c 128,-1,51
 780 369 780 369 780 532 c 0,40,41
EndSplineSet
Validated: 1
EndChar

StartChar: Thorn
Encoding: 180 222 237
Width: 1192
GlyphClass: 1
Flags: W
LayerCount: 2
Fore
SplineSet
1147 705 m 2,0,1
 1147 528 1147 528 1019 421.5 c 128,-1,2
 891 315 891 315 686 315 c 2,3,-1
 487 315 l 1,4,-1
 487 0 l 1,5,-1
 147 0 l 1,6,-1
 147 1509 l 1,7,-1
 487 1509 l 1,8,-1
 487 1194 l 1,9,-1
 659 1194 l 2,10,11
 891 1194 891 1194 1019 1090.5 c 128,-1,12
 1147 987 1147 987 1147 768 c 2,13,-1
 1147 705 l 2,0,1
809 713 m 2,14,-1
 809 776 l 2,15,16
 809 877 809 877 754.5 936 c 128,-1,17
 700 995 700 995 565 995 c 2,18,-1
 487 995 l 1,19,-1
 487 522 l 1,20,-1
 565 522 l 2,21,22
 680 522 680 522 744.5 565 c 128,-1,23
 809 608 809 608 809 713 c 2,14,-1
EndSplineSet
Validated: 1
EndChar

StartChar: thorn
Encoding: 212 254 238
Width: 1298
GlyphClass: 1
Flags: W
LayerCount: 2
Fore
SplineSet
1200 547 m 2,0,1
 1200 279 1200 279 1076 131.5 c 128,-1,2
 952 -16 952 -16 719 -16 c 0,3,4
 659 -16 659 -16 588.5 0 c 128,-1,5
 518 16 518 16 469 59 c 1,6,-1
 469 -342 l 1,7,-1
 150 -342 l 1,8,-1
 150 1511 l 1,9,-1
 469 1511 l 1,10,-1
 469 991 l 1,11,12
 541 1100 541 1100 626 1137 c 128,-1,13
 711 1174 711 1174 803 1174 c 0,14,15
 991 1174 991 1174 1095.5 1040.5 c 128,-1,16
 1200 907 1200 907 1200 678 c 2,17,-1
 1200 547 l 2,0,1
870 563 m 2,18,-1
 870 637 l 2,19,20
 870 823 870 823 815 885.5 c 128,-1,21
 760 948 760 948 688 948 c 0,22,23
 612 948 612 948 552 908 c 128,-1,24
 492 868 492 868 469 813 c 1,25,-1
 469 266 l 1,26,27
 477 227 477 227 530.5 190.5 c 128,-1,28
 584 154 584 154 664 154 c 0,29,30
 743 154 743 154 806.5 227.5 c 128,-1,31
 870 301 870 301 870 563 c 2,18,-1
EndSplineSet
Validated: 1
EndChar

StartChar: minus
Encoding: 390 8722 239
Width: 1188
GlyphClass: 1
Flags: W
LayerCount: 2
Fore
SplineSet
1085 569 m 1,0,-1
 104 569 l 1,1,-1
 104 807 l 1,2,-1
 1085 807 l 1,3,-1
 1085 569 l 1,0,-1
EndSplineSet
Validated: 1
EndChar

StartChar: multiply
Encoding: 173 215 240
Width: 1188
GlyphClass: 1
Flags: W
LayerCount: 2
Fore
SplineSet
991 438 m 1,0,-1
 846 293 l 1,1,-1
 594 545 l 1,2,-1
 342 293 l 1,3,-1
 197 438 l 1,4,-1
 449 690 l 1,5,-1
 197 942 l 1,6,-1
 342 1087 l 1,7,-1
 594 836 l 1,8,-1
 846 1087 l 1,9,-1
 991 942 l 1,10,-1
 739 690 l 1,11,-1
 991 438 l 1,0,-1
EndSplineSet
Validated: 1
EndChar

StartChar: onesuperior
Encoding: 143 185 241
Width: 758
GlyphClass: 1
Flags: W
LayerCount: 2
Fore
SplineSet
518 590 m 1,0,-1
 291 590 l 1,1,-1
 291 1251 l 1,2,-1
 129 1251 l 1,3,-1
 129 1380 l 1,4,5
 250 1393 250 1393 300 1438 c 128,-1,6
 350 1483 350 1483 356 1511 c 1,7,-1
 518 1511 l 1,8,-1
 518 590 l 1,0,-1
EndSplineSet
Validated: 1
EndChar

StartChar: twosuperior
Encoding: 136 178 242
Width: 918
GlyphClass: 1
Flags: W
LayerCount: 2
Fore
SplineSet
809 590 m 1,0,-1
 143 590 l 1,1,-1
 143 770 l 1,2,3
 375 989 375 989 474 1075 c 128,-1,4
 573 1161 573 1161 573 1247 c 0,5,6
 573 1305 573 1305 543.5 1329.5 c 128,-1,7
 514 1354 514 1354 459 1354 c 0,8,9
 391 1354 391 1354 363.5 1325 c 128,-1,10
 336 1296 336 1296 328 1268 c 1,11,-1
 121 1268 l 1,12,13
 143 1391 143 1391 245.5 1459.5 c 128,-1,14
 348 1528 348 1528 473 1528 c 0,15,16
 647 1528 647 1528 725 1455 c 128,-1,17
 803 1382 803 1382 803 1270 c 0,18,19
 803 1124 803 1124 616.5 962.5 c 128,-1,20
 430 801 430 801 367 760 c 1,21,-1
 809 760 l 1,22,-1
 809 590 l 1,0,-1
EndSplineSet
Validated: 1
EndChar

StartChar: threesuperior
Encoding: 137 179 243
Width: 918
GlyphClass: 1
Flags: W
LayerCount: 2
Fore
SplineSet
807 856 m 0,0,1
 807 731 807 731 715 650 c 128,-1,2
 623 569 623 569 463 569 c 0,3,4
 365 569 365 569 275.5 608 c 128,-1,5
 186 647 186 647 125 733 c 1,6,-1
 264 827 l 1,7,8
 307 772 307 772 353 748.5 c 128,-1,9
 399 725 399 725 432 725 c 0,10,11
 514 725 514 725 551 761 c 128,-1,12
 588 797 588 797 588 866 c 0,13,14
 588 942 588 942 535.5 965.5 c 128,-1,15
 483 989 483 989 426 989 c 2,16,-1
 332 989 l 1,17,-1
 332 1133 l 1,18,-1
 432 1133 l 2,19,20
 512 1133 512 1133 548 1163.5 c 128,-1,21
 584 1194 584 1194 584 1253 c 0,22,23
 584 1305 584 1305 550 1334.5 c 128,-1,24
 516 1364 516 1364 461 1364 c 0,25,26
 391 1364 391 1364 363.5 1335.5 c 128,-1,27
 336 1307 336 1307 324 1268 c 1,28,-1
 125 1268 l 1,29,30
 150 1395 150 1395 248 1461.5 c 128,-1,31
 346 1528 346 1528 469 1528 c 0,32,33
 623 1528 623 1528 702.5 1460.5 c 128,-1,34
 782 1393 782 1393 782 1286 c 0,35,36
 782 1194 782 1194 744.5 1146 c 128,-1,37
 707 1098 707 1098 662 1075 c 1,38,39
 737 1044 737 1044 772 989 c 128,-1,40
 807 934 807 934 807 856 c 0,0,1
EndSplineSet
Validated: 1
EndChar

StartChar: coloncur
Encoding: 420 -1 330
Width: 1292
GlyphClass: 1
Flags: W
LayerCount: 2
Fore
SplineSet
1229 90 m 1,0,1
 1153 39 1153 39 1049.5 7 c 128,-1,2
 946 -25 946 -25 801 -25 c 0,3,4
 430 -25 430 -25 254 165.5 c 128,-1,5
 78 356 78 356 78 717 c 2,6,-1
 78 778 l 2,7,8
 78 1118 78 1118 267.5 1324 c 128,-1,9
 457 1530 457 1530 829 1530 c 0,10,11
 956 1530 956 1530 1054.5 1495 c 128,-1,12
 1153 1460 1153 1460 1229 1407 c 1,13,-1
 1229 1135 l 1,14,15
 1149 1210 1149 1210 1064 1249 c 128,-1,16
 979 1288 979 1288 881 1288 c 0,17,18
 627 1288 627 1288 527.5 1149 c 128,-1,19
 428 1010 428 1010 428 758 c 2,20,-1
 428 737 l 2,21,22
 428 467 428 467 532.5 344 c 128,-1,23
 637 221 637 221 834 221 c 0,24,25
 967 221 967 221 1070.5 266 c 128,-1,26
 1174 311 1174 311 1229 360 c 1,27,-1
 1229 90 l 1,0,1
1178 1731 m 1,28,-1
 854 -188 l 1,29,-1
 698 -188 l 1,30,-1
 1022 1731 l 1,31,-1
 1178 1731 l 1,28,-1
858 1731 m 1,32,-1
 535 -188 l 1,33,-1
 379 -188 l 1,34,-1
 702 1731 l 1,35,-1
 858 1731 l 1,32,-1
EndSplineSet
Validated: 5
EndChar

StartChar: pesetas
Encoding: 367 8359 332
Width: 1749
GlyphClass: 1
Flags: W
LayerCount: 2
Fore
SplineSet
1184 1040 m 2,0,1
 1184 877 1184 877 1076.5 785.5 c 128,-1,2
 969 694 969 694 729 694 c 2,3,-1
 487 694 l 1,4,-1
 487 0 l 1,5,-1
 147 0 l 1,6,-1
 147 1509 l 1,7,-1
 750 1509 l 2,8,9
 969 1509 969 1509 1076.5 1415 c 128,-1,10
 1184 1321 1184 1321 1184 1180 c 2,11,-1
 1184 1040 l 2,0,1
866 1059 m 2,12,-1
 866 1143 l 2,13,14
 866 1229 866 1229 818 1259.5 c 128,-1,15
 770 1290 770 1290 659 1290 c 2,16,-1
 487 1290 l 1,17,-1
 487 901 l 1,18,-1
 678 901 l 2,19,20
 758 901 758 901 812 942 c 128,-1,21
 866 983 866 983 866 1059 c 2,12,-1
1153 444 m 1,22,-1
 952 444 l 1,23,-1
 952 362 l 2,24,25
 952 264 952 264 970.5 226 c 128,-1,26
 989 188 989 188 1036 188 c 0,27,28
 1063 188 1063 188 1087.5 192.5 c 128,-1,29
 1112 197 1112 197 1145 211 c 1,30,-1
 1145 31 l 1,31,32
 1112 6 1112 6 1073 -2 c 128,-1,33
 1034 -10 1034 -10 975 -10 c 0,34,35
 817 -10 817 -10 755.5 91.5 c 128,-1,36
 694 193 694 193 694 383 c 2,37,-1
 694 446 l 1,38,-1
 557 446 l 1,39,-1
 557 610 l 1,40,-1
 713 618 l 1,41,-1
 764 872 l 1,42,-1
 952 872 l 1,43,-1
 952 621 l 1,44,-1
 1153 621 l 1,45,-1
 1153 444 l 1,22,-1
1698 205 m 0,46,47
 1698 109 1698 109 1630.5 50.5 c 128,-1,48
 1563 -8 1563 -8 1403 -8 c 0,49,50
 1335 -8 1335 -8 1281 3 c 128,-1,51
 1227 14 1227 14 1202 31 c 1,52,-1
 1202 211 l 1,53,54
 1231 197 1231 197 1282 179.5 c 128,-1,55
 1333 162 1333 162 1386 162 c 0,56,57
 1427 162 1427 162 1455 171 c 128,-1,58
 1483 180 1483 180 1483 207 c 0,59,60
 1483 236 1483 236 1442 251 c 128,-1,61
 1401 266 1401 266 1376 274 c 0,62,63
 1282 303 1282 303 1249.5 362.5 c 128,-1,64
 1217 422 1217 422 1217 504 c 0,65,66
 1217 588 1217 588 1278 645 c 128,-1,67
 1339 702 1339 702 1470 702 c 0,68,69
 1532 702 1532 702 1579 691 c 128,-1,70
 1626 680 1626 680 1655 666 c 1,71,-1
 1655 506 l 1,72,73
 1626 522 1626 522 1577 532.5 c 128,-1,74
 1528 543 1528 543 1483 543 c 0,75,76
 1452 543 1452 543 1429.5 533.5 c 128,-1,77
 1407 524 1407 524 1407 494 c 0,78,79
 1407 467 1407 467 1427.5 456.5 c 128,-1,80
 1448 446 1448 446 1499 430 c 0,81,82
 1622 393 1622 393 1660 336 c 128,-1,83
 1698 279 1698 279 1698 205 c 0,46,47
EndSplineSet
Validated: 5
EndChar

StartChar: rupees
Encoding: 421 -1 333
Width: 1729
GlyphClass: 1
Flags: W
LayerCount: 2
Fore
SplineSet
1180 0 m 1,0,-1
 844 0 l 1,1,2
 840 365 840 365 774.5 521.5 c 128,-1,3
 709 678 709 678 567 678 c 2,4,-1
 487 678 l 1,5,-1
 487 0 l 1,6,-1
 147 0 l 1,7,-1
 147 1509 l 1,8,-1
 741 1509 l 2,9,10
 958 1509 958 1509 1048.5 1415 c 128,-1,11
 1139 1321 1139 1321 1139 1184 c 2,12,-1
 1139 1102 l 2,13,14
 1139 973 1139 973 1060 895 c 128,-1,15
 981 817 981 817 823 803 c 1,16,17
 1001 750 1001 750 1090.5 567.5 c 128,-1,18
 1180 385 1180 385 1180 0 c 1,0,-1
829 1071 m 2,19,-1
 829 1112 l 2,20,21
 829 1210 829 1210 777 1252 c 128,-1,22
 725 1294 725 1294 623 1294 c 2,23,-1
 487 1294 l 1,24,-1
 487 895 l 1,25,-1
 604 895 l 2,26,27
 725 895 725 895 777 939 c 128,-1,28
 829 983 829 983 829 1071 c 2,19,-1
1698 199 m 0,29,30
 1698 102 1698 102 1630.5 44 c 128,-1,31
 1563 -14 1563 -14 1403 -14 c 0,32,33
 1335 -14 1335 -14 1281 -3 c 128,-1,34
 1227 8 1227 8 1202 25 c 1,35,-1
 1202 205 l 1,36,37
 1231 190 1231 190 1282 173 c 128,-1,38
 1333 156 1333 156 1386 156 c 0,39,40
 1427 156 1427 156 1455 165 c 128,-1,41
 1483 174 1483 174 1483 201 c 0,42,43
 1483 229 1483 229 1442 244.5 c 128,-1,44
 1401 260 1401 260 1376 268 c 0,45,46
 1282 297 1282 297 1249.5 356.5 c 128,-1,47
 1217 416 1217 416 1217 498 c 0,48,49
 1217 582 1217 582 1278 639 c 128,-1,50
 1339 696 1339 696 1470 696 c 0,51,52
 1532 696 1532 696 1579 685 c 128,-1,53
 1626 674 1626 674 1655 659 c 1,54,-1
 1655 500 l 1,55,56
 1626 516 1626 516 1577 526.5 c 128,-1,57
 1528 537 1528 537 1483 537 c 0,58,59
 1452 537 1452 537 1429.5 527.5 c 128,-1,60
 1407 518 1407 518 1407 487 c 0,61,62
 1407 461 1407 461 1427.5 450.5 c 128,-1,63
 1448 440 1448 440 1499 424 c 0,64,65
 1622 387 1622 387 1660 329.5 c 128,-1,66
 1698 272 1698 272 1698 199 c 0,29,30
EndSplineSet
Validated: 1
EndChar

StartChar: pesoph
Encoding: 422 -1 334
Width: 1374
GlyphClass: 1
Flags: W
LayerCount: 2
Fore
SplineSet
1188 877 m 2,0,1
 1188 713 1188 713 1080.5 621.5 c 128,-1,2
 973 530 973 530 733 530 c 2,3,-1
 487 530 l 1,4,-1
 487 0 l 1,5,-1
 147 0 l 1,6,-1
 147 1509 l 1,7,-1
 754 1509 l 2,8,9
 973 1509 973 1509 1080.5 1417 c 128,-1,10
 1188 1325 1188 1325 1188 1159 c 2,11,-1
 1188 877 l 2,0,1
870 895 m 2,12,-1
 870 1122 l 2,13,14
 870 1208 870 1208 822 1249 c 128,-1,15
 774 1290 774 1290 664 1290 c 2,16,-1
 487 1290 l 1,17,-1
 487 737 l 1,18,-1
 682 737 l 2,19,20
 762 737 762 737 816 778 c 128,-1,21
 870 819 870 819 870 895 c 2,12,-1
1307 924 m 1,22,-1
 94 924 l 1,23,-1
 94 1100 l 1,24,-1
 1307 1100 l 1,25,-1
 1307 924 l 1,22,-1
EndSplineSet
Validated: 5
EndChar

StartChar: rupiah
Encoding: 405 63197 335
Width: 2183
GlyphClass: 1
Flags: W
LayerCount: 2
Fore
SplineSet
1118 0 m 1,0,-1
 782 0 l 1,1,2
 778 365 778 365 723 521.5 c 128,-1,3
 668 678 668 678 526 678 c 2,4,-1
 487 678 l 1,5,-1
 487 0 l 1,6,-1
 147 0 l 1,7,-1
 147 1509 l 1,8,-1
 700 1509 l 2,9,10
 868 1509 868 1509 972.5 1422 c 128,-1,11
 1077 1335 1077 1335 1077 1184 c 2,12,-1
 1077 1102 l 2,13,14
 1077 973 1077 973 998.5 895 c 128,-1,15
 920 817 920 817 762 803 c 1,16,17
 940 750 940 750 1029 567.5 c 128,-1,18
 1118 385 1118 385 1118 0 c 1,0,-1
768 1071 m 2,19,-1
 768 1112 l 2,20,21
 768 1210 768 1210 726 1252 c 128,-1,22
 684 1294 684 1294 582 1294 c 2,23,-1
 487 1294 l 1,24,-1
 487 895 l 1,25,-1
 563 895 l 2,26,27
 684 895 684 895 726 939 c 128,-1,28
 768 983 768 983 768 1071 c 2,19,-1
2142 434 m 2,29,30
 2142 207 2142 207 2018 96.5 c 128,-1,31
 1894 -14 1894 -14 1722 -14 c 0,32,33
 1663 -14 1663 -14 1592.5 2 c 128,-1,34
 1522 18 1522 18 1473 61 c 1,35,-1
 1473 -342 l 1,36,-1
 1174 -342 l 1,37,-1
 1174 926 l 1,38,-1
 1460 926 l 1,39,-1
 1468 813 l 1,40,41
 1513 874 1513 874 1575.5 911 c 128,-1,42
 1638 948 1638 948 1753 948 c 0,43,44
 1939 948 1939 948 2040.5 824 c 128,-1,45
 2142 700 2142 700 2142 526 c 2,46,-1
 2142 434 l 2,29,30
1812 446 m 2,47,-1
 1812 481 l 2,48,49
 1812 608 1812 608 1766 665.5 c 128,-1,50
 1720 723 1720 723 1626 723 c 0,51,52
 1559 723 1559 723 1529 696.5 c 128,-1,53
 1499 670 1499 670 1473 625 c 1,54,-1
 1473 248 l 1,55,56
 1489 221 1489 221 1526 198.5 c 128,-1,57
 1563 176 1563 176 1606 176 c 0,58,59
 1704 176 1704 176 1758 233.5 c 128,-1,60
 1812 291 1812 291 1812 446 c 2,47,-1
EndSplineSet
Validated: 1
EndChar

StartChar: blank
Encoding: 423 -1 336
Width: 1364
GlyphClass: 1
Flags: W
LayerCount: 2
Fore
SplineSet
1206 -350 m 1,0,-1
 162 -350 l 1,1,-1
 162 0 l 1,2,-1
 352 0 l 1,3,-1
 352 -162 l 1,4,-1
 1014 -162 l 1,5,-1
 1014 0 l 1,6,-1
 1206 0 l 1,7,-1
 1206 -350 l 1,0,-1
EndSplineSet
Validated: 1
EndChar

StartChar: pageup
Encoding: 377 8670 337
Width: 1536
GlyphClass: 1
Flags: W
LayerCount: 2
Fore
SplineSet
1259 1043 m 1,0,-1
 904 1043 l 1,1,-1
 904 822 l 1,2,-1
 1199 822 l 1,3,-1
 1199 614 l 1,4,-1
 904 614 l 1,5,-1
 904 442 l 1,6,-1
 1199 442 l 1,7,-1
 1199 234 l 1,8,-1
 904 234 l 1,9,-1
 904 -171 l 1,10,-1
 636 -171 l 1,11,-1
 636 234 l 1,12,-1
 341 234 l 1,13,-1
 341 442 l 1,14,-1
 636 442 l 1,15,-1
 636 614 l 1,16,-1
 341 614 l 1,17,-1
 341 822 l 1,18,-1
 636 822 l 1,19,-1
 636 1043 l 1,20,-1
 281 1043 l 1,21,-1
 770 1536 l 1,22,-1
 1259 1043 l 1,0,-1
EndSplineSet
Validated: 1
EndChar

StartChar: capslock
Encoding: 385 8682 338
Width: 2388
GlyphClass: 1
Flags: W
LayerCount: 2
Fore
SplineSet
2220 512 m 1,0,-1
 1708 512 l 1,1,-1
 1708 172 l 1,2,-1
 684 172 l 1,3,-1
 684 512 l 1,4,-1
 172 512 l 1,5,-1
 1196 1536 l 1,6,-1
 2220 512 l 1,0,-1
1806 684 m 1,7,-1
 1196 1294 l 1,8,-1
 584 683 l 1,9,-1
 852 684 l 1,10,-1
 852 340 l 1,11,-1
 1536 340 l 1,12,-1
 1536 684 l 1,13,-1
 1806 684 l 1,7,-1
1708 -512 m 1,14,-1
 684 -512 l 1,15,-1
 684 0 l 1,16,-1
 1708 0 l 1,17,-1
 1708 -512 l 1,14,-1
1536 -340 m 1,18,-1
 1536 -172 l 1,19,-1
 852 -172 l 1,20,-1
 852 -340 l 1,21,-1
 1536 -340 l 1,18,-1
EndSplineSet
Validated: 1
EndChar

StartChar: arrowupwhite
Encoding: 2 5 339
Width: 2188
GlyphClass: 1
Flags: W
LayerCount: 2
Fore
SplineSet
2118 512 m 1,0,-1
 1606 512 l 1,1,-1
 1606 0 l 1,2,-1
 582 0 l 1,3,-1
 582 512 l 1,4,-1
 70 512 l 1,5,-1
 1094 1536 l 1,6,-1
 2118 512 l 1,0,-1
1704 684 m 1,7,-1
 1094 1294 l 1,8,-1
 482 683 l 1,9,-1
 750 684 l 1,10,-1
 750 172 l 1,11,-1
 1434 172 l 1,12,-1
 1434 684 l 1,13,-1
 1704 684 l 1,7,-1
EndSplineSet
Validated: 1
EndChar

StartChar: propellor
Encoding: 12 17 340
Width: 1876
GlyphClass: 1
Flags: W
LayerCount: 2
Fore
SplineSet
1708 340 m 0,0,1
 1708 203 1708 203 1607.5 101.5 c 128,-1,2
 1507 0 1507 0 1366 0 c 0,3,4
 1227 0 1227 0 1125.5 100.5 c 128,-1,5
 1024 201 1024 201 1024 340 c 2,6,-1
 1024 512 l 1,7,-1
 854 512 l 1,8,-1
 854 340 l 2,9,10
 854 203 854 203 753.5 101.5 c 128,-1,11
 653 0 653 0 512 0 c 0,12,13
 373 0 373 0 272.5 100.5 c 128,-1,14
 172 201 172 201 172 340 c 0,15,16
 172 483 172 483 272.5 583.5 c 128,-1,17
 373 684 373 684 512 684 c 2,18,-1
 684 684 l 1,19,-1
 684 852 l 1,20,-1
 512 852 l 2,21,22
 371 852 371 852 271.5 954.5 c 128,-1,23
 172 1057 172 1057 172 1194 c 0,24,25
 172 1335 172 1335 272.5 1435.5 c 128,-1,26
 373 1536 373 1536 512 1536 c 256,27,28
 651 1536 651 1536 752.5 1435.5 c 128,-1,29
 854 1335 854 1335 854 1196 c 2,30,-1
 854 1024 l 1,31,-1
 1024 1024 l 1,32,-1
 1024 1196 l 2,33,34
 1024 1335 1024 1335 1125.5 1435.5 c 128,-1,35
 1227 1536 1227 1536 1364 1536 c 0,36,37
 1505 1536 1505 1536 1606.5 1435.5 c 128,-1,38
 1708 1335 1708 1335 1708 1196 c 256,39,40
 1708 1057 1708 1057 1607.5 954.5 c 128,-1,41
 1507 852 1507 852 1364 852 c 2,42,-1
 1196 852 l 1,43,-1
 1196 684 l 1,44,-1
 1366 684 l 2,45,46
 1505 684 1505 684 1606.5 582.5 c 128,-1,47
 1708 481 1708 481 1708 340 c 0,0,1
1536 1196 m 256,48,49
 1536 1266 1536 1266 1486 1315 c 128,-1,50
 1436 1364 1436 1364 1366 1364 c 256,51,52
 1296 1364 1296 1364 1246 1315 c 128,-1,53
 1196 1266 1196 1266 1196 1196 c 2,54,-1
 1196 1024 l 1,55,-1
 1366 1024 l 2,56,57
 1438 1024 1438 1024 1487 1075 c 128,-1,58
 1536 1126 1536 1126 1536 1196 c 256,48,49
684 1024 m 1,59,-1
 684 1196 l 2,60,61
 684 1266 684 1266 633 1315 c 128,-1,62
 582 1364 582 1364 512 1364 c 256,63,64
 442 1364 442 1364 392 1315 c 128,-1,65
 342 1266 342 1266 342 1196 c 0,66,67
 342 1124 342 1124 392 1074 c 128,-1,68
 442 1024 442 1024 512 1024 c 2,69,-1
 684 1024 l 1,59,-1
1024 684 m 1,70,-1
 1024 852 l 1,71,-1
 854 852 l 1,72,-1
 854 684 l 1,73,-1
 1024 684 l 1,70,-1
1536 340 m 0,74,75
 1536 412 1536 412 1486 462 c 128,-1,76
 1436 512 1436 512 1366 512 c 2,77,-1
 1196 512 l 1,78,-1
 1196 340 l 2,79,80
 1196 270 1196 270 1246 221 c 128,-1,81
 1296 172 1296 172 1366 172 c 256,82,83
 1436 172 1436 172 1486 222 c 128,-1,84
 1536 272 1536 272 1536 340 c 0,74,75
684 340 m 2,85,-1
 684 512 l 1,86,-1
 512 512 l 2,87,88
 440 512 440 512 391 461 c 128,-1,89
 342 410 342 410 342 340 c 256,90,91
 342 270 342 270 392 221 c 128,-1,92
 442 172 442 172 512 172 c 256,93,94
 582 172 582 172 633 221 c 128,-1,95
 684 270 684 270 684 340 c 2,85,-1
EndSplineSet
Validated: 1
EndChar

StartChar: clear
Encoding: 21 28 341
Width: 2220
GlyphClass: 1
Flags: W
LayerCount: 2
Fore
SplineSet
2048 0 m 1,0,-1
 1694 0 l 1,1,-1
 1851 -252 l 1,2,-1
 1708 -340 l 1,3,-1
 1493 0 l 1,4,-1
 727 0 l 1,5,-1
 512 -340 l 1,6,-1
 367 -252 l 1,7,-1
 524 0 l 1,8,-1
 172 0 l 1,9,-1
 172 1536 l 1,10,-1
 524 1536 l 1,11,-1
 367 1788 l 1,12,-1
 512 1876 l 1,13,-1
 727 1536 l 1,14,-1
 1493 1536 l 1,15,-1
 1708 1876 l 1,16,-1
 1851 1788 l 1,17,-1
 1694 1536 l 1,18,-1
 2048 1536 l 1,19,-1
 2048 0 l 1,0,-1
1384 1364 m 1,20,-1
 834 1364 l 1,21,-1
 1110 928 l 1,22,-1
 1384 1364 l 1,20,-1
1878 172 m 1,23,-1
 1878 1364 l 1,24,-1
 1587 1364 l 1,25,-1
 1210 768 l 1,26,-1
 1587 172 l 1,27,-1
 1878 172 l 1,23,-1
1010 768 m 1,28,-1
 633 1364 l 1,29,-1
 342 1364 l 1,30,-1
 342 172 l 1,31,-1
 633 172 l 1,32,-1
 1010 768 l 1,28,-1
1384 172 m 1,33,-1
 1110 608 l 1,34,-1
 834 172 l 1,35,-1
 1384 172 l 1,33,-1
EndSplineSet
Validated: 1
EndChar

StartChar: arrowleft
Encoding: 371 8592 342
Width: 2048
GlyphClass: 1
Flags: W
LayerCount: 2
Fore
SplineSet
1880 624 m 1,0,-1
 668 624 l 1,1,-1
 668 270 l 1,2,-1
 172 768 l 1,3,-1
 668 1266 l 1,4,-1
 668 912 l 1,5,-1
 1880 912 l 1,6,-1
 1880 624 l 1,0,-1
EndSplineSet
Validated: 1
EndChar

StartChar: enter
Encoding: 424 -1 344
Width: 2220
GlyphClass: 1
Flags: W
LayerCount: 2
Fore
SplineSet
2048 1234 m 1,0,-1
 172 1234 l 1,1,-1
 172 1506 l 1,2,-1
 2048 1506 l 1,3,-1
 2048 1234 l 1,0,-1
1922 424 m 1,4,-1
 1725 227 l 1,5,-1
 1110 844 l 1,6,-1
 495 227 l 1,7,-1
 296 424 l 1,8,-1
 1110 1234 l 1,9,-1
 1922 424 l 1,4,-1
EndSplineSet
Validated: 5
EndChar

StartChar: arrowupleft
Encoding: 375 8624 345
Width: 1876
GlyphClass: 1
Flags: W
LayerCount: 2
Fore
SplineSet
1681 207 m 1,0,-1
 1473 -1 l 1,1,-1
 420 1050 l 1,2,-1
 172 802 l 1,3,-1
 172 1506 l 1,4,-1
 876 1506 l 1,5,-1
 628 1258 l 1,6,-1
 1681 207 l 1,0,-1
EndSplineSet
Validated: 1
EndChar

StartChar: arrowtableft
Encoding: 1 3 346
AltUni2: 0021e4.ffffffff.0 0021e4.ffffffff.0
Width: 2048
GlyphClass: 1
Flags: W
LayerCount: 2
Fore
SplineSet
1956 624 m 1,0,-1
 1002 624 l 1,1,-1
 1002 270 l 1,2,-1
 506 768 l 1,3,-1
 1002 1266 l 1,4,-1
 1002 912 l 1,5,-1
 1956 912 l 1,6,-1
 1956 624 l 1,0,-1
451 172 m 1,7,-1
 171 172 l 1,8,-1
 171 1364 l 1,9,-1
 451 1364 l 1,10,-1
 451 172 l 1,7,-1
EndSplineSet
Validated: 1
EndChar

StartChar: arrowtabright
Encoding: 0 2 347
AltUni2: 0021e5.ffffffff.0 0021e5.ffffffff.0
Width: 2048
GlyphClass: 1
Flags: W
LayerCount: 2
Fore
SplineSet
92 624 m 1,0,-1
 92 912 l 1,1,-1
 1046 912 l 1,2,-1
 1046 1266 l 1,3,-1
 1542 768 l 1,4,-1
 1046 270 l 1,5,-1
 1046 624 l 1,6,-1
 92 624 l 1,0,-1
1597 172 m 1,7,-1
 1597 1364 l 1,8,-1
 1877 1364 l 1,9,-1
 1877 172 l 1,10,-1
 1597 172 l 1,7,-1
EndSplineSet
Validated: 1
EndChar

StartChar: help
Encoding: 425 -1 348
Width: 1734
GlyphClass: 1
Flags: W
LayerCount: 2
Fore
SplineSet
1717 765 m 256,0,1
 1717 415 1717 415 1469.5 167.5 c 128,-1,2
 1222 -80 1222 -80 872 -80 c 256,3,4
 522 -80 522 -80 274.5 167.5 c 128,-1,5
 27 415 27 415 27 765 c 256,6,7
 27 1115 27 1115 274.5 1362.5 c 128,-1,8
 522 1610 522 1610 872 1610 c 256,9,10
 1222 1610 1222 1610 1469.5 1362.5 c 128,-1,11
 1717 1115 1717 1115 1717 765 c 256,0,1
1505 765 m 0,12,13
 1505 1030 1505 1030 1319 1217 c 128,-1,14
 1133 1404 1133 1404 872 1404 c 0,15,16
 603 1404 603 1404 421 1219 c 128,-1,17
 239 1034 239 1034 239 765 c 0,18,19
 239 497 239 497 421 312 c 128,-1,20
 603 127 603 127 872 127 c 0,21,22
 1149 127 1149 127 1327 310.5 c 128,-1,23
 1505 494 1505 494 1505 765 c 0,12,13
1160 982 m 0,24,25
 1160 894 1160 894 1059 824.5 c 128,-1,26
 958 755 958 755 958 704 c 0,27,28
 958 647 958 647 958 624 c 128,-1,29
 958 601 958 601 958 601 c 1,30,-1
 766 601 l 1,31,32
 766 601 766 601 767 629 c 128,-1,33
 768 657 768 657 768 710 c 0,34,35
 768 771 768 771 857 841.5 c 128,-1,36
 946 912 946 912 946 967 c 0,37,38
 946 1025 946 1025 918 1038.5 c 128,-1,39
 890 1052 890 1052 847 1052 c 0,40,41
 778 1052 778 1052 704.5 1013 c 128,-1,42
 631 974 631 974 587 930 c 1,43,-1
 587 1106 l 1,44,45
 631 1148 631 1148 702.5 1183.5 c 128,-1,46
 774 1219 774 1219 868 1219 c 0,47,48
 989 1219 989 1219 1074.5 1157 c 128,-1,49
 1160 1095 1160 1095 1160 982 c 0,24,25
982 304 m 1,50,-1
 774 304 l 1,51,-1
 774 497 l 1,52,-1
 982 497 l 1,53,-1
 982 304 l 1,50,-1
EndSplineSet
Validated: 1
EndChar

StartChar: arrowup
Encoding: 372 8593 349
Width: 1536
GlyphClass: 1
Flags: W
LayerCount: 2
Fore
SplineSet
1266 1040 m 1,0,-1
 912 1040 l 1,1,-1
 912 -171 l 1,2,-1
 624 -171 l 1,3,-1
 624 1040 l 1,4,-1
 270 1040 l 1,5,-1
 768 1536 l 1,6,-1
 1266 1040 l 1,0,-1
EndSplineSet
Validated: 1
EndChar

StartChar: arrowdownright
Encoding: 376 8627 350
Width: 1876
GlyphClass: 1
Flags: W
LayerCount: 2
Fore
SplineSet
1710 0 m 1,0,-1
 1006 0 l 1,1,-1
 1254 248 l 1,2,-1
 201 1299 l 1,3,-1
 409 1507 l 1,4,-1
 1462 456 l 1,5,-1
 1710 704 l 1,6,-1
 1710 0 l 1,0,-1
EndSplineSet
Validated: 1
EndChar

StartChar: arrowdown
Encoding: 374 8595 351
Width: 1536
GlyphClass: 1
Flags: W
LayerCount: 2
Fore
SplineSet
1267 323 m 1,0,-1
 769 -173 l 1,1,-1
 271 323 l 1,2,-1
 625 323 l 1,3,-1
 625 1534 l 1,4,-1
 913 1534 l 1,5,-1
 913 323 l 1,6,-1
 1267 323 l 1,0,-1
EndSplineSet
Validated: 1
EndChar

StartChar: control
Encoding: 3 6 352
Width: 1558
GlyphClass: 1
Flags: W
LayerCount: 2
Fore
SplineSet
1456 852 m 1,0,-1
 1238 634 l 1,1,-1
 772 1100 l 1,2,-1
 306 634 l 1,3,-1
 88 852 l 1,4,-1
 772 1536 l 1,5,-1
 1456 852 l 1,0,-1
EndSplineSet
Validated: 1
EndChar

StartChar: deleteleft
Encoding: 16 23 353
Width: 2644
GlyphClass: 1
Flags: W
LayerCount: 2
Fore
SplineSet
2476 0 m 1,0,-1
 940 0 l 1,1,-1
 172 768 l 1,2,-1
 940 1536 l 1,3,-1
 2476 1536 l 1,4,-1
 2476 0 l 1,0,-1
2304 167 m 1,5,-1
 2304 1369 l 1,6,-1
 1024 1369 l 1,7,-1
 423 768 l 1,8,-1
 1024 167 l 1,9,-1
 2304 167 l 1,5,-1
2019 406 m 1,10,-1
 1898 285 l 1,11,-1
 1536 647 l 1,12,-1
 1176 285 l 1,13,-1
 1055 406 l 1,14,-1
 1415 768 l 1,15,-1
 1055 1130 l 1,16,-1
 1176 1251 l 1,17,-1
 1536 889 l 1,18,-1
 1898 1251 l 1,19,-1
 2019 1130 l 1,20,-1
 1657 768 l 1,21,-1
 2019 406 l 1,10,-1
EndSplineSet
Validated: 1
EndChar

StartChar: deleteright
Encoding: 7 10 354
Width: 2644
GlyphClass: 1
Flags: W
LayerCount: 2
Fore
SplineSet
172 0 m 1,0,-1
 172 1536 l 1,1,-1
 1708 1536 l 1,2,-1
 2476 768 l 1,3,-1
 1708 0 l 1,4,-1
 172 0 l 1,0,-1
344 167 m 1,5,-1
 1624 167 l 1,6,-1
 2225 768 l 1,7,-1
 1624 1369 l 1,8,-1
 344 1369 l 1,9,-1
 344 167 l 1,5,-1
629 406 m 1,10,-1
 991 768 l 1,11,-1
 629 1130 l 1,12,-1
 750 1251 l 1,13,-1
 1112 889 l 1,14,-1
 1472 1251 l 1,15,-1
 1593 1130 l 1,16,-1
 1233 768 l 1,17,-1
 1593 406 l 1,18,-1
 1472 285 l 1,19,-1
 1112 647 l 1,20,-1
 750 285 l 1,21,-1
 629 406 l 1,10,-1
EndSplineSet
Validated: 1
EndChar

StartChar: option
Encoding: 4 7 355
Width: 2328
GlyphClass: 1
Flags: W
LayerCount: 2
Fore
SplineSet
2188 1204 m 1,0,-1
 1334 1204 l 1,1,-1
 1334 1476 l 1,2,-1
 2188 1476 l 1,3,-1
 2188 1204 l 1,0,-1
2188 0 m 1,4,-1
 1375 0 l 1,5,-1
 695 1204 l 1,6,-1
 140 1204 l 1,7,-1
 140 1476 l 1,8,-1
 845 1476 l 1,9,-1
 1525 272 l 1,10,-1
 2188 272 l 1,11,-1
 2188 0 l 1,4,-1
EndSplineSet
Validated: 1
EndChar

StartChar: escape
Encoding: 20 27 356
AltUni2: 00241b.ffffffff.0 00241b.ffffffff.0
Width: 1876
GlyphClass: 1
Flags: W
LayerCount: 2
Fore
SplineSet
1029 857 m 1,0,-1
 849 677 l 1,1,-1
 382 1144 l 1,2,-1
 172 932 l 1,3,-1
 172 1536 l 1,4,-1
 774 1536 l 1,5,-1
 562 1324 l 1,6,-1
 1029 857 l 1,0,-1
1708 768 m 0,7,8
 1708 453 1708 453 1485.5 226.5 c 128,-1,9
 1263 0 1263 0 940 0 c 0,10,11
 637 0 637 0 414 203.5 c 128,-1,12
 191 407 191 407 172 768 c 1,13,-1
 402 768 l 1,14,15
 415 512 415 512 574 371 c 128,-1,16
 733 230 733 230 940 230 c 0,17,18
 1153 230 1153 230 1314.5 379.5 c 128,-1,19
 1476 529 1476 529 1476 768 c 0,20,21
 1476 979 1476 979 1333 1135.5 c 128,-1,22
 1190 1292 1190 1292 940 1305 c 1,23,-1
 940 1536 l 1,24,25
 1300 1526 1300 1526 1504 1288 c 128,-1,26
 1708 1050 1708 1050 1708 768 c 0,7,8
EndSplineSet
Validated: 1
EndChar

StartChar: glyph357
Encoding: 426 -1 357
Width: 2220
GlyphClass: 1
Flags: W
LayerCount: 2
Fore
SplineSet
2147 1416 m 1,0,-1
 1343 382 l 1,1,-1
 628 382 l 1,2,-1
 628 22 l 1,3,-1
 132 516 l 1,4,-1
 628 1014 l 1,5,-1
 628 654 l 1,6,-1
 1229 654 l 1,7,-1
 1604 1152 l 1,8,-1
 1062 1152 l 1,9,-1
 1062 1416 l 1,10,-1
 2147 1416 l 1,0,-1
EndSplineSet
Validated: 1
EndChar

StartChar: glyph358
Encoding: 427 -1 358
Width: 2220
GlyphClass: 1
Flags: W
LayerCount: 2
Fore
SplineSet
99 1416 m 1,0,-1
 1184 1416 l 1,1,-1
 1184 1152 l 1,2,-1
 642 1152 l 1,3,-1
 1017 654 l 1,4,-1
 1618 654 l 1,5,-1
 1618 1014 l 1,6,-1
 2114 516 l 1,7,-1
 1618 22 l 1,8,-1
 1618 382 l 1,9,-1
 903 382 l 1,10,-1
 99 1416 l 1,0,-1
EndSplineSet
Validated: 1
EndChar

StartChar: apple
Encoding: 15 20 359
Width: 1810
GlyphClass: 1
Flags: W
LayerCount: 2
Fore
SplineSet
1217 1642 m 0,0,1
 1217 1579 1217 1579 1187 1503 c 128,-1,2
 1157 1427 1157 1427 1092 1362 c 0,3,4
 1065 1335 1065 1335 1037.5 1316.5 c 128,-1,5
 1010 1298 1010 1298 981 1288 c 0,6,7
 965 1282 965 1282 938 1278 c 128,-1,8
 911 1274 911 1274 874 1272 c 1,9,10
 877 1423 877 1423 954.5 1535 c 128,-1,11
 1032 1647 1032 1647 1210 1688 c 1,12,13
 1214 1673 1214 1673 1215.5 1664 c 128,-1,14
 1217 1655 1217 1655 1217 1642 c 0,0,1
1604 440 m 1,15,16
 1585 379 1585 379 1552.5 314.5 c 128,-1,17
 1520 250 1520 250 1477 184 c 0,18,19
 1411 82 1411 82 1344.5 33 c 128,-1,20
 1278 -16 1278 -16 1212 -16 c 0,21,22
 1161 -16 1161 -16 1070 16.5 c 128,-1,23
 979 49 979 49 915 49 c 0,24,25
 852 49 852 49 769 14.5 c 128,-1,26
 686 -20 686 -20 633 -20 c 0,27,28
 555 -20 555 -20 478 46.5 c 128,-1,29
 401 113 401 113 326 246 c 0,30,31
 250 377 250 377 212 506 c 128,-1,32
 174 635 174 635 174 762 c 0,33,34
 174 997 174 997 290 1144.5 c 128,-1,35
 406 1292 406 1292 582 1292 c 0,36,37
 657 1292 657 1292 762.5 1261.5 c 128,-1,38
 868 1231 868 1231 905 1231 c 0,39,40
 950 1231 950 1231 1051.5 1265.5 c 128,-1,41
 1153 1300 1153 1300 1229 1300 c 0,42,43
 1290 1300 1290 1300 1344.5 1284 c 128,-1,44
 1399 1268 1399 1268 1446 1235 c 0,45,46
 1470 1217 1470 1217 1499 1190 c 128,-1,47
 1528 1163 1528 1163 1554 1130 c 1,48,49
 1513 1098 1513 1098 1484.5 1066 c 128,-1,50
 1456 1034 1456 1034 1438 1010 c 0,51,52
 1405 963 1405 963 1387.5 909.5 c 128,-1,53
 1370 856 1370 856 1370 799 c 0,54,55
 1370 672 1370 672 1441.5 569.5 c 128,-1,56
 1513 467 1513 467 1604 440 c 1,15,16
EndSplineSet
Validated: 1
EndChar

StartChar: glyph360
Encoding: 428 -1 360
Width: 1708
GlyphClass: 1
Flags: W
LayerCount: 2
Fore
SplineSet
1586 -50 m 1,0,-1
 122 -50 l 1,1,-1
 122 1586 l 1,2,-1
 1110 1586 l 1,3,-1
 1586 1108 l 1,4,-1
 1586 -50 l 1,0,-1
1300 1108 m 1,5,-1
 1024 1384 l 1,6,-1
 1024 1108 l 1,7,-1
 1300 1108 l 1,5,-1
1366 170 m 1,8,-1
 1366 915 l 1,9,-1
 819 915 l 1,10,-1
 819 1364 l 1,11,-1
 342 1364 l 1,12,-1
 342 170 l 1,13,-1
 1366 170 l 1,8,-1
1216 599 m 1,14,-1
 854 239 l 1,15,-1
 492 599 l 1,16,-1
 664 599 l 1,17,-1
 664 771 l 1,18,-1
 1044 771 l 1,19,-1
 1044 599 l 1,20,-1
 1216 599 l 1,14,-1
EndSplineSet
Validated: 1
EndChar

StartChar: checkmark
Encoding: 13 18 362
Width: 1886
GlyphClass: 1
Flags: W
LayerCount: 2
Fore
SplineSet
1792 1196 m 1,0,-1
 596 0 l 1,1,-1
 84 512 l 1,2,-1
 279 707 l 1,3,-1
 596 394 l 1,4,-1
 1596 1389 l 1,5,-1
 1792 1196 l 1,0,-1
EndSplineSet
Validated: 1
EndChar

StartChar: glyph363
Encoding: 429 -1 363
Width: 2220
GlyphClass: 1
Flags: W
LayerCount: 2
Fore
SplineSet
1115 1214 m 1,0,-1
 91 1214 l 1,1,-1
 91 1476 l 1,2,-1
 1115 1476 l 1,3,-1
 1115 1214 l 1,0,-1
2050 385 m 1,4,-1
 1119 385 l 1,5,-1
 1119 26 l 1,6,-1
 632 516 l 1,7,-1
 1119 1006 l 1,8,-1
 1119 647 l 1,9,-1
 1800 647 l 1,10,-1
 1800 1214 l 1,11,-1
 1456 1214 l 1,12,-1
 1456 1476 l 1,13,-1
 2050 1476 l 1,14,-1
 2050 385 l 1,4,-1
517 385 m 1,15,-1
 91 385 l 1,16,-1
 91 647 l 1,17,-1
 517 647 l 1,18,-1
 517 385 l 1,15,-1
EndSplineSet
Validated: 1
EndChar

StartChar: glyph365
Encoding: 431 -1 365
Width: 1364
GlyphClass: 1
Flags: W
LayerCount: 2
Fore
SplineSet
1366 -241 m 1,0,-1
 1196 -241 l 1,1,-1
 1196 -485 l 1,2,-1
 172 -485 l 1,3,-1
 172 -241 l 1,4,-1
 0 -241 l 1,5,-1
 0 0 l 1,6,-1
 398 0 l 1,7,-1
 398 -241 l 1,8,-1
 970 -241 l 1,9,-1
 970 0 l 1,10,-1
 1366 0 l 1,11,-1
 1366 -241 l 1,0,-1
EndSplineSet
Validated: 1
EndChar

StartChar: blackdiamond
Encoding: 14 19 366
Width: 1536
GlyphClass: 1
Flags: W
LayerCount: 2
Fore
SplineSet
1366 596 m 1,0,-1
 768 0 l 1,1,-1
 172 596 l 1,2,-1
 768 1196 l 1,3,-1
 1366 596 l 1,0,-1
EndSplineSet
Validated: 1
EndChar

StartChar: uniE12E
Encoding: 432 57646 367
Width: 1836
GlyphClass: 1
Flags: W
LayerCount: 2
Fore
SplineSet
1250.87011719 1690.28027344 m 1,0,1
 1264.63964844 1529.89941406 1264.63964844 1529.89941406 1155.29003906 1399.48925781 c 128,-1,2
 1045.93945312 1269.08007812 1045.93945312 1269.08007812 894.469726562 1275.56054688 c 1,3,4
 883.129882812 1428.64941406 883.129882812 1428.64941406 986 1548.53027344 c 128,-1,5
 1088.87011719 1668.41015625 1088.87011719 1668.41015625 1250.87011719 1690.28027344 c 1,0,1
1642.09960938 435.58984375 m 1,6,7
 1574.87011719 250.91015625 1574.87011719 250.91015625 1456.20507812 113.614257812 c 128,-1,8
 1337.54003906 -23.6806640625 1337.54003906 -23.6806640625 1237.09960938 -23.6806640625 c 0,9,10
 1187.68945312 -23.6806640625 1187.68945312 -23.6806640625 1091.70507812 13.1748046875 c 128,-1,11
 995.719726562 50.0302734375 995.719726562 50.0302734375 936.58984375 50.0302734375 c 0,12,13
 878.26953125 50.0302734375 878.26953125 50.0302734375 782.28515625 13.1748046875 c 128,-1,14
 686.299804688 -23.6806640625 686.299804688 -23.6806640625 636.889648438 -23.6806640625 c 0,15,16
 488.66015625 -23.6806640625 488.66015625 -23.6806640625 328.280273438 235.51953125 c 128,-1,17
 167.900390625 494.719726562 167.900390625 494.719726562 167.900390625 781.459960938 c 0,18,19
 167.900390625 1000.96972656 167.900390625 1000.96972656 295.474609375 1149.20019531 c 128,-1,20
 423.049804688 1297.4296875 423.049804688 1297.4296875 624.739257812 1297.4296875 c 0,21,22
 718.700195312 1297.4296875 718.700195312 1297.4296875 798.485351562 1260.16992188 c 128,-1,23
 878.26953125 1222.91015625 878.26953125 1222.91015625 936.58984375 1222.91015625 c 0,24,25
 970.610351562 1222.91015625 970.610351562 1222.91015625 1065.37988281 1260.16992188 c 128,-1,26
 1160.15039062 1297.4296875 1160.15039062 1297.4296875 1249.25 1297.4296875 c 0,27,28
 1358.59960938 1297.4296875 1358.59960938 1297.4296875 1448.10546875 1251.25976562 c 128,-1,29
 1537.61035156 1205.08984375 1537.61035156 1205.08984375 1598.36035156 1124.89941406 c 1,30,31
 1496.29980469 1062.53027344 1496.29980469 1062.53027344 1450.53515625 971.810546875 c 128,-1,32
 1404.76953125 881.08984375 1404.76953125 881.08984375 1404.76953125 781.459960938 c 0,33,34
 1404.76953125 667.25 1404.76953125 667.25 1478.88574219 572.075195312 c 128,-1,35
 1553 476.899414062 1553 476.899414062 1642.09960938 435.58984375 c 1,6,7
1468.76074219 379.700195312 m 1,36,37
 1377.23046875 444.5 1377.23046875 444.5 1320.93554688 559.924804688 c 128,-1,38
 1264.63964844 675.349609375 1264.63964844 675.349609375 1264.63964844 781.459960938 c 0,39,40
 1264.63964844 900.530273438 1264.63964844 900.530273438 1300.28027344 983.5546875 c 128,-1,41
 1335.91992188 1066.58007812 1335.91992188 1066.58007812 1384.51953125 1127.33007812 c 1,42,43
 1355.36035156 1141.91015625 1355.36035156 1141.91015625 1320.53027344 1149.60546875 c 128,-1,44
 1285.70019531 1157.29980469 1285.70019531 1157.29980469 1247.62988281 1157.29980469 c 0,45,46
 1172.29980469 1157.29980469 1172.29980469 1157.29980469 1080.36425781 1120.0390625 c 128,-1,47
 988.4296875 1082.78027344 988.4296875 1082.78027344 936.58984375 1082.78027344 c 0,48,49
 856.400390625 1082.78027344 856.400390625 1082.78027344 778.639648438 1120.0390625 c 128,-1,50
 700.879882812 1157.29980469 700.879882812 1157.29980469 625.549804688 1157.29980469 c 0,51,52
 473.26953125 1157.29980469 473.26953125 1157.29980469 389.83984375 1049.1640625 c 128,-1,53
 306.41015625 941.030273438 306.41015625 941.030273438 306.41015625 781.459960938 c 0,54,55
 306.41015625 530.360351562 306.41015625 530.360351562 438.439453125 322.594726562 c 128,-1,56
 570.469726562 114.830078125 570.469726562 114.830078125 635.26953125 114.830078125 c 0,57,58
 669.290039062 114.830078125 669.290039062 114.830078125 757.174804688 151.280273438 c 128,-1,59
 845.060546875 187.73046875 845.060546875 187.73046875 936.58984375 187.73046875 c 0,60,61
 1028.9296875 187.73046875 1028.9296875 187.73046875 1116.41015625 151.280273438 c 128,-1,62
 1203.88964844 114.830078125 1203.88964844 114.830078125 1237.91015625 114.830078125 c 0,63,64
 1274.36035156 114.830078125 1274.36035156 114.830078125 1344.01953125 194.614257812 c 128,-1,65
 1413.6796875 274.399414062 1413.6796875 274.399414062 1468.76074219 379.700195312 c 1,36,37
EndSplineSet
Validated: 33
EndChar

StartChar: carriagereturn
Encoding: 8 11 368
AltUni2: 00240d.ffffffff.0 00240d.ffffffff.0
Width: 2388
GlyphClass: 1
Flags: W
LayerCount: 2
Fore
SplineSet
2182 726 m 2,0,1
 2182 587 2182 587 2081.5 481.5 c 128,-1,2
 1981 376 1981 376 1838 376 c 2,3,-1
 630 376 l 1,4,-1
 630 16 l 1,5,-1
 134 510 l 1,6,-1
 630 1008 l 1,7,-1
 630 648 l 1,8,-1
 1722 648 l 2,9,10
 1792 648 1792 648 1842 692 c 128,-1,11
 1892 736 1892 736 1892 806 c 2,12,-1
 1892 1030 l 2,13,14
 1892 1100 1892 1100 1842 1139 c 128,-1,15
 1792 1178 1792 1178 1722 1178 c 2,16,-1
 1408 1178 l 1,17,-1
 1408 1450 l 1,18,-1
 1840 1450 l 2,19,20
 1981 1450 1981 1450 2081.5 1349.5 c 128,-1,21
 2182 1249 2182 1249 2182 1110 c 2,22,-1
 2182 726 l 2,0,1
EndSplineSet
Validated: 1
EndChar

StartChar: arrowdashleft
Encoding: 17 24 369
AltUni2: 0021e0.ffffffff.0 0021e0.ffffffff.0
Width: 2048
GlyphClass: 1
Flags: W
LayerCount: 2
Fore
SplineSet
1899 624 m 1,0,-1
 1559 624 l 1,1,-1
 1559 912 l 1,2,-1
 1899 912 l 1,3,-1
 1899 624 l 1,0,-1
1387 624 m 1,4,-1
 1047 624 l 1,5,-1
 1047 912 l 1,6,-1
 1387 912 l 1,7,-1
 1387 624 l 1,4,-1
875 624 m 1,8,-1
 619 624 l 1,9,-1
 619 270 l 1,10,-1
 121 768 l 1,11,-1
 619 1266 l 1,12,-1
 619 912 l 1,13,-1
 875 912 l 1,14,-1
 875 624 l 1,8,-1
EndSplineSet
Validated: 1
EndChar

StartChar: arrowdashup
Encoding: 18 25 370
AltUni2: 0021e1.ffffffff.0 0021e1.ffffffff.0
Width: 1536
GlyphClass: 1
Flags: W
LayerCount: 2
Fore
SplineSet
1267 1168 m 1,0,-1
 913 1168 l 1,1,-1
 913 912 l 1,2,-1
 625 912 l 1,3,-1
 625 1168 l 1,4,-1
 271 1168 l 1,5,-1
 769 1666 l 1,6,-1
 1267 1168 l 1,0,-1
913 400 m 1,7,-1
 625 400 l 1,8,-1
 625 740 l 1,9,-1
 913 740 l 1,10,-1
 913 400 l 1,7,-1
913 -112 m 1,11,-1
 625 -112 l 1,12,-1
 625 228 l 1,13,-1
 913 228 l 1,14,-1
 913 -112 l 1,11,-1
EndSplineSet
Validated: 1
EndChar

StartChar: arrowdashright
Encoding: 19 26 371
AltUni2: 0021e2.ffffffff.0 0021e2.ffffffff.0
Width: 2048
GlyphClass: 1
Flags: W
LayerCount: 2
Fore
SplineSet
159 624 m 1,0,-1
 159 912 l 1,1,-1
 499 912 l 1,2,-1
 499 624 l 1,3,-1
 159 624 l 1,0,-1
671 624 m 1,4,-1
 671 912 l 1,5,-1
 1011 912 l 1,6,-1
 1011 624 l 1,7,-1
 671 624 l 1,4,-1
1183 624 m 1,8,-1
 1183 912 l 1,9,-1
 1439 912 l 1,10,-1
 1439 1266 l 1,11,-1
 1937 768 l 1,12,-1
 1439 270 l 1,13,-1
 1439 624 l 1,14,-1
 1183 624 l 1,8,-1
EndSplineSet
Validated: 1
EndChar

StartChar: arrowdashdown
Encoding: 11 16 372
AltUni2: 0021e3.ffffffff.0 0021e3.ffffffff.0
Width: 1536
GlyphClass: 1
Flags: W
LayerCount: 2
Fore
SplineSet
1267 256 m 1,0,-1
 769 -242 l 1,1,-1
 271 256 l 1,2,-1
 625 256 l 1,3,-1
 625 512 l 1,4,-1
 913 512 l 1,5,-1
 913 256 l 1,6,-1
 1267 256 l 1,0,-1
913 1024 m 1,7,-1
 913 684 l 1,8,-1
 625 684 l 1,9,-1
 625 1024 l 1,10,-1
 913 1024 l 1,7,-1
913 1536 m 1,11,-1
 913 1196 l 1,12,-1
 625 1196 l 1,13,-1
 625 1536 l 1,14,-1
 913 1536 l 1,11,-1
EndSplineSet
Validated: 1
EndChar

StartChar: glyph373
Encoding: 433 -1 373
Width: 1536
GlyphClass: 1
Flags: W
LayerCount: 2
Fore
SplineSet
1386 0 m 1,0,-1
 152 768 l 1,1,-1
 1386 1536 l 1,2,-1
 1386 0 l 1,0,-1
1196 353 m 1,3,-1
 1196 1183 l 1,4,-1
 527 768 l 1,5,-1
 1196 353 l 1,3,-1
EndSplineSet
Validated: 1
EndChar

StartChar: foursuperior
Encoding: 364 8308 374
Width: 915
GlyphClass: 1
Flags: W
LayerCount: 2
Fore
SplineSet
852 840 m 1,0,-1
 696 840 l 1,1,-1
 696 590 l 1,2,-1
 479 590 l 1,3,-1
 479 840 l 1,4,-1
 31 840 l 1,5,-1
 31 1026 l 1,6,-1
 547 1538 l 1,7,-1
 696 1538 l 1,8,-1
 696 1030 l 1,9,-1
 852 1030 l 1,10,-1
 852 840 l 1,0,-1
479 1030 m 1,11,-1
 479 1268 l 1,12,-1
 238 1030 l 1,13,-1
 479 1030 l 1,11,-1
EndSplineSet
Validated: 1
EndChar

StartChar: glyph375
Encoding: 434 -1 375
Width: 730
GlyphClass: 1
Flags: W
LayerCount: 2
Fore
SplineSet
721 823 m 1,0,-1
 4 401 l 1,1,-1
 4 602 l 1,2,-1
 721 1026 l 1,3,-1
 721 823 l 1,0,-1
EndSplineSet
Validated: 1
EndChar

StartChar: glyph376
Encoding: 435 -1 376
Width: 631
GlyphClass: 1
Flags: W
LayerCount: 2
Fore
SplineSet
635 805 m 1,0,-1
 29 346 l 1,1,-1
 29 526 l 1,2,-1
 635 987 l 1,3,-1
 635 805 l 1,0,-1
EndSplineSet
Validated: 1
EndChar

StartChar: glyph377
Encoding: 436 -1 377
Width: 735
GlyphClass: 1
Flags: W
LayerCount: 2
Fore
SplineSet
663 648 m 1,0,-1
 60 648 l 1,1,-1
 60 861 l 1,2,-1
 663 861 l 1,3,-1
 663 648 l 1,0,-1
EndSplineSet
Validated: 1
EndChar

StartChar: glyph378
Encoding: 437 -1 378
Width: 1389
GlyphClass: 1
Flags: W
LayerCount: 2
Fore
SplineSet
1341 776 m 1,0,-1
 1087 776 l 1,1,2
 1085 834 1085 834 1067 864.5 c 128,-1,3
 1049 895 1049 895 1004 895 c 0,4,5
 967 895 967 895 940 876.5 c 128,-1,6
 913 858 913 858 899 829 c 1,7,-1
 899 324 l 1,8,-1
 621 324 l 1,9,-1
 621 1126 l 1,10,-1
 887 1126 l 1,11,-1
 893 975 l 1,12,13
 930 1071 930 1071 990.5 1110 c 128,-1,14
 1051 1149 1051 1149 1147 1149 c 0,15,16
 1264 1149 1264 1149 1315 1053.5 c 128,-1,17
 1366 958 1366 958 1341 776 c 1,0,-1
EndSplineSet
Validated: 33
EndChar

StartChar: contextmenu
Encoding: 438 -1 379
Width: 1881
GlyphClass: 1
Flags: W
LayerCount: 2
Fore
SplineSet
1026 1170 m 1,0,-1
 855 1170 l 1,1,-1
 855 1476 l 1,2,-1
 1026 1476 l 1,3,-1
 1026 1170 l 1,0,-1
1546 1246 m 1,4,-1
 1304 1003 l 1,5,-1
 1183 1124 l 1,6,-1
 1426 1366 l 1,7,-1
 1546 1246 l 1,4,-1
715 1107 m 1,8,-1
 594 986 l 1,9,-1
 379 1201 l 1,10,-1
 500 1322 l 1,11,-1
 715 1107 l 1,8,-1
1710 681 m 1,12,-1
 1368 681 l 1,13,-1
 1368 852 l 1,14,-1
 1710 852 l 1,15,-1
 1710 681 l 1,12,-1
513 681 m 1,16,-1
 171 681 l 1,17,-1
 171 852 l 1,18,-1
 513 852 l 1,19,-1
 513 681 l 1,16,-1
1347 519 m 1,20,-1
 1180 450 l 1,21,-1
 1344 57 l 1,22,-1
 1186 -8 l 1,23,-1
 1023 386 l 1,24,-1
 856 317 l 1,25,-1
 855 1013 l 1,26,-1
 1347 519 l 1,20,-1
700 399 m 1,27,-1
 457 157 l 1,28,-1
 337 277 l 1,29,-1
 580 520 l 1,30,-1
 700 399 l 1,27,-1
EndSplineSet
Validated: 1
EndChar

StartChar: power
Encoding: 439 -1 380
Width: 1704
GlyphClass: 1
Flags: W
LayerCount: 2
Fore
SplineSet
1717 765 m 256,0,1
 1717 415 1717 415 1469.5 167.5 c 128,-1,2
 1222 -80 1222 -80 872 -80 c 256,3,4
 522 -80 522 -80 274.5 167.5 c 128,-1,5
 27 415 27 415 27 765 c 256,6,7
 27 1115 27 1115 274.5 1362.5 c 128,-1,8
 522 1610 522 1610 872 1610 c 256,9,10
 1222 1610 1222 1610 1469.5 1362.5 c 128,-1,11
 1717 1115 1717 1115 1717 765 c 256,0,1
1505 765 m 0,12,13
 1505 1030 1505 1030 1319 1217 c 128,-1,14
 1133 1404 1133 1404 872 1404 c 0,15,16
 603 1404 603 1404 421 1219 c 128,-1,17
 239 1034 239 1034 239 765 c 0,18,19
 239 497 239 497 421 312 c 128,-1,20
 603 127 603 127 872 127 c 0,21,22
 1149 127 1149 127 1327 310.5 c 128,-1,23
 1505 494 1505 494 1505 765 c 0,12,13
992 358 m 1,24,-1
 752 358 l 1,25,-1
 752 1172 l 1,26,-1
 992 1172 l 1,27,-1
 992 358 l 1,24,-1
EndSplineSet
Validated: 1
EndChar

StartChar: glyph381
Encoding: 440 -1 381
Width: 1365
GlyphClass: 1
Flags: W
LayerCount: 2
Fore
SplineSet
1341 1569 m 1,0,-1
 281 -168 l 1,1,-1
 117 -45 l 1,2,-1
 1165 1669 l 1,3,-1
 1341 1569 l 1,0,-1
EndSplineSet
Validated: 1
EndChar

StartChar: glyph382
Encoding: 441 -1 382
Width: 1360
GlyphClass: 1
Flags: W
LayerCount: 2
Fore
SplineSet
1235 1239 m 1,0,-1
 252 -135 l 1,1,-1
 141 -45 l 1,2,-1
 1126 1323 l 1,3,-1
 1235 1239 l 1,0,-1
EndSplineSet
Validated: 1
EndChar

StartChar: glyph383
Encoding: 442 -1 383
Width: 0
GlyphClass: 1
Flags: W
LayerCount: 2
Fore
SplineSet
24 2048 m 1,0,-1
 24 -512 l 1,1,-1
 24 0 l 1,2,-1
 1048 0 l 1,3,-1
 -1000 0 l 1,4,-1
 24 2048 l 1,0,-1
EndSplineSet
Validated: 5
EndChar

StartChar: carriagereturnleft
Encoding: 9 12 437
Width: 2388
GlyphClass: 1
Flags: W
LayerCount: 2
Fore
SplineSet
206 1110 m 2,0,1
 206 1249 206 1249 306.5 1349.5 c 128,-1,2
 407 1450 407 1450 550 1450 c 2,3,-1
 980 1450 l 1,4,-1
 980 1178 l 1,5,-1
 666 1178 l 2,6,7
 596 1178 596 1178 546 1139 c 128,-1,8
 496 1100 496 1100 496 1030 c 2,9,-1
 496 806 l 2,10,11
 496 736 496 736 546 692 c 128,-1,12
 596 648 596 648 666 648 c 2,13,-1
 1758 648 l 1,14,-1
 1758 1008 l 1,15,-1
 2254 510 l 1,16,-1
 1758 16 l 1,17,-1
 1758 376 l 1,18,-1
 550 376 l 2,19,20
 407 376 407 376 306.5 481.5 c 128,-1,21
 206 587 206 587 206 726 c 2,22,-1
 206 1110 l 2,0,1
EndSplineSet
Validated: 1
EndChar

StartChar: currency
Encoding: 122 164 439
Width: 1327
GlyphClass: 1
Flags: W
LayerCount: 2
Fore
SplineSet
1241 236 m 1,0,-1
 1100 94 l 1,1,-1
 874 319 l 1,2,3
 834 295 834 295 772.5 282.5 c 128,-1,4
 711 270 711 270 668 270 c 0,5,6
 623 270 623 270 562.5 282.5 c 128,-1,7
 502 295 502 295 461 319 c 1,8,-1
 236 94 l 1,9,-1
 94 236 l 1,10,-1
 319 461 l 1,11,12
 289 508 289 508 272.5 566.5 c 128,-1,13
 256 625 256 625 256 688 c 0,14,15
 256 752 256 752 272.5 810 c 128,-1,16
 289 868 289 868 319 915 c 1,17,-1
 94 1141 l 1,18,-1
 236 1282 l 1,19,-1
 461 1057 l 1,20,21
 502 1081 502 1081 562.5 1093.5 c 128,-1,22
 623 1106 623 1106 668 1106 c 0,23,24
 711 1106 711 1106 772.5 1093.5 c 128,-1,25
 834 1081 834 1081 874 1057 c 1,26,-1
 1100 1282 l 1,27,-1
 1241 1141 l 1,28,-1
 1016 915 l 1,29,30
 1047 868 1047 868 1063 804.5 c 128,-1,31
 1079 741 1079 741 1079 688 c 0,32,33
 1079 625 1079 625 1063 566.5 c 128,-1,34
 1047 508 1047 508 1016 461 c 1,35,-1
 1241 236 l 1,0,-1
838 698 m 0,36,37
 838 782 838 782 795 842.5 c 128,-1,38
 752 903 752 903 668 903 c 0,39,40
 588 903 588 903 543 842.5 c 128,-1,41
 498 782 498 782 498 698 c 256,42,43
 498 614 498 614 543 554 c 128,-1,44
 588 494 588 494 668 494 c 0,45,46
 752 494 752 494 795 550 c 128,-1,47
 838 606 838 606 838 698 c 0,36,37
EndSplineSet
Validated: 1
EndChar

StartChar: uni25B6
Encoding: 474 9654 456
Width: 1051
VWidth: 1000
Flags: W
LayerCount: 2
Fore
SplineSet
354.5 59 m 4,0,1
 294.5 -1 294.5 -1 206.900390625 -2.2001953125 c 4,2,3
 122.900390625 -2.2001953125 122.900390625 -2.2001953125 61.7001953125 59 c 132,-1,4
 0.5 120.200195312 0.5 120.200195312 0.5 207.799804688 c 6,5,-1
 0.5 1242.20019531 l 6,6,7
 0.5 1328.59960938 0.5 1328.59960938 61.7001953125 1390.40039062 c 132,-1,8
 122.900390625 1452.20019531 122.900390625 1452.20019531 206.900390625 1452.20019531 c 4,9,10
 294.5 1452.20019531 294.5 1452.20019531 354.5 1391 c 6,11,-1
 1038.5 725 l 5,12,13
 628.099609375 325.400390625 628.099609375 325.400390625 354.5 59 c 4,0,1
EndSplineSet
Validated: 1
EndChar

StartChar: F12
Encoding: 475 59916 457
Width: 2220
Flags: W
LayerCount: 2
Fore
SplineSet
1778 405 m 1,0,-1
 1264 405 l 1,1,-1
 1264 532 l 1,2,3
 1458.5 700 1458.5 700 1530.75 783 c 128,-1,4
 1603 866 1603 866 1603 932.5 c 0,5,6
 1603 982.5 1603 982.5 1579.5 1018.75 c 128,-1,7
 1556 1055 1556 1055 1505.5 1055 c 0,8,9
 1449.5 1055 1449.5 1055 1431.5 1034.25 c 128,-1,10
 1413.5 1013.5 1413.5 1013.5 1404 984.5 c 1,11,-1
 1259 984.5 l 1,12,13
 1281.5 1081 1281.5 1081 1351 1125.5 c 128,-1,14
 1420.5 1170 1420.5 1170 1529 1170 c 0,15,16
 1646 1170 1646 1170 1709 1108 c 128,-1,17
 1772 1046 1772 1046 1772 954 c 0,18,19
 1772 855.5 1772 855.5 1685.5 753.75 c 128,-1,20
 1599 652 1599 652 1404 517.5 c 1,21,-1
 1778 517.5 l 1,22,-1
 1778 405 l 1,0,-1
1214.5 404 m 1,23,-1
 1060 404 l 1,24,-1
 1060 978.5 l 1,25,-1
 954.5 978.5 l 1,26,-1
 954.5 1069.5 l 1,27,28
 1026 1075.5 1026 1075.5 1064 1108 c 128,-1,29
 1102 1140.5 1102 1140.5 1113 1158.5 c 1,30,-1
 1214.5 1158.5 l 1,31,-1
 1214.5 404 l 1,23,-1
911 1046.5 m 1,32,-1
 622 1046.5 l 1,33,-1
 622 844 l 1,34,-1
 846.5 844 l 1,35,-1
 846.5 730 l 1,36,-1
 622 730 l 1,37,-1
 622 404.5 l 1,38,-1
 452 404.5 l 1,39,-1
 452 1159 l 1,40,-1
 911 1159 l 1,41,-1
 911 1046.5 l 1,32,-1
1694 1536 m 1,42,-1
 2048 1536 l 1,43,-1
 2048 0 l 1,44,-1
 1694 0 l 1,45,-1
 1493 0 l 1,46,-1
 727 0 l 1,47,-1
 524 0 l 1,48,-1
 172 0 l 1,49,-1
 172 1536 l 1,50,-1
 524 1536 l 1,51,-1
 727 1536 l 1,52,-1
 1493 1536 l 1,53,-1
 1694 1536 l 1,42,-1
1384 1364 m 1,54,-1
 834 1364 l 1,55,-1
 633 1364 l 1,56,-1
 342 1364 l 1,57,-1
 342 172 l 1,58,-1
 633 172 l 1,59,-1
 834 172 l 1,60,-1
 1384 172 l 1,61,-1
 1587 172 l 1,62,-1
 1878 172 l 1,63,-1
 1878 1364 l 1,64,-1
 1587 1364 l 1,65,-1
 1384 1364 l 1,54,-1
EndSplineSet
Validated: 1
EndChar

StartChar: F11
Encoding: 476 59915 458
Width: 2220
Flags: W
LayerCount: 2
Fore
SplineSet
1685 404 m 5,0,-1
 1530.5 404 l 5,1,-1
 1530.5 978.5 l 5,2,-1
 1425 978.5 l 5,3,-1
 1425 1069.5 l 5,4,5
 1496.5 1075.5 1496.5 1075.5 1534.5 1108 c 132,-1,6
 1572.5 1140.5 1572.5 1140.5 1583.5 1158.5 c 5,7,-1
 1685 1158.5 l 5,8,-1
 1685 404 l 5,0,-1
1298.5 404 m 5,9,-1
 1144 404 l 5,10,-1
 1144 978.5 l 5,11,-1
 1038.5 978.5 l 5,12,-1
 1038.5 1069.5 l 5,13,14
 1110 1075.5 1110 1075.5 1148 1108 c 132,-1,15
 1186 1140.5 1186 1140.5 1197 1158.5 c 5,16,-1
 1298.5 1158.5 l 5,17,-1
 1298.5 404 l 5,9,-1
945 1046.5 m 5,18,-1
 656 1046.5 l 5,19,-1
 656 844 l 5,20,-1
 880.5 844 l 5,21,-1
 880.5 730 l 5,22,-1
 656 730 l 5,23,-1
 656 404.5 l 5,24,-1
 486 404.5 l 5,25,-1
 486 1159 l 5,26,-1
 945 1159 l 5,27,-1
 945 1046.5 l 5,18,-1
1694 1536 m 1,28,-1
 2048 1536 l 1,29,-1
 2048 0 l 1,30,-1
 1694 0 l 1,31,-1
 1493 0 l 1,32,-1
 727 0 l 1,33,-1
 524 0 l 1,34,-1
 172 0 l 1,35,-1
 172 1536 l 1,36,-1
 524 1536 l 1,37,-1
 727 1536 l 1,38,-1
 1493 1536 l 1,39,-1
 1694 1536 l 1,28,-1
1384 1364 m 1,40,-1
 834 1364 l 1,41,-1
 633 1364 l 1,42,-1
 342 1364 l 1,43,-1
 342 172 l 1,44,-1
 633 172 l 1,45,-1
 834 172 l 1,46,-1
 1384 172 l 1,47,-1
 1587 172 l 1,48,-1
 1878 172 l 1,49,-1
 1878 1364 l 1,50,-1
 1587 1364 l 1,51,-1
 1384 1364 l 1,40,-1
EndSplineSet
Validated: 1
EndChar

StartChar: F10
Encoding: 477 59914 459
Width: 2220
Flags: W
LayerCount: 2
Fore
SplineSet
1799.5 756.5 m 2,0,1
 1799.5 576.5 1799.5 576.5 1727.75 488.25 c 128,-1,2
 1656 400 1656 400 1531 400 c 256,3,4
 1406 400 1406 400 1334.25 488.25 c 128,-1,5
 1262.5 576.5 1262.5 576.5 1262.5 756.5 c 2,6,-1
 1262.5 818 l 2,7,8
 1262.5 990 1262.5 990 1330.75 1084.25 c 128,-1,9
 1399 1178.5 1399 1178.5 1531 1178.5 c 256,10,11
 1663 1178.5 1663 1178.5 1731.25 1084.25 c 128,-1,12
 1799.5 990 1799.5 990 1799.5 818 c 2,13,-1
 1799.5 756.5 l 2,0,1
1631 777 m 2,14,-1
 1631 797.5 l 2,15,16
 1631 950 1631 950 1610.75 1007 c 128,-1,17
 1590.5 1064 1590.5 1064 1531 1064 c 256,18,19
 1471.5 1064 1471.5 1064 1451.5 1007 c 128,-1,20
 1431.5 950 1431.5 950 1431.5 797.5 c 2,21,-1
 1431.5 777 l 2,22,23
 1431.5 624.5 1431.5 624.5 1452 569.75 c 128,-1,24
 1472.5 515 1472.5 515 1531 515 c 0,25,26
 1590.5 515 1590.5 515 1610.75 569.75 c 128,-1,27
 1631 624.5 1631 624.5 1631 777 c 2,14,-1
1214.5 404 m 1,28,-1
 1060 404 l 1,29,-1
 1060 978.5 l 1,30,-1
 954.5 978.5 l 1,31,-1
 954.5 1069.5 l 1,32,33
 1026 1075.5 1026 1075.5 1064 1108 c 128,-1,34
 1102 1140.5 1102 1140.5 1113 1158.5 c 1,35,-1
 1214.5 1158.5 l 1,36,-1
 1214.5 404 l 1,28,-1
911 1046.5 m 1,37,-1
 622 1046.5 l 1,38,-1
 622 844 l 1,39,-1
 846.5 844 l 1,40,-1
 846.5 730 l 1,41,-1
 622 730 l 1,42,-1
 622 404.5 l 1,43,-1
 452 404.5 l 1,44,-1
 452 1159 l 1,45,-1
 911 1159 l 1,46,-1
 911 1046.5 l 1,37,-1
1694 1536 m 1,47,-1
 2048 1536 l 1,48,-1
 2048 0 l 1,49,-1
 1694 0 l 1,50,-1
 1493 0 l 1,51,-1
 727 0 l 1,52,-1
 524 0 l 1,53,-1
 172 0 l 1,54,-1
 172 1536 l 1,55,-1
 524 1536 l 1,56,-1
 727 1536 l 1,57,-1
 1493 1536 l 1,58,-1
 1694 1536 l 1,47,-1
1384 1364 m 1,59,-1
 834 1364 l 1,60,-1
 633 1364 l 1,61,-1
 342 1364 l 1,62,-1
 342 172 l 1,63,-1
 633 172 l 1,64,-1
 834 172 l 1,65,-1
 1384 172 l 1,66,-1
 1587 172 l 1,67,-1
 1878 172 l 1,68,-1
 1878 1364 l 1,69,-1
 1587 1364 l 1,70,-1
 1384 1364 l 1,59,-1
EndSplineSet
Validated: 1
EndChar

StartChar: F9
Encoding: 478 59913 460
Width: 2220
Flags: W
LayerCount: 2
Fore
SplineSet
1693.5 806.5 m 0,0,1
 1678.5 612.5 1678.5 612.5 1602.5 508 c 0,2,3
 1521.5 396 1521.5 396 1367 396 c 0,4,5
 1327 396 1327 396 1296.75 401.25 c 128,-1,6
 1266.5 406.5 1266.5 406.5 1241 411.5 c 1,7,-1
 1241 541.5 l 1,8,9
 1275 533.5 1275 533.5 1306.25 528.25 c 128,-1,10
 1337.5 523 1337.5 523 1367 523 c 0,11,12
 1439.5 523 1439.5 523 1478.5 569.5 c 128,-1,13
 1517.5 616 1517.5 616 1520.5 696 c 1,14,15
 1506 670.5 1506 670.5 1461.5 650 c 128,-1,16
 1417 629.5 1417 629.5 1378 629.5 c 0,17,18
 1261.5 629.5 1261.5 629.5 1197.25 697.25 c 128,-1,19
 1133 765 1133 765 1133 889.5 c 0,20,21
 1133 1018.5 1133 1018.5 1205.5 1095 c 128,-1,22
 1278 1171.5 1278 1171.5 1408 1171.5 c 0,23,24
 1547 1171.5 1547 1171.5 1615.5 1098 c 0,25,26
 1680 1030 1680 1030 1693.5 872.5 c 0,27,28
 1694.5 861 1694.5 861 1694.5 844 c 0,29,30
 1694.5 840 1694.5 840 1694.5 835.5 c 0,31,32
 1694 813 1694 813 1693.5 806.5 c 0,0,1
1529 900.5 m 0,33,34
 1529 983.5 1529 983.5 1498.75 1019.25 c 128,-1,35
 1468.5 1055 1468.5 1055 1415 1055 c 0,36,37
 1363 1055 1363 1055 1333 1019.75 c 128,-1,38
 1303 984.5 1303 984.5 1303 900.5 c 0,39,40
 1303 820.5 1303 820.5 1333 782.75 c 128,-1,41
 1363 745 1363 745 1415 745 c 0,42,43
 1461 745 1461 745 1495 782.25 c 128,-1,44
 1529 819.5 1529 819.5 1529 900.5 c 0,33,34
1015 1046.5 m 1,45,-1
 726 1046.5 l 1,46,-1
 726 844 l 1,47,-1
 950.5 844 l 1,48,-1
 950.5 730 l 1,49,-1
 726 730 l 1,50,-1
 726 404.5 l 1,51,-1
 556 404.5 l 1,52,-1
 556 1159 l 1,53,-1
 1015 1159 l 1,54,-1
 1015 1046.5 l 1,45,-1
1694 1536 m 1,55,-1
 2048 1536 l 1,56,-1
 2048 0 l 1,57,-1
 1694 0 l 1,58,-1
 1493 0 l 1,59,-1
 727 0 l 1,60,-1
 524 0 l 1,61,-1
 172 0 l 1,62,-1
 172 1536 l 1,63,-1
 524 1536 l 1,64,-1
 727 1536 l 1,65,-1
 1493 1536 l 1,66,-1
 1694 1536 l 1,55,-1
1384 1364 m 1,67,-1
 834 1364 l 1,68,-1
 633 1364 l 1,69,-1
 342 1364 l 1,70,-1
 342 172 l 1,71,-1
 633 172 l 1,72,-1
 834 172 l 1,73,-1
 1384 172 l 1,74,-1
 1587 172 l 1,75,-1
 1878 172 l 1,76,-1
 1878 1364 l 1,77,-1
 1587 1364 l 1,78,-1
 1384 1364 l 1,67,-1
EndSplineSet
Validated: 1
EndChar

StartChar: F8
Encoding: 479 59912 461
Width: 2220
Flags: W
LayerCount: 2
Fore
SplineSet
1626 627.5 m 0,0,1
 1626 518 1626 518 1556.25 455 c 128,-1,2
 1486.5 392 1486.5 392 1373 392 c 0,3,4
 1251 392 1251 392 1186.5 449.5 c 128,-1,5
 1122 507 1122 507 1122 615 c 0,6,7
 1122 671.5 1122 671.5 1154.75 724.5 c 128,-1,8
 1187.5 777.5 1187.5 777.5 1248 800 c 1,9,-1
 1248 811 l 1,10,11
 1196 828.5 1196 828.5 1168.75 870.5 c 128,-1,12
 1141.5 912.5 1141.5 912.5 1141.5 974 c 0,13,14
 1141.5 1054.5 1141.5 1054.5 1202.5 1112 c 128,-1,15
 1263.5 1169.5 1263.5 1169.5 1373 1169.5 c 0,16,17
 1484.5 1169.5 1484.5 1169.5 1542.5 1112.75 c 128,-1,18
 1600.5 1056 1600.5 1056 1600.5 967.5 c 0,19,20
 1600.5 910.5 1600.5 910.5 1574.25 869 c 128,-1,21
 1548 827.5 1548 827.5 1502 811 c 1,22,-1
 1502 800 l 1,23,24
 1558.5 782.5 1558.5 782.5 1592.25 740.5 c 128,-1,25
 1626 698.5 1626 698.5 1626 627.5 c 0,0,1
1456 954.5 m 0,26,27
 1456 1005.5 1456 1005.5 1435 1030 c 128,-1,28
 1414 1054.5 1414 1054.5 1373 1054.5 c 256,29,30
 1332 1054.5 1332 1054.5 1311.5 1029.5 c 128,-1,31
 1291 1004.5 1291 1004.5 1291 954.5 c 0,32,33
 1291 901 1291 901 1312.5 877.5 c 128,-1,34
 1334 854 1334 854 1373 854 c 0,35,36
 1407 854 1407 854 1431.5 876.5 c 128,-1,37
 1456 899 1456 899 1456 954.5 c 0,26,27
1476.5 623.5 m 0,38,39
 1476.5 688 1476.5 688 1449.75 717.75 c 128,-1,40
 1423 747.5 1423 747.5 1373 747.5 c 0,41,42
 1324.5 747.5 1324.5 747.5 1297.5 719.25 c 128,-1,43
 1270.5 691 1270.5 691 1270.5 623.5 c 0,44,45
 1270.5 562 1270.5 562 1297.25 534.5 c 128,-1,46
 1324 507 1324 507 1373 507 c 0,47,48
 1418 507 1418 507 1447.25 534.5 c 128,-1,49
 1476.5 562 1476.5 562 1476.5 623.5 c 0,38,39
1041 1046.5 m 1,50,-1
 752 1046.5 l 1,51,-1
 752 844 l 1,52,-1
 976.5 844 l 1,53,-1
 976.5 730 l 1,54,-1
 752 730 l 1,55,-1
 752 404.5 l 1,56,-1
 582 404.5 l 1,57,-1
 582 1159 l 1,58,-1
 1041 1159 l 1,59,-1
 1041 1046.5 l 1,50,-1
1694 1536 m 1,60,-1
 2048 1536 l 1,61,-1
 2048 0 l 1,62,-1
 1694 0 l 1,63,-1
 1493 0 l 1,64,-1
 727 0 l 1,65,-1
 524 0 l 1,66,-1
 172 0 l 1,67,-1
 172 1536 l 1,68,-1
 524 1536 l 1,69,-1
 727 1536 l 1,70,-1
 1493 1536 l 1,71,-1
 1694 1536 l 1,60,-1
1384 1364 m 1,72,-1
 834 1364 l 1,73,-1
 633 1364 l 1,74,-1
 342 1364 l 1,75,-1
 342 172 l 1,76,-1
 633 172 l 1,77,-1
 834 172 l 1,78,-1
 1384 172 l 1,79,-1
 1587 172 l 1,80,-1
 1878 172 l 1,81,-1
 1878 1364 l 1,82,-1
 1587 1364 l 1,83,-1
 1384 1364 l 1,72,-1
EndSplineSet
Validated: 1
EndChar

StartChar: F7
Encoding: 480 59911 462
Width: 2220
Flags: W
LayerCount: 2
Fore
SplineSet
1665 1030 m 1,0,1
 1545 956 1545 956 1470 805 c 0,2,3
 1404 673 1404 673 1404 464 c 0,4,5
 1405 433 1405 433 1406 404 c 1,6,-1
 1241 404 l 1,7,8
 1241 577 1241 577 1315 760 c 0,9,10
 1388 944 1388 944 1537 1046 c 1,11,-1
 1142 1046 l 1,12,-1
 1142 1158 l 1,13,-1
 1665 1158 l 1,14,-1
 1665 1030 l 1,0,1
1041 1046 m 1,15,-1
 752 1046 l 1,16,-1
 752 844 l 1,17,-1
 976 844 l 1,18,-1
 976 730 l 1,19,-1
 752 730 l 1,20,-1
 752 404 l 1,21,-1
 582 404 l 1,22,-1
 582 1159 l 1,23,-1
 1041 1159 l 1,24,-1
 1041 1046 l 1,15,-1
1694 1536 m 1,25,-1
 2048 1536 l 1,26,-1
 2048 0 l 1,27,-1
 1694 0 l 1,28,-1
 1493 0 l 1,29,-1
 727 0 l 1,30,-1
 524 0 l 1,31,-1
 172 0 l 1,32,-1
 172 1536 l 1,33,-1
 524 1536 l 1,34,-1
 727 1536 l 1,35,-1
 1493 1536 l 1,36,-1
 1694 1536 l 1,25,-1
1384 1364 m 1,37,-1
 834 1364 l 1,38,-1
 633 1364 l 1,39,-1
 342 1364 l 1,40,-1
 342 172 l 1,41,-1
 633 172 l 1,42,-1
 834 172 l 1,43,-1
 1384 172 l 1,44,-1
 1587 172 l 1,45,-1
 1878 172 l 1,46,-1
 1878 1364 l 1,47,-1
 1587 1364 l 1,48,-1
 1384 1364 l 1,37,-1
EndSplineSet
Validated: 1
EndChar

StartChar: F6
Encoding: 481 59910 463
Width: 2220
Flags: W
LayerCount: 2
Fore
SplineSet
1694 676 m 0,0,1
 1694 547 1694 547 1620 470 c 0,2,3
 1547 394 1547 394 1417 394 c 0,4,5
 1280 394 1280 394 1210 468 c 128,-1,6
 1140 542 1140 542 1132 693 c 0,7,8
 1131 702 1131 702 1131 716 c 128,-1,9
 1131 730 1131 730 1131 730 c 0,10,11
 1132 759 1132 759 1132 759 c 0,12,13
 1131 772 1131 772 1131 788 c 0,14,15
 1131 790 1131 790 1131 791 c 128,-1,16
 1131 792 1131 792 1131 794 c 0,17,18
 1130.98947368 795.378947368 1130.98947368 795.378947368 1130.98947368 796.757783934 c 0,19,20
 1130.98947368 926.368421053 1130.98947368 926.368421053 1224 1055 c 0,21,22
 1307 1170 1307 1170 1448 1170 c 0,23,24
 1453 1170 1453 1170 1458 1170 c 0,25,26
 1493 1170 1493 1170 1528 1164 c 0,27,28
 1548 1161 1548 1161 1584 1154 c 1,29,-1
 1584 1024 l 1,30,31
 1549 1032 1549 1032 1519 1037 c 0,32,33
 1488 1042 1488 1042 1458 1042 c 0,34,35
 1456 1042 1456 1042 1453 1042 c 128,-1,36
 1450 1042 1450 1042 1448 1042 c 128,-1,37
 1446 1042 1446 1042 1443 1042 c 0,38,39
 1440.84 1042.08 1440.84 1042.08 1438.704 1042.08 c 0,40,41
 1387.44 1042.08 1387.44 1042.08 1350 996 c 0,42,43
 1311 948 1311 948 1304 870 c 1,44,45
 1319 895 1319 895 1363.5 915.5 c 128,-1,46
 1408 936 1408 936 1447 936 c 0,47,48
 1564 936 1564 936 1629 868 c 128,-1,49
 1694 800 1694 800 1694 676 c 0,0,1
1524 664 m 0,50,51
 1524 744 1524 744 1493 781.5 c 128,-1,52
 1462 819 1462 819 1410 819 c 0,53,54
 1363 819 1363 819 1330 782 c 0,55,56
 1296 744 1296 744 1296 664 c 0,57,58
 1296 580 1296 580 1326 544 c 0,59,60
 1356 509 1356 509 1410 509 c 0,61,62
 1462 509 1462 509 1493 544.5 c 128,-1,63
 1524 580 1524 580 1524 664 c 0,50,51
1041 1046 m 1,64,-1
 752 1046 l 1,65,-1
 752 844 l 1,66,-1
 976 844 l 1,67,-1
 976 730 l 1,68,-1
 752 730 l 1,69,-1
 752 404 l 1,70,-1
 582 404 l 1,71,-1
 582 1159 l 1,72,-1
 1041 1159 l 1,73,-1
 1041 1046 l 1,64,-1
1694 1536 m 1,74,-1
 2048 1536 l 1,75,-1
 2048 0 l 1,76,-1
 1694 0 l 1,77,-1
 1493 0 l 1,78,-1
 727 0 l 1,79,-1
 524 0 l 1,80,-1
 172 0 l 1,81,-1
 172 1536 l 1,82,-1
 524 1536 l 1,83,-1
 727 1536 l 1,84,-1
 1493 1536 l 1,85,-1
 1694 1536 l 1,74,-1
1384 1364 m 1,86,-1
 834 1364 l 1,87,-1
 633 1364 l 1,88,-1
 342 1364 l 1,89,-1
 342 172 l 1,90,-1
 633 172 l 1,91,-1
 834 172 l 1,92,-1
 1384 172 l 1,93,-1
 1587 172 l 1,94,-1
 1878 172 l 1,95,-1
 1878 1364 l 1,96,-1
 1587 1364 l 1,97,-1
 1384 1364 l 1,86,-1
EndSplineSet
Validated: 1
EndChar

StartChar: F5
Encoding: 482 59909 464
Width: 2220
Flags: W
LayerCount: 2
Fore
SplineSet
1661 683 m 0,0,1
 1661 530 1661 530 1579.5 462 c 128,-1,2
 1498 394 1498 394 1369 394 c 0,3,4
 1272 394 1272 394 1206 433 c 128,-1,5
 1140 472 1140 472 1100 556 c 1,6,-1
 1212 620 l 1,7,8
 1235 562 1235 562 1273 537 c 0,9,10
 1312 511 1312 511 1361 511 c 0,11,12
 1424 511 1424 511 1456.5 550.5 c 128,-1,13
 1489 590 1489 590 1489 668 c 0,14,15
 1489 742 1489 742 1457 780 c 0,16,17
 1424 817 1424 817 1365 817 c 0,18,19
 1335 817 1335 817 1303 805 c 0,20,21
 1272 794 1272 794 1241 768 c 1,22,-1
 1142 824 l 1,23,-1
 1157 1162 l 1,24,-1
 1586 1162 l 1,25,-1
 1586 1050 l 1,26,-1
 1281 1050 l 1,27,-1
 1274 910 l 1,28,29
 1300 929 1300 929 1346 936 c 0,30,31
 1390 943 1390 943 1409 943 c 0,32,33
 1520 943 1520 943 1590.5 869.5 c 128,-1,34
 1661 796 1661 796 1661 683 c 0,0,1
1041 1046 m 1,35,-1
 752 1046 l 1,36,-1
 752 844 l 1,37,-1
 976 844 l 1,38,-1
 976 730 l 1,39,-1
 752 730 l 1,40,-1
 752 404 l 1,41,-1
 582 404 l 1,42,-1
 582 1159 l 1,43,-1
 1041 1159 l 1,44,-1
 1041 1046 l 1,35,-1
1694 1536 m 1,45,-1
 2048 1536 l 1,46,-1
 2048 0 l 1,47,-1
 1694 0 l 1,48,-1
 1493 0 l 1,49,-1
 727 0 l 1,50,-1
 524 0 l 1,51,-1
 172 0 l 1,52,-1
 172 1536 l 1,53,-1
 524 1536 l 1,54,-1
 727 1536 l 1,55,-1
 1493 1536 l 1,56,-1
 1694 1536 l 1,45,-1
1384 1364 m 1,57,-1
 834 1364 l 1,58,-1
 633 1364 l 1,59,-1
 342 1364 l 1,60,-1
 342 172 l 1,61,-1
 633 172 l 1,62,-1
 834 172 l 1,63,-1
 1384 172 l 1,64,-1
 1587 172 l 1,65,-1
 1878 172 l 1,66,-1
 1878 1364 l 1,67,-1
 1587 1364 l 1,68,-1
 1384 1364 l 1,57,-1
EndSplineSet
Validated: 1
EndChar

StartChar: F4
Encoding: 483 59908 465
Width: 2220
Flags: W
LayerCount: 2
Fore
SplineSet
1620 625 m 1,0,-1
 1566 625 l 1,1,-1
 1566 406 l 1,2,-1
 1413 406 l 1,3,-1
 1413 625 l 1,4,-1
 1082 625 l 1,5,-1
 1074 770 l 1,6,-1
 1464 1160 l 1,7,-1
 1566 1160 l 1,8,-1
 1566 734 l 1,9,-1
 1620 734 l 1,10,-1
 1620 625 l 1,0,-1
1415 734 m 1,11,-1
 1415 964 l 1,12,-1
 1186 734 l 1,13,-1
 1415 734 l 1,11,-1
1041 1046 m 1,14,-1
 752 1046 l 1,15,-1
 752 844 l 1,16,-1
 976 844 l 1,17,-1
 976 730 l 1,18,-1
 752 730 l 1,19,-1
 752 404 l 1,20,-1
 582 404 l 1,21,-1
 582 1159 l 1,22,-1
 1041 1159 l 1,23,-1
 1041 1046 l 1,14,-1
1694 1536 m 1,24,-1
 2048 1536 l 1,25,-1
 2048 0 l 1,26,-1
 1694 0 l 1,27,-1
 1493 0 l 1,28,-1
 727 0 l 1,29,-1
 524 0 l 1,30,-1
 172 0 l 1,31,-1
 172 1536 l 1,32,-1
 524 1536 l 1,33,-1
 727 1536 l 1,34,-1
 1493 1536 l 1,35,-1
 1694 1536 l 1,24,-1
1384 1364 m 1,36,-1
 834 1364 l 1,37,-1
 633 1364 l 1,38,-1
 342 1364 l 1,39,-1
 342 172 l 1,40,-1
 633 172 l 1,41,-1
 834 172 l 1,42,-1
 1384 172 l 1,43,-1
 1587 172 l 1,44,-1
 1878 172 l 1,45,-1
 1878 1364 l 1,46,-1
 1587 1364 l 1,47,-1
 1384 1364 l 1,36,-1
EndSplineSet
Validated: 1
EndChar

StartChar: F3
Encoding: 484 59907 466
Width: 2220
Flags: W
LayerCount: 2
Fore
SplineSet
1640 624 m 0,0,1
 1640 519 1640 519 1567.5 455.5 c 128,-1,2
 1495 392 1495 392 1377 392 c 0,3,4
 1274 392 1274 392 1208 431 c 128,-1,5
 1142 470 1142 470 1109 530 c 1,6,-1
 1212 594 l 1,7,8
 1226 560 1226 560 1266 534 c 0,9,10
 1306 509 1306 509 1362 509 c 0,11,12
 1417 509 1417 509 1449 542 c 0,13,14
 1482 576 1482 576 1482 634 c 0,15,16
 1482 635 1482 635 1482 637 c 0,17,18
 1482 682 1482 682 1452 716 c 0,19,20
 1424 748 1424 748 1364 748 c 2,21,-1
 1288 748 l 1,22,-1
 1288 854 l 1,23,-1
 1368 854 l 2,24,25
 1421 854 1421 854 1446 878 c 0,26,27
 1472 903 1472 903 1472 952 c 0,28,29
 1472 954 1472 954 1472 956 c 128,-1,30
 1472 958 1472 958 1472 960 c 128,-1,31
 1472 962 1472 962 1472 964 c 0,32,33
 1472.04545455 965.636363636 1472.04545455 965.636363636 1472.04545455 967.256198347 c 0,34,35
 1472.04545455 1001.27272727 1472.04545455 1001.27272727 1452 1028 c 0,36,37
 1431 1056 1431 1056 1384 1056 c 0,38,39
 1342 1056 1342 1056 1318.5 1041 c 128,-1,40
 1295 1026 1295 1026 1283 1000 c 1,41,-1
 1148 1000 l 1,42,43
 1162 1070 1162 1070 1221 1120 c 128,-1,44
 1280 1170 1280 1170 1384 1170 c 0,45,46
 1386 1170 1386 1170 1388 1170 c 128,-1,47
 1390 1170 1390 1170 1392 1170 c 128,-1,48
 1394 1170 1394 1170 1396 1170 c 128,-1,49
 1397.88135593 1170.01694915 1397.88135593 1170.01694915 1399.74834818 1170.01694915 c 0,50,51
 1508.03389831 1170.01694915 1508.03389831 1170.01694915 1568 1113 c 0,52,53
 1629 1055 1629 1055 1629 974 c 0,54,55
 1629 901 1629 901 1592 861 c 0,56,57
 1556 822 1556 822 1512 810 c 1,58,59
 1566 790 1566 790 1603 744 c 128,-1,60
 1640 698 1640 698 1640 624 c 0,0,1
1041 1046 m 1,61,-1
 752 1046 l 1,62,-1
 752 844 l 1,63,-1
 976 844 l 1,64,-1
 976 730 l 1,65,-1
 752 730 l 1,66,-1
 752 404 l 1,67,-1
 582 404 l 1,68,-1
 582 1159 l 1,69,-1
 1041 1159 l 1,70,-1
 1041 1046 l 1,61,-1
1694 1536 m 1,71,-1
 2048 1536 l 1,72,-1
 2048 0 l 1,73,-1
 1694 0 l 1,74,-1
 1493 0 l 1,75,-1
 727 0 l 1,76,-1
 524 0 l 1,77,-1
 172 0 l 1,78,-1
 172 1536 l 1,79,-1
 524 1536 l 1,80,-1
 727 1536 l 1,81,-1
 1493 1536 l 1,82,-1
 1694 1536 l 1,71,-1
1384 1364 m 1,83,-1
 834 1364 l 1,84,-1
 633 1364 l 1,85,-1
 342 1364 l 1,86,-1
 342 172 l 1,87,-1
 633 172 l 1,88,-1
 834 172 l 1,89,-1
 1384 172 l 1,90,-1
 1587 172 l 1,91,-1
 1878 172 l 1,92,-1
 1878 1364 l 1,93,-1
 1587 1364 l 1,94,-1
 1384 1364 l 1,83,-1
EndSplineSet
Validated: 1
EndChar

StartChar: F2
Encoding: 485 59906 467
Width: 2220
Flags: W
LayerCount: 2
Fore
SplineSet
1661 404 m 1,0,-1
 1147 404 l 1,1,-1
 1147 531 l 1,2,3
 1342 699 1342 699 1414 782 c 128,-1,4
 1486 865 1486 865 1486 932 c 0,5,6
 1486 982 1486 982 1462.5 1018 c 128,-1,7
 1439 1054 1439 1054 1388 1054 c 0,8,9
 1332 1054 1332 1054 1314 1033 c 128,-1,10
 1296 1012 1296 1012 1287 984 c 1,11,-1
 1142 984 l 1,12,13
 1164 1080 1164 1080 1234 1124 c 0,14,15
 1304 1169 1304 1169 1412 1169 c 0,16,17
 1529 1169 1529 1169 1592 1107 c 128,-1,18
 1655 1045 1655 1045 1655 953 c 0,19,20
 1655 854 1655 854 1568.5 752.5 c 128,-1,21
 1482 651 1482 651 1287 516 c 1,22,-1
 1661 516 l 1,23,-1
 1661 404 l 1,0,-1
1041 1046 m 1,24,-1
 752 1046 l 1,25,-1
 752 844 l 1,26,-1
 976 844 l 1,27,-1
 976 730 l 1,28,-1
 752 730 l 1,29,-1
 752 404 l 1,30,-1
 582 404 l 1,31,-1
 582 1159 l 1,32,-1
 1041 1159 l 1,33,-1
 1041 1046 l 1,24,-1
1694 1536 m 1,34,-1
 2048 1536 l 1,35,-1
 2048 0 l 1,36,-1
 1694 0 l 1,37,-1
 1493 0 l 1,38,-1
 727 0 l 1,39,-1
 524 0 l 1,40,-1
 172 0 l 1,41,-1
 172 1536 l 1,42,-1
 524 1536 l 1,43,-1
 727 1536 l 1,44,-1
 1493 1536 l 1,45,-1
 1694 1536 l 1,34,-1
1384 1364 m 1,46,-1
 834 1364 l 1,47,-1
 633 1364 l 1,48,-1
 342 1364 l 1,49,-1
 342 172 l 1,50,-1
 633 172 l 1,51,-1
 834 172 l 1,52,-1
 1384 172 l 1,53,-1
 1587 172 l 1,54,-1
 1878 172 l 1,55,-1
 1878 1364 l 1,56,-1
 1587 1364 l 1,57,-1
 1384 1364 l 1,46,-1
EndSplineSet
Validated: 1
EndChar

StartChar: F1
Encoding: 486 59905 468
Width: 2220
Flags: W
LayerCount: 2
Fore
SplineSet
1534 404 m 1,0,-1
 1379 404 l 1,1,-1
 1379 978 l 1,2,-1
 1274 978 l 1,3,-1
 1274 1070 l 1,4,5
 1345 1076 1345 1076 1383 1108 c 128,-1,6
 1421 1140 1421 1140 1432 1158 c 1,7,-1
 1534 1158 l 1,8,-1
 1534 404 l 1,0,-1
1081 1046 m 1,9,-1
 792 1046 l 1,10,-1
 792 844 l 1,11,-1
 1016 844 l 1,12,-1
 1016 730 l 1,13,-1
 792 730 l 1,14,-1
 792 404 l 1,15,-1
 622 404 l 1,16,-1
 622 1159 l 1,17,-1
 1081 1159 l 1,18,-1
 1081 1046 l 1,9,-1
1694 1536 m 1,19,-1
 2048 1536 l 1,20,-1
 2048 0 l 1,21,-1
 1694 0 l 1,22,-1
 1493 0 l 1,23,-1
 727 0 l 1,24,-1
 524 0 l 1,25,-1
 172 0 l 1,26,-1
 172 1536 l 1,27,-1
 524 1536 l 1,28,-1
 727 1536 l 1,29,-1
 1493 1536 l 1,30,-1
 1694 1536 l 1,19,-1
1384 1364 m 1,31,-1
 834 1364 l 1,32,-1
 633 1364 l 1,33,-1
 342 1364 l 1,34,-1
 342 172 l 1,35,-1
 633 172 l 1,36,-1
 834 172 l 1,37,-1
 1384 172 l 1,38,-1
 1587 172 l 1,39,-1
 1878 172 l 1,40,-1
 1878 1364 l 1,41,-1
 1587 1364 l 1,42,-1
 1384 1364 l 1,31,-1
EndSplineSet
Validated: 1
EndChar

StartChar: uniE0B1
Encoding: 487 57521 469
Width: 2331
VWidth: 1000
Flags: W
LayerCount: 2
Fore
SplineSet
2408.40039062 129 m 5,0,-1
 2408.40039062 -105 l 5,1,-1
 1948.79980469 -105 l 6,2,3
 1765.20019531 -105 1765.20019531 -105 1632 6 c 132,-1,4
 1498.79980469 117 1498.79980469 117 1498.79980469 298.200195312 c 4,5,6
 1498.79980469 454.200195312 1498.79980469 454.200195312 1633.79980469 574.799804688 c 132,-1,7
 1768.79980469 695.400390625 1768.79980469 695.400390625 1950 695.400390625 c 6,8,-1
 2408.40039062 695.400390625 l 5,9,-1
 2408.40039062 461.400390625 l 5,10,-1
 2227.20019531 196.200195312 l 5,11,-1
 1918.79980469 196.200195312 l 5,12,-1
 2110.79980469 461.400390625 l 5,13,-1
 1970.40039062 461.400390625 l 6,14,15
 1892.40039062 461.400390625 1892.40039062 461.400390625 1844.40039062 416.400390625 c 132,-1,16
 1796.40039062 371.400390625 1796.40039062 371.400390625 1796.40039062 301.799804688 c 4,17,18
 1796.40039062 227.400390625 1796.40039062 227.400390625 1847.40039062 178.200195312 c 132,-1,19
 1898.40039062 129 1898.40039062 129 1970.40039062 129 c 6,20,-1
 2408.40039062 129 l 5,0,-1
1244.40039062 1611 m 5,21,-1
 1777.20019531 1611 l 5,22,-1
 1185.60058594 -111 l 5,23,24
 1184.40039062 -111 1184.40039062 -111 654 -111 c 5,25,-1
 1244.40039062 1611 l 5,21,-1
505.200195312 1611 m 5,26,-1
 1039.20019531 1611 l 5,27,-1
 447.600585938 -111 l 5,28,-1
 -84 -111 l 5,29,-1
 505.200195312 1611 l 5,26,-1
EndSplineSet
Validated: 1
EndChar

StartChar: triagdn
Encoding: 488 9660 470
Width: 1467
VWidth: 1000
Flags: W
LayerCount: 2
Fore
SplineSet
65.5 890 m 0,0,1
 5.5 950 5.5 950 4.2998046875 1037.59960938 c 0,2,3
 4.2998046875 1121.59960938 4.2998046875 1121.59960938 65.5 1182.79980469 c 128,-1,4
 126.700195312 1244 126.700195312 1244 214.299804688 1244 c 2,5,-1
 1248.70019531 1244 l 2,6,7
 1335.09960938 1244 1335.09960938 1244 1396.90039062 1182.79980469 c 128,-1,8
 1458.70019531 1121.59960938 1458.70019531 1121.59960938 1458.70019531 1037.59960938 c 0,9,10
 1458.70019531 950 1458.70019531 950 1397.5 890 c 2,11,-1
 731.5 206 l 1,12,13
 331.900390625 616.400390625 331.900390625 616.400390625 65.5 890 c 0,0,1
EndSplineSet
Validated: 1
EndChar

StartChar: clickbox
Encoding: 489 9746 471
Width: 1881
Flags: W
LayerCount: 2
Fore
SplineSet
136 1304 m 1,0,-1
 1744 1304 l 1,1,-1
 1744 -304 l 1,2,-1
 136 -304 l 1,3,-1
 136 1304 l 1,0,-1
0 1448 m 1,4,-1
 0 -432 l 1,5,-1
 1881 -432 l 1,6,-1
 1881 1448 l 1,7,-1
 0 1448 l 1,4,-1
1016.33984375 114.719726562 m 1,8,-1
 1016.33984375 -163.740234375 l 1,9,-1
 860.73046875 -163.740234375 l 1,10,-1
 860.73046875 114.719726562 l 1,11,-1
 1016.33984375 114.719726562 l 1,8,-1
1489.54003906 45.5595703125 m 1,12,-1
 1380.33984375 -63.6396484375 l 1,13,-1
 1159.20996094 156.580078125 l 1,14,-1
 1269.3203125 266.690429688 l 1,15,-1
 1489.54003906 45.5595703125 l 1,12,-1
1016.33984375 862.740234375 m 1,16,-1
 860.73046875 862.740234375 l 1,17,-1
 860.73046875 1141.20019531 l 1,18,-1
 1016.33984375 1141.20019531 l 1,19,-1
 1016.33984375 862.740234375 l 1,16,-1
1489.54003906 931.900390625 m 1,20,-1
 1269.3203125 710.76953125 l 1,21,-1
 1159.20996094 820.879882812 l 1,22,-1
 1380.33984375 1041.09960938 l 1,23,-1
 1489.54003906 931.900390625 l 1,20,-1
733.330078125 805.41015625 m 1,24,-1
 623.219726562 695.299804688 l 1,25,-1
 427.5703125 890.950195312 l 1,26,-1
 537.6796875 1001.05957031 l 1,27,-1
 733.330078125 805.41015625 l 1,24,-1
1638.78027344 417.75 m 1,28,-1
 1327.55957031 417.75 l 1,29,-1
 1327.55957031 573.360351562 l 1,30,-1
 1638.78027344 573.360351562 l 1,31,-1
 1638.78027344 417.75 l 1,28,-1
549.509765625 417.75 m 1,32,-1
 238.290039062 417.75 l 1,33,-1
 238.290039062 573.360351562 l 1,34,-1
 549.509765625 573.360351562 l 1,35,-1
 549.509765625 417.75 l 1,32,-1
719.6796875 161.129882812 m 1,36,-1
 498.549804688 -59.08984375 l 1,37,-1
 389.349609375 50.1103515625 l 1,38,-1
 610.48046875 271.240234375 l 1,39,-1
 719.6796875 161.129882812 l 1,36,-1
EndSplineSet
EndChar

StartChar: closebox
Encoding: 490 9744 472
Width: 1881
Flags: W
LayerCount: 2
Fore
SplineSet
136 1304 m 1,0,-1
 1744 1304 l 1,1,-1
 1744 -304 l 1,2,-1
 136 -304 l 1,3,-1
 136 1304 l 1,0,-1
0 1448 m 1,4,-1
 0 -432 l 1,5,-1
 1881 -432 l 1,6,-1
 1881 1448 l 1,7,-1
 0 1448 l 1,4,-1
EndSplineSet
EndChar

StartChar: uni2611
Encoding: 491 9745 473
Width: 2220
Flags: WO
LayerCount: 2
Fore
SplineSet
1793.25 396.75 m 1,0,1
 1781 385.25 1781 385.25 1748.79980469 374.5 c 128,-1,2
 1716.59960938 363.75 1716.59960938 363.75 1674.25 363.75 c 0,3,4
 1567.5 363.75 1567.5 363.75 1500.125 458 c 128,-1,5
 1432.75 552.25 1432.75 552.25 1432.75 734.75 c 2,6,-1
 1432.75 765.25 l 2,7,8
 1432.75 935.25 1432.75 935.25 1501.17480469 1038.25 c 128,-1,9
 1569.59960938 1141.25 1569.59960938 1141.25 1672.84960938 1141.25 c 0,10,11
 1717.29980469 1141.25 1717.29980469 1141.25 1747.04980469 1134 c 128,-1,12
 1776.79980469 1126.75 1776.79980469 1126.75 1793.25 1114.75 c 1,13,-1
 1793.25 994.75 l 1,14,15
 1778.20019531 1006.25 1778.20019531 1006.25 1752.47460938 1015.25 c 128,-1,16
 1726.75 1024.25 1726.75 1024.25 1692.09960938 1024.25 c 0,17,18
 1627.70019531 1024.25 1627.70019531 1024.25 1591.47460938 952.75 c 128,-1,19
 1555.25 881.25 1555.25 881.25 1555.25 755.25 c 2,20,-1
 1555.25 744.75 l 2,21,22
 1555.25 609.75 1555.25 609.75 1589.02539062 545.25 c 128,-1,23
 1622.79980469 480.75 1622.79980469 480.75 1681.25 480.75 c 0,24,25
 1720.79980469 480.75 1720.79980469 480.75 1748.79980469 492 c 128,-1,26
 1776.79980469 503.25 1776.79980469 503.25 1793.25 513.25 c 1,27,-1
 1793.25 396.75 l 1,0,1
1325.875 602 m 0,28,29
 1325.875 482 1325.875 482 1269.875 424.75 c 128,-1,30
 1213.875 367.5 1213.875 367.5 1114.125 367.5 c 0,31,32
 1057.07519531 367.5 1057.07519531 367.5 1017.875 377 c 128,-1,33
 978.674804688 386.5 978.674804688 386.5 953.125 401 c 1,34,-1
 953.125 531 l 1,35,36
 973.075195312 513.5 973.075195312 513.5 1015.77539062 498.75 c 128,-1,37
 1058.47460938 484 1058.47460938 484 1099.77539062 484 c 0,38,39
 1157.875 484 1157.875 484 1179.75 506 c 128,-1,40
 1201.625 528 1201.625 528 1201.625 579 c 0,41,42
 1201.625 612 1201.625 612 1185.875 637.5 c 128,-1,43
 1170.125 663 1170.125 663 1096.27539062 705 c 0,44,45
 1037.47460938 739 1037.47460938 739 1005.27539062 791.75 c 128,-1,46
 973.075195312 844.5 973.075195312 844.5 973.075195312 935.5 c 0,47,48
 973.075195312 1022.5 973.075195312 1022.5 1025.04980469 1082.5 c 128,-1,49
 1077.02539062 1142.5 1077.02539062 1142.5 1168.72460938 1142.5 c 0,50,51
 1213.17480469 1142.5 1213.17480469 1142.5 1248.70019531 1132.25 c 128,-1,52
 1284.22460938 1122 1284.22460938 1122 1298.57519531 1114 c 1,53,-1
 1298.57519531 999 l 1,54,55
 1268.47460938 1009.5 1268.47460938 1009.5 1238.72460938 1017.5 c 128,-1,56
 1208.97460938 1025.5 1208.97460938 1025.5 1175.375 1025.5 c 0,57,58
 1127.77539062 1025.5 1127.77539062 1025.5 1106.77539062 1004.5 c 128,-1,59
 1085.77539062 983.5 1085.77539062 983.5 1085.77539062 952 c 0,60,61
 1085.77539062 912 1085.77539062 912 1101.52539062 891.5 c 128,-1,62
 1117.27539062 871 1117.27539062 871 1193.92480469 831 c 0,63,64
 1265.32519531 794 1265.32519531 794 1295.59960938 737.25 c 128,-1,65
 1325.875 680.5 1325.875 680.5 1325.875 602 c 0,28,29
803.325195312 377.25 m 1,66,-1
 467.674804688 377.25 l 1,67,-1
 467.674804688 1131.75 l 1,68,-1
 788.974609375 1131.75 l 1,69,-1
 788.974609375 1019.25 l 1,70,-1
 586.674804688 1019.25 l 1,71,-1
 586.674804688 816.75 l 1,72,-1
 743.825195312 816.75 l 1,73,-1
 743.825195312 702.75 l 1,74,-1
 586.674804688 702.75 l 1,75,-1
 586.674804688 489.75 l 1,76,-1
 803.325195312 489.75 l 1,77,-1
 803.325195312 377.25 l 1,66,-1
1694 1536 m 1,78,-1
 2048 1536 l 1,79,-1
 2048 0 l 1,80,-1
 1694 0 l 1,81,-1
 1493 0 l 1,82,-1
 727 0 l 1,83,-1
 524 0 l 1,84,-1
 172 0 l 1,85,-1
 172 1536 l 1,86,-1
 524 1536 l 1,87,-1
 727 1536 l 1,88,-1
 1493 1536 l 1,89,-1
 1694 1536 l 1,78,-1
1384 1364 m 1,90,-1
 834 1364 l 1,91,-1
 633 1364 l 1,92,-1
 342 1364 l 1,93,-1
 342 172 l 1,94,-1
 633 172 l 1,95,-1
 834 172 l 1,96,-1
 1384 172 l 1,97,-1
 1587 172 l 1,98,-1
 1878 172 l 1,99,-1
 1878 1364 l 1,100,-1
 1587 1364 l 1,101,-1
 1384 1364 l 1,90,-1
EndSplineSet
EndChar
